<svg xmlns="http://www.w3.org/2000/svg" xmlns:xlink="http://www.w3.org/1999/xlink" width="500" zoomAndPan="magnify" viewBox="0 0 375 374.999991" height="500" preserveAspectRatio="xMidYMid meet" version="1.0"><defs><g/><clipPath id="9ae50d0edd"><path d="M 37.5 125 L 330.75 125 L 330.75 207.355469 L 37.5 207.355469 Z M 37.5 125 " clip-rule="nonzero"/></clipPath></defs><rect x="-37.5" width="450" fill="#ffffff" y="-37.499999" height="449.999989" fill-opacity="1"/><rect x="-37.5" width="450" fill="#055d00" y="-37.499999" height="449.999989" fill-opacity="1"/><g clip-path="url(#9ae50d0edd)"><path fill="#ffffff" d="M 294.191406 202.867188 C 305.53125 202.585938 317.152344 200.953125 328.707031 197.972656 C 329.6875 197.710938 330.492188 197.015625 330.882812 196.078125 C 331.273438 195.144531 331.1875 194.078125 330.6875 193.207031 L 299.003906 139.371094 C 298.371094 138.28125 297.152344 137.671875 295.914062 137.78125 L 287.121094 138.585938 L 287.121094 138.695312 L 286.730469 138 C 286.382812 137.410156 285.664062 137.171875 285.03125 137.476562 C 284.3125 137.824219 283.574219 138.152344 282.8125 138.433594 L 278.4375 130.796875 C 278.089844 130.207031 277.371094 129.96875 276.742188 130.273438 C 268.535156 134.234375 258.484375 134.777344 245.121094 131.972656 C 241.640625 131.230469 238.113281 130.339844 234.699219 129.46875 C 227.515625 127.640625 220.097656 125.769531 212.566406 125.246094 C 207.648438 124.921875 202.253906 126.269531 196.527344 129.25 C 191.242188 132.015625 186.84375 135.5625 183.886719 138.324219 C 180.925781 135.5625 176.53125 132.015625 171.242188 129.25 C 165.542969 126.269531 160.144531 124.921875 155.203125 125.246094 C 147.652344 125.746094 140.253906 127.640625 133.074219 129.46875 C 129.65625 130.339844 126.132812 131.230469 122.648438 131.972656 C 109.289062 134.777344 99.234375 134.234375 91.03125 130.273438 C 90.421875 129.96875 89.683594 130.207031 89.332031 130.796875 L 85.023438 138.414062 C 84.261719 138.109375 83.523438 137.804688 82.804688 137.453125 C 82.195312 137.148438 81.457031 137.390625 81.109375 137.976562 L 80.738281 138.628906 L 80.738281 138.566406 L 72.597656 137.757812 C 71.335938 137.628906 70.117188 138.261719 69.488281 139.347656 L 37.804688 193.183594 C 37.300781 194.035156 37.214844 195.078125 37.585938 196.015625 C 37.957031 196.949219 38.71875 197.644531 39.675781 197.929688 C 55.539062 202.714844 71.402344 204.804688 86.832031 204.152344 C 100.28125 203.585938 112.226562 201.039062 122.757812 198.777344 C 140.277344 195.035156 154.09375 192.097656 165.953125 199.867188 C 168.609375 201.605469 171.046875 203.78125 173.136719 206.328125 C 173.746094 207.070312 174.660156 207.503906 175.636719 207.503906 L 190.871094 207.503906 C 191.808594 207.503906 192.675781 207.113281 193.308594 206.414062 C 196.160156 203.195312 199.421875 200.496094 203.058594 198.429688 C 215.917969 191.03125 229.671875 193.859375 247.082031 197.449219 C 260.398438 200.191406 275.566406 203.304688 294.191406 202.867188 Z M 285.074219 140.304688 L 287.707031 144.917969 L 287.707031 145.027344 L 287.75 145.027344 L 313.167969 189.441406 C 302.550781 192.988281 289.667969 193.382812 272.78125 190.660156 C 267.796875 189.855469 262.03125 188.660156 255.957031 187.398438 C 244.707031 185.046875 233.085938 182.609375 223.707031 182.128906 C 216.050781 181.738281 207.933594 183.175781 200.859375 186.199219 C 195.789062 188.355469 191.371094 191.269531 187.78125 194.773438 C 195.679688 179.0625 210.675781 176.191406 222.621094 176.800781 C 231.847656 177.277344 240.398438 179.039062 249.472656 180.910156 C 254.261719 181.890625 259.203125 182.914062 264.207031 183.71875 C 265.25 183.894531 266.316406 184.066406 267.382812 184.242188 C 280.875 186.4375 294.847656 188.722656 307.273438 184.15625 C 307.621094 184.023438 307.902344 183.742188 308.035156 183.371094 C 308.164062 183.023438 308.121094 182.609375 307.945312 182.28125 L 284.140625 140.699219 C 284.464844 140.566406 284.769531 140.4375 285.074219 140.304688 Z M 212.4375 127.835938 C 219.75 128.335938 227.039062 130.1875 234.109375 131.972656 C 237.550781 132.839844 241.117188 133.753906 244.644531 134.496094 C 258.003906 137.300781 268.277344 136.867188 276.828125 133.101562 L 304.941406 182.21875 C 293.496094 185.875 280.460938 183.742188 267.820312 181.671875 C 266.753906 181.5 265.6875 181.324219 264.640625 181.152344 C 259.679688 180.367188 254.785156 179.34375 250.019531 178.367188 C 241.269531 176.558594 232.21875 174.6875 222.773438 174.1875 C 213.851562 173.730469 206.058594 175.253906 199.640625 178.714844 C 193.222656 182.175781 188.304688 187.527344 184.972656 194.664062 L 185.257812 140.652344 C 189.109375 136.996094 200.792969 127.054688 212.4375 127.835938 Z M 91.054688 133.101562 C 99.582031 136.867188 109.855469 137.300781 123.238281 134.496094 C 126.785156 133.753906 130.332031 132.839844 133.769531 131.972656 C 140.820312 130.1875 148.132812 128.316406 155.445312 127.835938 C 167.085938 127.054688 178.75 136.976562 182.644531 140.652344 L 182.363281 194.207031 C 179.121094 186.65625 174.289062 181.195312 167.957031 177.953125 C 161.796875 174.796875 154.921875 174.101562 149.308594 174.101562 C 147.804688 174.101562 146.390625 174.144531 145.109375 174.210938 C 135.664062 174.6875 126.609375 176.558594 117.863281 178.386719 C 113.117188 179.367188 108.199219 180.390625 103.261719 181.171875 C 102.195312 181.347656 101.148438 181.519531 100.082031 181.695312 C 87.460938 183.761719 74.40625 185.894531 62.960938 182.238281 Z M 82.785156 140.304688 C 83.089844 140.4375 83.414062 140.566406 83.71875 140.699219 L 59.914062 182.304688 C 59.714844 182.632812 59.695312 183.023438 59.824219 183.394531 C 59.957031 183.761719 60.238281 184.023438 60.585938 184.175781 C 73.011719 188.769531 86.984375 186.484375 100.476562 184.261719 C 101.542969 184.089844 102.609375 183.914062 103.652344 183.742188 C 108.65625 182.9375 113.597656 181.914062 118.386719 180.933594 C 127.4375 179.0625 135.988281 177.277344 145.238281 176.820312 C 157.75 176.167969 172.527344 177.910156 179.992188 195.296875 C 176.355469 191.554688 171.851562 188.464844 166.671875 186.222656 C 159.753906 183.195312 151.746094 181.761719 144.128906 182.152344 C 134.726562 182.632812 123.105469 185.066406 111.878906 187.417969 C 105.785156 188.679688 100.039062 189.898438 95.058594 190.683594 C 78.171875 193.382812 65.265625 193.011719 54.667969 189.464844 L 80.085938 145.050781 L 80.105469 145.050781 L 80.105469 144.984375 Z M 177.117188 201.039062 C 174.832031 198.496094 172.289062 196.273438 169.5 194.449219 C 155.378906 185.199219 139.644531 188.550781 121.410156 192.445312 C 111.117188 194.644531 99.472656 197.125 86.570312 197.667969 C 73.164062 198.234375 59.390625 196.625 45.527344 192.859375 L 74.058594 144.398438 L 77.277344 144.722656 L 51.664062 189.484375 C 51.46875 189.8125 51.449219 190.203125 51.578125 190.574219 C 51.707031 190.921875 51.992188 191.203125 52.339844 191.355469 C 63.65625 195.535156 77.363281 196.121094 95.492188 193.207031 C 100.539062 192.402344 106.328125 191.183594 112.445312 189.921875 C 123.585938 187.59375 135.117188 185.175781 144.300781 184.71875 C 155.902344 184.132812 172.289062 188.09375 181.46875 201.039062 Z M 199.792969 192.816406 C 195.984375 195.011719 192.503906 197.777344 189.433594 201.039062 L 185.824219 201.039062 C 194.503906 188.898438 210.828125 184.066406 223.601562 184.71875 C 232.78125 185.199219 244.316406 187.59375 255.457031 189.921875 C 261.574219 191.203125 267.339844 192.402344 272.410156 193.207031 C 290.539062 196.121094 304.246094 195.511719 315.5625 191.355469 C 315.910156 191.226562 316.195312 190.945312 316.324219 190.574219 C 316.453125 190.226562 316.410156 189.8125 316.238281 189.484375 L 290.644531 144.746094 L 294.496094 144.398438 L 322.941406 192.707031 C 313.257812 194.925781 303.570312 196.167969 294.085938 196.382812 C 276.195312 196.820312 261.421875 193.773438 248.386719 191.097656 C 230.324219 187.398438 214.765625 184.175781 199.792969 192.816406 Z M 199.792969 192.816406 " fill-opacity="1" fill-rule="nonzero"/><path fill="#ffffff" d="M 294.191406 202.867188 C 305.53125 202.585938 317.152344 200.953125 328.707031 197.972656 C 329.6875 197.710938 330.492188 197.015625 330.882812 196.078125 C 331.273438 195.144531 331.1875 194.078125 330.6875 193.207031 L 299.003906 139.371094 C 298.371094 138.28125 297.152344 137.671875 295.914062 137.78125 L 287.121094 138.585938 L 287.121094 138.695312 L 286.730469 138 C 286.382812 137.410156 285.664062 137.171875 285.03125 137.476562 C 284.3125 137.824219 283.574219 138.152344 282.8125 138.433594 L 278.4375 130.796875 C 278.089844 130.207031 277.371094 129.96875 276.742188 130.273438 C 268.535156 134.234375 258.484375 134.777344 245.121094 131.972656 C 241.640625 131.230469 238.113281 130.339844 234.699219 129.46875 C 227.515625 127.640625 220.097656 125.769531 212.566406 125.246094 C 207.648438 124.921875 202.253906 126.269531 196.527344 129.25 C 191.242188 132.015625 186.84375 135.5625 183.886719 138.324219 C 180.925781 135.5625 176.53125 132.015625 171.242188 129.25 C 165.542969 126.269531 160.144531 124.921875 155.203125 125.246094 C 147.652344 125.746094 140.253906 127.640625 133.074219 129.46875 C 129.65625 130.339844 126.132812 131.230469 122.648438 131.972656 C 109.289062 134.777344 99.234375 134.234375 91.03125 130.273438 C 90.421875 129.96875 89.683594 130.207031 89.332031 130.796875 L 85.023438 138.414062 C 84.261719 138.109375 83.523438 137.804688 82.804688 137.453125 C 82.195312 137.148438 81.457031 137.390625 81.109375 137.976562 L 80.738281 138.628906 L 80.738281 138.566406 L 72.597656 137.757812 C 71.335938 137.628906 70.117188 138.261719 69.488281 139.347656 L 37.804688 193.183594 C 37.300781 194.035156 37.214844 195.078125 37.585938 196.015625 C 37.957031 196.949219 38.71875 197.644531 39.675781 197.929688 C 55.539062 202.714844 71.402344 204.804688 86.832031 204.152344 C 100.28125 203.585938 112.226562 201.039062 122.757812 198.777344 C 140.277344 195.035156 154.09375 192.097656 165.953125 199.867188 C 168.609375 201.605469 171.046875 203.78125 173.136719 206.328125 C 173.746094 207.070312 174.660156 207.503906 175.636719 207.503906 L 190.871094 207.503906 C 191.808594 207.503906 192.675781 207.113281 193.308594 206.414062 C 196.160156 203.195312 199.421875 200.496094 203.058594 198.429688 C 215.917969 191.03125 229.671875 193.859375 247.082031 197.449219 C 260.398438 200.191406 275.566406 203.304688 294.191406 202.867188 Z M 285.074219 140.304688 L 287.707031 144.917969 L 287.707031 145.027344 L 287.75 145.027344 L 313.167969 189.441406 C 302.550781 192.988281 289.667969 193.382812 272.78125 190.660156 C 267.796875 189.855469 262.03125 188.660156 255.957031 187.398438 C 244.707031 185.046875 233.085938 182.609375 223.707031 182.128906 C 216.050781 181.738281 207.933594 183.175781 200.859375 186.199219 C 195.789062 188.355469 191.371094 191.269531 187.78125 194.773438 C 195.679688 179.0625 210.675781 176.191406 222.621094 176.800781 C 231.847656 177.277344 240.398438 179.039062 249.472656 180.910156 C 254.261719 181.890625 259.203125 182.914062 264.207031 183.71875 C 265.25 183.894531 266.316406 184.066406 267.382812 184.242188 C 280.875 186.4375 294.847656 188.722656 307.273438 184.15625 C 307.621094 184.023438 307.902344 183.742188 308.035156 183.371094 C 308.164062 183.023438 308.121094 182.609375 307.945312 182.28125 L 284.140625 140.699219 C 284.464844 140.566406 284.769531 140.4375 285.074219 140.304688 Z M 212.4375 127.835938 C 219.75 128.335938 227.039062 130.1875 234.109375 131.972656 C 237.550781 132.839844 241.117188 133.753906 244.644531 134.496094 C 258.003906 137.300781 268.277344 136.867188 276.828125 133.101562 L 304.941406 182.21875 C 293.496094 185.875 280.460938 183.742188 267.820312 181.671875 C 266.753906 181.5 265.6875 181.324219 264.640625 181.152344 C 259.679688 180.367188 254.785156 179.34375 250.019531 178.367188 C 241.269531 176.558594 232.21875 174.6875 222.773438 174.1875 C 213.851562 173.730469 206.058594 175.253906 199.640625 178.714844 C 193.222656 182.175781 188.304688 187.527344 184.972656 194.664062 L 185.257812 140.652344 C 189.109375 136.996094 200.792969 127.054688 212.4375 127.835938 Z M 91.054688 133.101562 C 99.582031 136.867188 109.855469 137.300781 123.238281 134.496094 C 126.785156 133.753906 130.332031 132.839844 133.769531 131.972656 C 140.820312 130.1875 148.132812 128.316406 155.445312 127.835938 C 167.085938 127.054688 178.75 136.976562 182.644531 140.652344 L 182.363281 194.207031 C 179.121094 186.65625 174.289062 181.195312 167.957031 177.953125 C 161.796875 174.796875 154.921875 174.101562 149.308594 174.101562 C 147.804688 174.101562 146.390625 174.144531 145.109375 174.210938 C 135.664062 174.6875 126.609375 176.558594 117.863281 178.386719 C 113.117188 179.367188 108.199219 180.390625 103.261719 181.171875 C 102.195312 181.347656 101.148438 181.519531 100.082031 181.695312 C 87.460938 183.761719 74.40625 185.894531 62.960938 182.238281 Z M 82.785156 140.304688 C 83.089844 140.4375 83.414062 140.566406 83.71875 140.699219 L 59.914062 182.304688 C 59.714844 182.632812 59.695312 183.023438 59.824219 183.394531 C 59.957031 183.761719 60.238281 184.023438 60.585938 184.175781 C 73.011719 188.769531 86.984375 186.484375 100.476562 184.261719 C 101.542969 184.089844 102.609375 183.914062 103.652344 183.742188 C 108.65625 182.9375 113.597656 181.914062 118.386719 180.933594 C 127.4375 179.0625 135.988281 177.277344 145.238281 176.820312 C 157.75 176.167969 172.527344 177.910156 179.992188 195.296875 C 176.355469 191.554688 171.851562 188.464844 166.671875 186.222656 C 159.753906 183.195312 151.746094 181.761719 144.128906 182.152344 C 134.726562 182.632812 123.105469 185.066406 111.878906 187.417969 C 105.785156 188.679688 100.039062 189.898438 95.058594 190.683594 C 78.171875 193.382812 65.265625 193.011719 54.667969 189.464844 L 80.085938 145.050781 L 80.105469 145.050781 L 80.105469 144.984375 Z M 177.117188 201.039062 C 174.832031 198.496094 172.289062 196.273438 169.5 194.449219 C 155.378906 185.199219 139.644531 188.550781 121.410156 192.445312 C 111.117188 194.644531 99.472656 197.125 86.570312 197.667969 C 73.164062 198.234375 59.390625 196.625 45.527344 192.859375 L 74.058594 144.398438 L 77.277344 144.722656 L 51.664062 189.484375 C 51.46875 189.8125 51.449219 190.203125 51.578125 190.574219 C 51.707031 190.921875 51.992188 191.203125 52.339844 191.355469 C 63.65625 195.535156 77.363281 196.121094 95.492188 193.207031 C 100.539062 192.402344 106.328125 191.183594 112.445312 189.921875 C 123.585938 187.59375 135.117188 185.175781 144.300781 184.71875 C 155.902344 184.132812 172.289062 188.09375 181.46875 201.039062 Z M 199.792969 192.816406 C 195.984375 195.011719 192.503906 197.777344 189.433594 201.039062 L 185.824219 201.039062 C 194.503906 188.898438 210.828125 184.066406 223.601562 184.71875 C 232.78125 185.199219 244.316406 187.59375 255.457031 189.921875 C 261.574219 191.203125 267.339844 192.402344 272.410156 193.207031 C 290.539062 196.121094 304.246094 195.511719 315.5625 191.355469 C 315.910156 191.226562 316.195312 190.945312 316.324219 190.574219 C 316.453125 190.226562 316.410156 189.8125 316.238281 189.484375 L 290.644531 144.746094 L 294.496094 144.398438 L 322.941406 192.707031 C 313.257812 194.925781 303.570312 196.167969 294.085938 196.382812 C 276.195312 196.820312 261.421875 193.773438 248.386719 191.097656 C 230.324219 187.398438 214.765625 184.175781 199.792969 192.816406 Z M 199.792969 192.816406 " fill-opacity="1" fill-rule="nonzero"/></g><g fill="#ffffff" fill-opacity="1"><g transform="translate(121.761486, 236.430452)"><g><path d="M 1.328125 0 L 1.328125 -10.078125 L 3.296875 -10.078125 L 6.78125 -3.34375 L 10.234375 -10.078125 L 12.203125 -10.078125 L 12.203125 0 L 10.640625 0 L 10.625 -7.5625 L 7.3125 -1.046875 L 6.234375 -1.046875 L 2.890625 -7.5625 L 2.890625 0 Z M 1.328125 0 "/></g></g></g><g fill="#ffffff" fill-opacity="1"><g transform="translate(146.80708, 236.430452)"><g><path d="M 4.234375 1.046875 C 3.992188 1.648438 3.660156 2.101562 3.234375 2.40625 C 2.816406 2.707031 2.316406 2.859375 1.734375 2.859375 C 1.390625 2.859375 1.078125 2.804688 0.796875 2.703125 C 0.515625 2.597656 0.238281 2.4375 -0.03125 2.21875 L 0.671875 0.9375 C 0.859375 1.070312 1.023438 1.164062 1.171875 1.21875 C 1.328125 1.28125 1.492188 1.3125 1.671875 1.3125 C 2.191406 1.3125 2.578125 1.023438 2.828125 0.453125 L 3.09375 -0.109375 L -0.078125 -7.65625 L 1.640625 -7.65625 L 3.921875 -1.859375 L 6.0625 -7.65625 L 7.71875 -7.65625 Z M 4.234375 1.046875 "/></g></g></g><g fill="#ffffff" fill-opacity="1"><g transform="translate(165.96692, 236.430452)"><g/></g></g><g fill="#ffffff" fill-opacity="1"><g transform="translate(181.370821, 236.430452)"><g><path d="M 8.625 -7.375 C 8.257812 -7.769531 7.828125 -8.082031 7.328125 -8.3125 C 6.828125 -8.539062 6.320312 -8.65625 5.8125 -8.65625 C 5.15625 -8.65625 4.550781 -8.5 4 -8.1875 C 3.445312 -7.875 3.007812 -7.441406 2.6875 -6.890625 C 2.375 -6.335938 2.21875 -5.726562 2.21875 -5.0625 C 2.21875 -4.414062 2.378906 -3.816406 2.703125 -3.265625 C 3.023438 -2.710938 3.457031 -2.273438 4 -1.953125 C 4.550781 -1.628906 5.15625 -1.46875 5.8125 -1.46875 C 6.3125 -1.46875 6.804688 -1.570312 7.296875 -1.78125 C 7.796875 -2 8.238281 -2.296875 8.625 -2.671875 L 9.625 -1.546875 C 9.101562 -1.035156 8.5 -0.628906 7.8125 -0.328125 C 7.125 -0.0234375 6.429688 0.125 5.734375 0.125 C 4.765625 0.125 3.878906 -0.101562 3.078125 -0.5625 C 2.273438 -1.019531 1.640625 -1.640625 1.171875 -2.421875 C 0.710938 -3.210938 0.484375 -4.085938 0.484375 -5.046875 C 0.484375 -5.992188 0.71875 -6.859375 1.1875 -7.640625 C 1.65625 -8.429688 2.289062 -9.050781 3.09375 -9.5 C 3.90625 -9.957031 4.800781 -10.1875 5.78125 -10.1875 C 6.488281 -10.1875 7.179688 -10.046875 7.859375 -9.765625 C 8.535156 -9.484375 9.117188 -9.097656 9.609375 -8.609375 Z M 8.625 -7.375 "/></g></g></g><g fill="#ffffff" fill-opacity="1"><g transform="translate(202.919501, 236.430452)"><g><path d="M 4.5 -7.71875 C 5.28125 -7.71875 5.972656 -7.550781 6.578125 -7.21875 C 7.179688 -6.894531 7.648438 -6.441406 7.984375 -5.859375 C 8.316406 -5.273438 8.484375 -4.601562 8.484375 -3.84375 C 8.484375 -3.070312 8.316406 -2.390625 7.984375 -1.796875 C 7.648438 -1.210938 7.179688 -0.753906 6.578125 -0.421875 C 5.972656 -0.0976562 5.28125 0.0625 4.5 0.0625 C 3.71875 0.0625 3.023438 -0.0976562 2.421875 -0.421875 C 1.816406 -0.753906 1.34375 -1.210938 1 -1.796875 C 0.664062 -2.390625 0.5 -3.070312 0.5 -3.84375 C 0.5 -4.601562 0.664062 -5.273438 1 -5.859375 C 1.34375 -6.441406 1.816406 -6.894531 2.421875 -7.21875 C 3.023438 -7.550781 3.71875 -7.71875 4.5 -7.71875 Z M 4.5 -6.296875 C 3.8125 -6.296875 3.25 -6.0625 2.8125 -5.59375 C 2.375 -5.132812 2.15625 -4.539062 2.15625 -3.8125 C 2.15625 -3.070312 2.375 -2.472656 2.8125 -2.015625 C 3.25 -1.554688 3.8125 -1.328125 4.5 -1.328125 C 5.195312 -1.328125 5.757812 -1.554688 6.1875 -2.015625 C 6.613281 -2.472656 6.828125 -3.070312 6.828125 -3.8125 C 6.828125 -4.539062 6.609375 -5.132812 6.171875 -5.59375 C 5.742188 -6.0625 5.1875 -6.296875 4.5 -6.296875 Z M 4.5 -6.296875 "/></g></g></g><g fill="#ffffff" fill-opacity="1"><g transform="translate(223.432061, 236.430452)"><g><path d="M 6.859375 -10.671875 L 8.515625 -10.671875 L 8.515625 0 L 6.859375 0 L 6.859375 -1.3125 C 6.585938 -0.863281 6.222656 -0.519531 5.765625 -0.28125 C 5.304688 -0.0390625 4.773438 0.078125 4.171875 0.078125 C 3.441406 0.078125 2.800781 -0.0859375 2.25 -0.421875 C 1.695312 -0.753906 1.265625 -1.21875 0.953125 -1.8125 C 0.648438 -2.40625 0.5 -3.085938 0.5 -3.859375 C 0.5 -4.617188 0.648438 -5.289062 0.953125 -5.875 C 1.265625 -6.457031 1.695312 -6.910156 2.25 -7.234375 C 2.800781 -7.566406 3.429688 -7.734375 4.140625 -7.734375 C 4.753906 -7.734375 5.289062 -7.613281 5.75 -7.375 C 6.207031 -7.132812 6.578125 -6.785156 6.859375 -6.328125 Z M 4.515625 -1.3125 C 5.210938 -1.3125 5.773438 -1.539062 6.203125 -2 C 6.640625 -2.46875 6.859375 -3.066406 6.859375 -3.796875 C 6.859375 -4.535156 6.640625 -5.140625 6.203125 -5.609375 C 5.773438 -6.078125 5.210938 -6.3125 4.515625 -6.3125 C 3.828125 -6.3125 3.265625 -6.078125 2.828125 -5.609375 C 2.390625 -5.140625 2.164062 -4.535156 2.15625 -3.796875 C 2.164062 -3.066406 2.390625 -2.46875 2.828125 -2 C 3.265625 -1.539062 3.828125 -1.3125 4.515625 -1.3125 Z M 4.515625 -1.3125 "/></g></g></g><g fill="#ffffff" fill-opacity="1"><g transform="translate(244.764888, 236.430452)"><g><path d="M 4.375 -7.71875 C 5.582031 -7.71875 6.484375 -7.375 7.078125 -6.6875 C 7.679688 -6.007812 7.984375 -5.050781 7.984375 -3.8125 C 7.984375 -3.6875 7.972656 -3.476562 7.953125 -3.1875 L 2.171875 -3.1875 C 2.304688 -2.59375 2.582031 -2.125 3 -1.78125 C 3.425781 -1.445312 3.941406 -1.28125 4.546875 -1.28125 C 4.960938 -1.28125 5.351562 -1.351562 5.71875 -1.5 C 6.09375 -1.65625 6.421875 -1.878906 6.703125 -2.171875 L 7.578125 -1.234375 C 7.203125 -0.828125 6.742188 -0.507812 6.203125 -0.28125 C 5.660156 -0.0507812 5.066406 0.0625 4.421875 0.0625 C 3.640625 0.0625 2.953125 -0.0976562 2.359375 -0.421875 C 1.773438 -0.753906 1.316406 -1.210938 0.984375 -1.796875 C 0.660156 -2.378906 0.5 -3.050781 0.5 -3.8125 C 0.5 -4.570312 0.660156 -5.242188 0.984375 -5.828125 C 1.316406 -6.421875 1.773438 -6.882812 2.359375 -7.21875 C 2.953125 -7.550781 3.625 -7.71875 4.375 -7.71875 Z M 6.515625 -4.40625 C 6.484375 -5.019531 6.273438 -5.503906 5.890625 -5.859375 C 5.515625 -6.210938 5.015625 -6.390625 4.390625 -6.390625 C 3.785156 -6.390625 3.28125 -6.210938 2.875 -5.859375 C 2.476562 -5.503906 2.234375 -5.019531 2.140625 -4.40625 Z M 6.515625 -4.40625 "/></g></g></g><g fill="#ffffff" fill-opacity="1"><g transform="translate(153.906015, 255.930451)"><g><path d="M 5.703125 -10.078125 C 6.742188 -10.078125 7.566406 -9.851562 8.171875 -9.40625 C 8.773438 -8.957031 9.078125 -8.34375 9.078125 -7.5625 C 9.078125 -7 8.914062 -6.515625 8.59375 -6.109375 C 8.28125 -5.710938 7.851562 -5.445312 7.3125 -5.3125 C 7.976562 -5.195312 8.503906 -4.910156 8.890625 -4.453125 C 9.273438 -4.003906 9.46875 -3.441406 9.46875 -2.765625 C 9.46875 -1.898438 9.140625 -1.222656 8.484375 -0.734375 C 7.835938 -0.242188 6.941406 0 5.796875 0 L 1.328125 0 L 1.328125 -10.078125 Z M 5.609375 -5.90625 C 6.160156 -5.90625 6.585938 -6.019531 6.890625 -6.25 C 7.191406 -6.488281 7.34375 -6.820312 7.34375 -7.25 C 7.34375 -7.664062 7.1875 -7.988281 6.875 -8.21875 C 6.570312 -8.445312 6.148438 -8.554688 5.609375 -8.546875 L 3.015625 -8.546875 L 3.015625 -5.90625 Z M 5.609375 -1.53125 C 6.273438 -1.519531 6.796875 -1.640625 7.171875 -1.890625 C 7.546875 -2.148438 7.734375 -2.515625 7.734375 -2.984375 C 7.734375 -3.429688 7.546875 -3.78125 7.171875 -4.03125 C 6.796875 -4.289062 6.273438 -4.414062 5.609375 -4.40625 L 3.015625 -4.40625 L 3.015625 -1.53125 Z M 5.609375 -1.53125 "/></g></g></g><g fill="#ffffff" fill-opacity="1"><g transform="translate(175.58421, 255.930451)"><g><path d="M 1.296875 0 L 1.296875 -10.671875 L 2.953125 -10.671875 L 2.953125 0 Z M 1.296875 0 "/></g></g></g><g fill="#ffffff" fill-opacity="1"><g transform="translate(191.347868, 255.930451)"><g><path d="M 4.5 -7.71875 C 5.28125 -7.71875 5.972656 -7.550781 6.578125 -7.21875 C 7.179688 -6.894531 7.648438 -6.441406 7.984375 -5.859375 C 8.316406 -5.273438 8.484375 -4.601562 8.484375 -3.84375 C 8.484375 -3.070312 8.316406 -2.390625 7.984375 -1.796875 C 7.648438 -1.210938 7.179688 -0.753906 6.578125 -0.421875 C 5.972656 -0.0976562 5.28125 0.0625 4.5 0.0625 C 3.71875 0.0625 3.023438 -0.0976562 2.421875 -0.421875 C 1.816406 -0.753906 1.34375 -1.210938 1 -1.796875 C 0.664062 -2.390625 0.5 -3.070312 0.5 -3.84375 C 0.5 -4.601562 0.664062 -5.273438 1 -5.859375 C 1.34375 -6.441406 1.816406 -6.894531 2.421875 -7.21875 C 3.023438 -7.550781 3.71875 -7.71875 4.5 -7.71875 Z M 4.5 -6.296875 C 3.8125 -6.296875 3.25 -6.0625 2.8125 -5.59375 C 2.375 -5.132812 2.15625 -4.539062 2.15625 -3.8125 C 2.15625 -3.070312 2.375 -2.472656 2.8125 -2.015625 C 3.25 -1.554688 3.8125 -1.328125 4.5 -1.328125 C 5.195312 -1.328125 5.757812 -1.554688 6.1875 -2.015625 C 6.613281 -2.472656 6.828125 -3.070312 6.828125 -3.8125 C 6.828125 -4.539062 6.609375 -5.132812 6.171875 -5.59375 C 5.742188 -6.0625 5.1875 -6.296875 4.5 -6.296875 Z M 4.5 -6.296875 "/></g></g></g><g fill="#ffffff" fill-opacity="1"><g transform="translate(211.860426, 255.930451)"><g><path d="M 6.484375 -7.65625 L 8.125 -7.65625 L 8.125 -0.75 C 8.125 -0.0195312 7.960938 0.609375 7.640625 1.140625 C 7.316406 1.679688 6.851562 2.097656 6.25 2.390625 C 5.65625 2.679688 4.957031 2.828125 4.15625 2.828125 C 3.019531 2.828125 1.960938 2.492188 0.984375 1.828125 L 1.6875 0.640625 C 2.0625 0.910156 2.441406 1.113281 2.828125 1.25 C 3.210938 1.394531 3.632812 1.46875 4.09375 1.46875 C 4.820312 1.46875 5.398438 1.269531 5.828125 0.875 C 6.265625 0.476562 6.484375 -0.046875 6.484375 -0.703125 L 6.484375 -1.671875 C 6.234375 -1.242188 5.894531 -0.921875 5.46875 -0.703125 C 5.039062 -0.484375 4.535156 -0.375 3.953125 -0.375 C 3.273438 -0.375 2.671875 -0.53125 2.140625 -0.84375 C 1.617188 -1.15625 1.210938 -1.585938 0.921875 -2.140625 C 0.640625 -2.703125 0.5 -3.347656 0.5 -4.078125 C 0.5 -4.796875 0.640625 -5.429688 0.921875 -5.984375 C 1.210938 -6.535156 1.617188 -6.960938 2.140625 -7.265625 C 2.671875 -7.566406 3.273438 -7.71875 3.953125 -7.71875 C 4.523438 -7.71875 5.023438 -7.601562 5.453125 -7.375 C 5.890625 -7.144531 6.234375 -6.828125 6.484375 -6.421875 Z M 4.28125 -1.671875 C 4.925781 -1.671875 5.453125 -1.890625 5.859375 -2.328125 C 6.273438 -2.773438 6.484375 -3.34375 6.484375 -4.03125 C 6.484375 -4.71875 6.28125 -5.28125 5.875 -5.71875 C 5.46875 -6.15625 4.9375 -6.375 4.28125 -6.375 C 3.632812 -6.375 3.101562 -6.15625 2.6875 -5.71875 C 2.28125 -5.28125 2.070312 -4.71875 2.0625 -4.03125 C 2.070312 -3.34375 2.28125 -2.773438 2.6875 -2.328125 C 3.09375 -1.890625 3.625 -1.671875 4.28125 -1.671875 Z M 4.28125 -1.671875 "/></g></g></g></svg>