<svg xmlns="http://www.w3.org/2000/svg" xmlns:xlink="http://www.w3.org/1999/xlink" width="500" zoomAndPan="magnify" viewBox="0 0 375 374.999991" height="500" preserveAspectRatio="xMidYMid meet" version="1.0"><defs><g/><clipPath id="f53b95b4fc"><path d="M 104 89 L 271 89 L 271 272.675781 L 104 272.675781 Z M 104 89 " clip-rule="nonzero"/></clipPath></defs><g clip-path="url(#f53b95b4fc)"><path fill="#ff914d" d="M 195.714844 118.054688 L 195.714844 147.699219 L 179.320312 147.699219 L 179.320312 118.015625 C 181.945312 117.570312 184.652344 117.332031 187.421875 117.332031 C 190.253906 117.335938 193.027344 117.582031 195.714844 118.054688 M 213.480469 128.402344 C 213.0625 128.199219 212.648438 127.996094 212.230469 127.800781 C 211.238281 127.34375 210.234375 126.914062 209.214844 126.511719 L 209.214844 122.652344 C 210.679688 123.417969 212.105469 124.261719 213.480469 125.171875 Z M 149.65625 136.15625 C 147.050781 138.335938 144.640625 140.726562 142.46875 143.292969 C 138.128906 148.417969 134.632812 154.320312 132.230469 160.765625 L 132.097656 161.101562 C 131.351562 163.140625 130.714844 165.230469 130.1875 167.359375 L 123.132812 167.359375 L 118.585938 159.492188 L 131.4375 137.230469 C 133.289062 134.015625 132.175781 129.90625 128.960938 128.054688 C 125.746094 126.210938 121.636719 127.316406 119.785156 130.535156 L 105.222656 155.765625 C 103.84375 157.832031 103.667969 160.585938 104.996094 162.878906 L 113.175781 177.050781 C 114.269531 179.308594 116.582031 180.863281 119.257812 180.863281 L 142.003906 180.863281 C 142.058594 176.140625 142.824219 171.601562 144.191406 167.359375 C 144.367188 166.816406 144.550781 166.277344 144.75 165.742188 L 144.855469 165.425781 C 146.695312 160.5 149.386719 155.960938 152.746094 151.996094 C 155.449219 148.804688 158.550781 146 161.949219 143.695312 C 163.191406 142.851562 164.480469 142.066406 165.8125 141.34375 L 165.8125 154.453125 C 165.8125 158.179688 168.835938 161.199219 172.558594 161.199219 L 202.453125 161.199219 C 206.183594 161.199219 209.207031 158.179688 209.207031 154.453125 L 209.207031 141.359375 C 214.15625 144.050781 218.558594 147.628906 222.1875 151.886719 C 225.625 155.914062 228.375 160.570312 230.246094 165.664062 C 230.453125 166.222656 230.648438 166.789062 230.832031 167.359375 C 232.203125 171.601562 232.96875 176.140625 233.019531 180.863281 L 255.765625 180.863281 C 258.4375 180.863281 260.75 179.308594 261.84375 177.050781 L 270.027344 162.878906 C 271.355469 160.585938 271.179688 157.832031 269.800781 155.765625 L 255.230469 130.535156 C 253.386719 127.320312 249.273438 126.210938 246.058594 128.054688 C 242.839844 129.90625 241.730469 134.015625 243.578125 137.230469 L 256.429688 159.492188 L 251.882812 167.359375 L 244.828125 167.359375 C 244.300781 165.199219 243.652344 163.082031 242.894531 161.019531 C 240.46875 154.4375 236.890625 148.390625 232.410156 143.128906 C 230.265625 140.617188 227.914062 138.285156 225.382812 136.160156 L 225.382812 119.160156 L 223.007812 117.367188 C 218.8125 114.199219 214.171875 111.574219 209.199219 109.597656 L 209.199219 107.585938 L 214.355469 102.429688 L 220.238281 102.429688 C 223.964844 102.429688 226.988281 99.410156 226.988281 95.683594 C 227.003906 91.949219 223.984375 88.925781 220.257812 88.925781 L 211.578125 88.925781 C 209.851562 88.925781 208.125 89.585938 206.808594 90.902344 L 197.808594 99.898438 C 196.519531 101.128906 195.71875 102.863281 195.71875 104.789062 L 195.71875 106.003906 C 192.996094 105.617188 190.226562 105.417969 187.425781 105.417969 C 184.691406 105.417969 181.984375 105.605469 179.324219 105.980469 L 179.324219 104.785156 C 179.324219 102.863281 178.523438 101.125 177.230469 99.894531 L 168.230469 90.902344 C 166.910156 89.585938 165.183594 88.925781 163.453125 88.925781 L 154.777344 88.925781 C 151.050781 88.925781 148.023438 91.949219 148.023438 95.675781 C 148.023438 99.402344 151.050781 102.425781 154.777344 102.425781 L 160.660156 102.425781 L 165.816406 107.578125 L 165.816406 109.53125 C 160.871094 111.472656 156.246094 114.066406 152.050781 117.199219 L 149.652344 118.996094 L 149.652344 136.15625 Z M 215.042969 233.609375 L 218.78125 241.675781 L 211.960938 263.308594 C 210.855469 266.859375 212.839844 270.636719 216.390625 271.742188 C 219.941406 272.847656 223.71875 270.863281 224.824219 267.3125 L 232.425781 243.214844 C 232.902344 241.679688 232.835938 239.964844 232.113281 238.390625 L 226.308594 225.871094 C 227.316406 224.992188 228.300781 224.074219 229.246094 223.125 C 235.363281 217.007812 240.148438 209.550781 243.113281 201.230469 L 251.910156 201.230469 L 256.445312 209.085938 L 243.585938 231.355469 C 241.738281 234.574219 242.847656 238.683594 246.066406 240.53125 C 249.28125 242.378906 253.390625 241.269531 255.238281 238.054688 L 270 212.484375 L 270.03125 212.433594 C 271.179688 210.425781 271.261719 207.882812 270.03125 205.738281 L 261.917969 191.683594 C 260.855469 189.351562 258.503906 187.730469 255.773438 187.730469 L 232.597656 187.730469 C 231.929688 192.507812 230.523438 197.046875 228.496094 201.230469 C 226.261719 205.832031 223.277344 210.003906 219.703125 213.582031 C 212.96875 220.3125 204.136719 224.941406 194.265625 226.410156 C 192.0625 226.734375 189.808594 226.90625 187.515625 226.90625 C 185.222656 226.90625 182.96875 226.734375 180.765625 226.410156 C 170.898438 224.941406 162.0625 220.3125 155.328125 213.582031 C 151.75 210.003906 148.765625 205.832031 146.535156 201.230469 C 144.507812 197.046875 143.101562 192.507812 142.433594 187.730469 L 119.257812 187.730469 C 116.527344 187.730469 114.171875 189.351562 113.109375 191.683594 L 105 205.738281 C 103.765625 207.886719 103.851562 210.429688 105.007812 212.453125 L 105.03125 212.488281 L 119.792969 238.058594 C 121.640625 241.273438 125.75 242.382812 128.96875 240.535156 C 132.183594 238.6875 133.292969 234.578125 131.445312 231.359375 L 118.585938 209.089844 L 123.121094 201.234375 L 131.917969 201.234375 C 134.882812 209.550781 139.664062 217.011719 145.785156 223.128906 C 146.523438 223.871094 147.285156 224.589844 148.058594 225.292969 L 141.984375 238.394531 C 141.257812 239.96875 141.195312 241.683594 141.667969 243.21875 L 149.265625 267.316406 C 150.371094 270.867188 154.152344 272.851562 157.703125 271.746094 C 161.253906 270.640625 163.238281 266.863281 162.132812 263.3125 L 155.308594 241.679688 L 159.234375 233.214844 C 167.628906 237.804688 177.265625 240.417969 187.507812 240.417969 C 197.460938 240.410156 206.824219 237.953125 215.042969 233.609375 Z M 180.765625 186.796875 L 180.765625 200.300781 L 194.265625 200.300781 L 194.265625 186.796875 Z M 194.265625 180.863281 L 194.265625 167.359375 L 180.765625 167.359375 L 180.765625 180.863281 Z M 168.746094 125.449219 L 165.816406 126.519531 C 164.378906 127.09375 162.960938 127.722656 161.574219 128.402344 L 161.574219 125.015625 C 162.941406 124.117188 164.359375 123.289062 165.816406 122.539062 L 165.816406 126.519531 C 166.78125 126.140625 167.757812 125.78125 168.746094 125.449219 Z M 168.746094 125.449219 " fill-opacity="1" fill-rule="evenodd"/></g><g fill="#000000" fill-opacity="1"><g transform="translate(103.623389, 299.80203)"><g><path d="M 2.6875 0 L 2.6875 -20.703125 L 11.53125 -20.703125 C 12.800781 -20.703125 13.878906 -20.5 14.765625 -20.09375 C 15.648438 -19.695312 16.316406 -19.128906 16.765625 -18.390625 C 17.222656 -17.648438 17.453125 -16.773438 17.453125 -15.765625 C 17.453125 -14.847656 17.226562 -14.039062 16.78125 -13.34375 C 16.332031 -12.644531 15.695312 -12.082031 14.875 -11.65625 L 14.875 -11.359375 C 16.175781 -11.015625 17.179688 -10.394531 17.890625 -9.5 C 18.597656 -8.601562 18.953125 -7.503906 18.953125 -6.203125 C 18.953125 -4.222656 18.351562 -2.691406 17.15625 -1.609375 C 15.957031 -0.535156 14.1875 0 11.84375 0 Z M 10.671875 -12.453125 C 12.578125 -12.453125 13.53125 -13.3125 13.53125 -15.03125 C 13.53125 -15.90625 13.296875 -16.554688 12.828125 -16.984375 C 12.359375 -17.410156 11.640625 -17.625 10.671875 -17.625 L 6.78125 -17.625 L 6.78125 -12.453125 Z M 11.421875 -3.25 C 13.679688 -3.25 14.8125 -4.269531 14.8125 -6.3125 C 14.8125 -8.375 13.679688 -9.40625 11.421875 -9.40625 L 6.78125 -9.40625 L 6.78125 -3.25 Z M 11.421875 -3.25 "/></g></g></g><g fill="#000000" fill-opacity="1"><g transform="translate(123.869417, 299.80203)"><g><path d="M 7.15625 0.296875 C 5.394531 0.296875 4.097656 -0.179688 3.265625 -1.140625 C 2.429688 -2.097656 2.015625 -3.472656 2.015625 -5.265625 L 2.015625 -15.625 L 5.9375 -15.625 L 5.9375 -5.765625 C 5.9375 -4.804688 6.140625 -4.109375 6.546875 -3.671875 C 6.960938 -3.234375 7.597656 -3.015625 8.453125 -3.015625 C 9.535156 -3.015625 10.378906 -3.367188 10.984375 -4.078125 C 11.585938 -4.796875 11.890625 -5.921875 11.890625 -7.453125 L 11.890625 -15.625 L 15.8125 -15.625 L 15.8125 0 L 12.046875 0 L 12.046875 -2.296875 L 11.75 -2.359375 C 11.25 -1.460938 10.640625 -0.796875 9.921875 -0.359375 C 9.203125 0.078125 8.28125 0.296875 7.15625 0.296875 Z M 7.15625 0.296875 "/></g></g></g><g fill="#000000" fill-opacity="1"><g transform="translate(141.935104, 299.80203)"><g><path d="M 8.09375 6.625 C 5.519531 6.625 3.617188 6.242188 2.390625 5.484375 C 1.160156 4.734375 0.546875 3.6875 0.546875 2.34375 C 0.546875 1.519531 0.804688 0.84375 1.328125 0.3125 C 1.859375 -0.207031 2.613281 -0.554688 3.59375 -0.734375 L 3.59375 -1.03125 C 3.0625 -1.351562 2.679688 -1.707031 2.453125 -2.09375 C 2.222656 -2.488281 2.109375 -2.945312 2.109375 -3.46875 C 2.109375 -4.726562 2.925781 -5.570312 4.5625 -6 L 4.5625 -6.296875 C 3.71875 -6.785156 3.082031 -7.382812 2.65625 -8.09375 C 2.238281 -8.800781 2.03125 -9.660156 2.03125 -10.671875 C 2.03125 -11.710938 2.265625 -12.625 2.734375 -13.40625 C 3.210938 -14.195312 3.910156 -14.8125 4.828125 -15.25 C 5.753906 -15.695312 6.859375 -15.921875 8.140625 -15.921875 C 9.441406 -15.921875 10.476562 -15.691406 11.25 -15.234375 C 11.738281 -15.929688 12.019531 -16.738281 12.09375 -17.65625 L 12.390625 -17.84375 L 15.203125 -17.140625 C 15.117188 -16.398438 14.898438 -15.773438 14.546875 -15.265625 C 14.203125 -14.765625 13.660156 -14.316406 12.921875 -13.921875 L 12.921875 -13.609375 C 13.804688 -12.835938 14.25 -11.753906 14.25 -10.359375 C 14.25 -9.398438 14.003906 -8.535156 13.515625 -7.765625 C 13.035156 -7.003906 12.335938 -6.398438 11.421875 -5.953125 C 10.503906 -5.515625 9.410156 -5.296875 8.140625 -5.296875 L 7.546875 -5.3125 C 7.171875 -5.332031 6.90625 -5.34375 6.75 -5.34375 C 6.394531 -5.34375 6.113281 -5.242188 5.90625 -5.046875 C 5.707031 -4.859375 5.609375 -4.613281 5.609375 -4.3125 C 5.609375 -3.976562 5.738281 -3.71875 6 -3.53125 C 6.269531 -3.34375 6.660156 -3.242188 7.171875 -3.234375 L 10.65625 -3.09375 C 14.113281 -3 15.84375 -1.515625 15.84375 1.359375 C 15.84375 2.367188 15.582031 3.265625 15.0625 4.046875 C 14.550781 4.835938 13.71875 5.460938 12.5625 5.921875 C 11.414062 6.390625 9.925781 6.625 8.09375 6.625 Z M 8.140625 -8.046875 C 8.898438 -8.046875 9.488281 -8.265625 9.90625 -8.703125 C 10.332031 -9.148438 10.546875 -9.785156 10.546875 -10.609375 C 10.546875 -11.429688 10.332031 -12.0625 9.90625 -12.5 C 9.488281 -12.9375 8.898438 -13.15625 8.140625 -13.15625 C 7.378906 -13.15625 6.789062 -12.9375 6.375 -12.5 C 5.957031 -12.0625 5.75 -11.429688 5.75 -10.609375 C 5.75 -9.773438 5.957031 -9.140625 6.375 -8.703125 C 6.789062 -8.265625 7.378906 -8.046875 8.140625 -8.046875 Z M 8.09375 3.78125 C 9.4375 3.78125 10.410156 3.585938 11.015625 3.203125 C 11.628906 2.828125 11.9375 2.335938 11.9375 1.734375 C 11.9375 1.242188 11.78125 0.882812 11.46875 0.65625 C 11.15625 0.425781 10.660156 0.300781 9.984375 0.28125 L 6.890625 0.140625 C 6.785156 0.140625 6.6875 0.132812 6.59375 0.125 C 6.507812 0.113281 6.425781 0.109375 6.34375 0.109375 C 5.6875 0.109375 5.179688 0.25 4.828125 0.53125 C 4.484375 0.820312 4.3125 1.21875 4.3125 1.71875 C 4.3125 2.375 4.628906 2.878906 5.265625 3.234375 C 5.898438 3.597656 6.84375 3.78125 8.09375 3.78125 Z M 8.09375 3.78125 "/></g></g></g><g fill="#000000" fill-opacity="1"><g transform="translate(158.174411, 299.80203)"><g/></g></g><g fill="#000000" fill-opacity="1"><g transform="translate(165.012765, 299.80203)"><g><path d="M 16.59375 -20.703125 L 16.59375 -17.265625 L 10.625 -17.265625 L 10.625 0 L 6.546875 0 L 6.546875 -17.265625 L 0.5625 -17.265625 L 0.5625 -20.703125 Z M 16.59375 -20.703125 "/></g></g></g><g fill="#000000" fill-opacity="1"><g transform="translate(182.172336, 299.80203)"><g><path d="M 2.25 0 L 2.25 -15.625 L 6.0625 -15.625 L 6.0625 -13.296875 L 6.359375 -13.234375 C 6.734375 -14.109375 7.226562 -14.75 7.84375 -15.15625 C 8.457031 -15.5625 9.203125 -15.765625 10.078125 -15.765625 C 10.960938 -15.765625 11.640625 -15.613281 12.109375 -15.3125 L 11.4375 -11.921875 L 11.140625 -11.859375 C 10.890625 -11.960938 10.644531 -12.035156 10.40625 -12.078125 C 10.164062 -12.128906 9.878906 -12.15625 9.546875 -12.15625 C 8.453125 -12.15625 7.613281 -11.769531 7.03125 -11 C 6.457031 -10.238281 6.171875 -9.007812 6.171875 -7.3125 L 6.171875 0 Z M 2.25 0 "/></g></g></g><g fill="#000000" fill-opacity="1"><g transform="translate(194.419069, 299.80203)"><g><path d="M 6.09375 0.296875 C 5.09375 0.296875 4.222656 0.113281 3.484375 -0.25 C 2.742188 -0.625 2.175781 -1.164062 1.78125 -1.875 C 1.382812 -2.59375 1.1875 -3.453125 1.1875 -4.453125 C 1.1875 -5.367188 1.382812 -6.140625 1.78125 -6.765625 C 2.175781 -7.398438 2.789062 -7.914062 3.625 -8.3125 C 4.457031 -8.71875 5.539062 -9.03125 6.875 -9.25 C 7.8125 -9.394531 8.523438 -9.554688 9.015625 -9.734375 C 9.503906 -9.921875 9.832031 -10.125 10 -10.34375 C 10.164062 -10.570312 10.25 -10.863281 10.25 -11.21875 C 10.25 -11.71875 10.070312 -12.097656 9.71875 -12.359375 C 9.375 -12.628906 8.796875 -12.765625 7.984375 -12.765625 C 7.117188 -12.765625 6.289062 -12.566406 5.5 -12.171875 C 4.71875 -11.785156 4.039062 -11.28125 3.46875 -10.65625 L 3.1875 -10.65625 L 1.546875 -13.125 C 2.335938 -14 3.300781 -14.679688 4.4375 -15.171875 C 5.582031 -15.671875 6.832031 -15.921875 8.1875 -15.921875 C 10.25 -15.921875 11.742188 -15.476562 12.671875 -14.59375 C 13.597656 -13.71875 14.0625 -12.472656 14.0625 -10.859375 L 14.0625 -4.078125 C 14.0625 -3.378906 14.367188 -3.03125 14.984375 -3.03125 C 15.210938 -3.03125 15.441406 -3.070312 15.671875 -3.15625 L 15.875 -3.09375 L 16.15625 -0.375 C 15.9375 -0.226562 15.632812 -0.109375 15.25 -0.015625 C 14.863281 0.0664062 14.4375 0.109375 13.96875 0.109375 C 13.039062 0.109375 12.3125 -0.0664062 11.78125 -0.421875 C 11.257812 -0.785156 10.882812 -1.347656 10.65625 -2.109375 L 10.359375 -2.140625 C 9.597656 -0.515625 8.175781 0.296875 6.09375 0.296875 Z M 7.328125 -2.640625 C 8.234375 -2.640625 8.957031 -2.941406 9.5 -3.546875 C 10.050781 -4.148438 10.328125 -5 10.328125 -6.09375 L 10.328125 -7.671875 L 10.046875 -7.734375 C 9.816406 -7.546875 9.507812 -7.382812 9.125 -7.25 C 8.738281 -7.125 8.191406 -7 7.484375 -6.875 C 6.628906 -6.738281 6.015625 -6.5 5.640625 -6.15625 C 5.265625 -5.8125 5.078125 -5.320312 5.078125 -4.6875 C 5.078125 -4.019531 5.273438 -3.507812 5.671875 -3.15625 C 6.066406 -2.8125 6.617188 -2.640625 7.328125 -2.640625 Z M 7.328125 -2.640625 "/></g></g></g><g fill="#000000" fill-opacity="1"><g transform="translate(210.884906, 299.80203)"><g><path d="M 9.109375 0.296875 C 7.597656 0.296875 6.257812 -0.015625 5.09375 -0.640625 C 3.9375 -1.273438 3.03125 -2.195312 2.375 -3.40625 C 1.726562 -4.625 1.40625 -6.085938 1.40625 -7.796875 C 1.40625 -9.515625 1.726562 -10.984375 2.375 -12.203125 C 3.03125 -13.421875 3.929688 -14.34375 5.078125 -14.96875 C 6.234375 -15.601562 7.550781 -15.921875 9.03125 -15.921875 C 12.320312 -15.921875 14.429688 -14.722656 15.359375 -12.328125 L 12.671875 -10.40625 L 12.375 -10.40625 C 12.050781 -11.144531 11.628906 -11.691406 11.109375 -12.046875 C 10.597656 -12.410156 9.90625 -12.59375 9.03125 -12.59375 C 7.894531 -12.59375 7.007812 -12.195312 6.375 -11.40625 C 5.75 -10.625 5.4375 -9.421875 5.4375 -7.796875 C 5.4375 -6.191406 5.753906 -4.992188 6.390625 -4.203125 C 7.035156 -3.421875 7.941406 -3.03125 9.109375 -3.03125 C 9.953125 -3.03125 10.671875 -3.257812 11.265625 -3.71875 C 11.859375 -4.175781 12.28125 -4.832031 12.53125 -5.6875 L 12.828125 -5.71875 L 15.625 -4.1875 C 15.226562 -2.863281 14.492188 -1.785156 13.421875 -0.953125 C 12.347656 -0.117188 10.910156 0.296875 9.109375 0.296875 Z M 9.109375 0.296875 "/></g></g></g><g fill="#000000" fill-opacity="1"><g transform="translate(226.982632, 299.80203)"><g><path d="M 2.25 0 L 2.25 -21.890625 L 6.171875 -21.890625 L 6.171875 -9.75 L 6.5625 -9.75 L 11.078125 -15.625 L 15.046875 -15.625 L 15.046875 -15.296875 L 9.75 -8.4375 L 15.640625 -0.359375 L 15.640625 0 L 11.515625 0 L 6.5625 -6.578125 L 6.171875 -6.578125 L 6.171875 0 Z M 2.25 0 "/></g></g></g><g fill="#000000" fill-opacity="1"><g transform="translate(242.655617, 299.80203)"><g><path d="M 15.4375 -6.921875 L 5.390625 -6.921875 C 5.503906 -5.566406 5.890625 -4.578125 6.546875 -3.953125 C 7.210938 -3.335938 8.117188 -3.03125 9.265625 -3.03125 C 10.160156 -3.03125 10.882812 -3.195312 11.4375 -3.53125 C 12 -3.863281 12.445312 -4.375 12.78125 -5.0625 L 13.078125 -5.0625 L 15.6875 -3.390625 C 15.175781 -2.285156 14.40625 -1.394531 13.375 -0.71875 C 12.351562 -0.0390625 10.984375 0.296875 9.265625 0.296875 C 7.648438 0.296875 6.253906 -0.0078125 5.078125 -0.625 C 3.898438 -1.238281 2.992188 -2.148438 2.359375 -3.359375 C 1.722656 -4.578125 1.40625 -6.054688 1.40625 -7.796875 C 1.40625 -9.578125 1.738281 -11.078125 2.40625 -12.296875 C 3.070312 -13.515625 3.976562 -14.421875 5.125 -15.015625 C 6.269531 -15.617188 7.554688 -15.921875 8.984375 -15.921875 C 11.191406 -15.921875 12.878906 -15.332031 14.046875 -14.15625 C 15.222656 -12.988281 15.8125 -11.269531 15.8125 -9 C 15.8125 -8.1875 15.785156 -7.550781 15.734375 -7.09375 Z M 12.0625 -9.453125 C 12.03125 -10.648438 11.753906 -11.519531 11.234375 -12.0625 C 10.722656 -12.601562 9.972656 -12.875 8.984375 -12.875 C 6.992188 -12.875 5.828125 -11.734375 5.484375 -9.453125 Z M 12.0625 -9.453125 "/></g></g></g><g fill="#000000" fill-opacity="1"><g transform="translate(259.631143, 299.80203)"><g><path d="M 2.25 0 L 2.25 -15.625 L 6.0625 -15.625 L 6.0625 -13.296875 L 6.359375 -13.234375 C 6.734375 -14.109375 7.226562 -14.75 7.84375 -15.15625 C 8.457031 -15.5625 9.203125 -15.765625 10.078125 -15.765625 C 10.960938 -15.765625 11.640625 -15.613281 12.109375 -15.3125 L 11.4375 -11.921875 L 11.140625 -11.859375 C 10.890625 -11.960938 10.644531 -12.035156 10.40625 -12.078125 C 10.164062 -12.128906 9.878906 -12.15625 9.546875 -12.15625 C 8.453125 -12.15625 7.613281 -11.769531 7.03125 -11 C 6.457031 -10.238281 6.171875 -9.007812 6.171875 -7.3125 L 6.171875 0 Z M 2.25 0 "/></g></g></g><g fill="#000000" fill-opacity="1"><g transform="translate(138.71484, 328.831824)"><g><path d="M 0.96875 0 L 0.96875 -6.421875 L 3.40625 -6.421875 C 3.800781 -6.421875 4.132812 -6.359375 4.40625 -6.234375 C 4.6875 -6.109375 4.894531 -5.925781 5.03125 -5.6875 C 5.175781 -5.457031 5.25 -5.179688 5.25 -4.859375 C 5.25 -4.585938 5.171875 -4.335938 5.015625 -4.109375 C 4.867188 -3.878906 4.65625 -3.703125 4.375 -3.578125 L 4.375 -3.484375 C 4.800781 -3.378906 5.125 -3.1875 5.34375 -2.90625 C 5.5625 -2.632812 5.671875 -2.285156 5.671875 -1.859375 C 5.671875 -1.265625 5.492188 -0.804688 5.140625 -0.484375 C 4.796875 -0.160156 4.28125 0 3.59375 0 Z M 3.375 -3.734375 C 3.726562 -3.734375 4 -3.820312 4.1875 -4 C 4.382812 -4.1875 4.484375 -4.441406 4.484375 -4.765625 C 4.484375 -5.109375 4.390625 -5.363281 4.203125 -5.53125 C 4.015625 -5.707031 3.738281 -5.796875 3.375 -5.796875 L 1.734375 -5.796875 L 1.734375 -3.734375 Z M 3.53125 -0.625 C 4.445312 -0.625 4.90625 -1.035156 4.90625 -1.859375 C 4.90625 -2.691406 4.445312 -3.109375 3.53125 -3.109375 L 1.734375 -3.109375 L 1.734375 -0.625 Z M 3.53125 -0.625 "/></g></g><g transform="translate(144.897945, 328.831824)"><g><path d="M 2.390625 0.09375 C 1.847656 0.09375 1.441406 -0.0507812 1.171875 -0.34375 C 0.898438 -0.632812 0.765625 -1.0625 0.765625 -1.625 L 0.765625 -4.84375 L 1.484375 -4.84375 L 1.484375 -1.640625 C 1.484375 -0.898438 1.828125 -0.53125 2.515625 -0.53125 C 2.960938 -0.53125 3.3125 -0.671875 3.5625 -0.953125 C 3.820312 -1.242188 3.953125 -1.710938 3.953125 -2.359375 L 3.953125 -4.84375 L 4.65625 -4.84375 L 4.65625 0 L 3.984375 0 L 3.984375 -0.765625 L 3.890625 -0.78125 C 3.722656 -0.488281 3.519531 -0.269531 3.28125 -0.125 C 3.050781 0.0195312 2.753906 0.09375 2.390625 0.09375 Z M 2.390625 0.09375 "/></g></g><g transform="translate(150.404293, 328.831824)"><g><path d="M 1.203125 -5.78125 C 1.046875 -5.78125 0.921875 -5.828125 0.828125 -5.921875 C 0.734375 -6.015625 0.6875 -6.132812 0.6875 -6.28125 C 0.6875 -6.4375 0.734375 -6.5625 0.828125 -6.65625 C 0.921875 -6.75 1.046875 -6.796875 1.203125 -6.796875 C 1.359375 -6.796875 1.484375 -6.75 1.578125 -6.65625 C 1.671875 -6.5625 1.71875 -6.4375 1.71875 -6.28125 C 1.71875 -6.132812 1.671875 -6.015625 1.578125 -5.921875 C 1.484375 -5.828125 1.359375 -5.78125 1.203125 -5.78125 Z M 0.84375 0 L 0.84375 -4.84375 L 1.5625 -4.84375 L 1.5625 0 Z M 0.84375 0 "/></g></g><g transform="translate(152.808101, 328.831824)"><g><path d="M 1.921875 0.09375 C 1.585938 0.09375 1.320312 -0.00390625 1.125 -0.203125 C 0.925781 -0.398438 0.828125 -0.691406 0.828125 -1.078125 L 0.828125 -6.796875 L 1.546875 -6.796875 L 1.546875 -1.125 C 1.546875 -0.914062 1.582031 -0.765625 1.65625 -0.671875 C 1.738281 -0.585938 1.859375 -0.546875 2.015625 -0.546875 C 2.117188 -0.546875 2.222656 -0.5625 2.328125 -0.59375 L 2.390625 -0.578125 L 2.46875 -0.015625 C 2.414062 0.015625 2.335938 0.0390625 2.234375 0.0625 C 2.140625 0.0820312 2.035156 0.09375 1.921875 0.09375 Z M 1.921875 0.09375 "/></g></g><g transform="translate(155.44482, 328.831824)"><g><path d="M 3.28125 -0.765625 L 3.5 -0.25 C 3.382812 -0.132812 3.234375 -0.0507812 3.046875 0 C 2.867188 0.0625 2.671875 0.09375 2.453125 0.09375 C 1.523438 0.09375 1.0625 -0.375 1.0625 -1.3125 L 1.0625 -4.265625 L 0.21875 -4.265625 L 0.21875 -4.859375 L 1.0625 -4.859375 L 1.0625 -5.875 L 1.78125 -6 L 1.78125 -4.859375 L 3.34375 -4.859375 L 3.34375 -4.265625 L 1.78125 -4.265625 L 1.78125 -1.390625 C 1.78125 -0.828125 2.019531 -0.546875 2.5 -0.546875 C 2.769531 -0.546875 3 -0.617188 3.1875 -0.765625 Z M 3.28125 -0.765625 "/></g></g><g transform="translate(159.136226, 328.831824)"><g/></g><g transform="translate(161.34228, 328.831824)"><g><path d="M 3.21875 0.09375 C 2.863281 0.09375 2.550781 0.0234375 2.28125 -0.109375 C 2.019531 -0.253906 1.8125 -0.441406 1.65625 -0.671875 L 1.5625 -0.65625 L 1.5625 0 L 0.84375 0 L 0.84375 -6.796875 L 1.5625 -6.796875 L 1.5625 -4.125 L 1.65625 -4.109375 C 2.019531 -4.660156 2.554688 -4.9375 3.265625 -4.9375 C 3.660156 -4.9375 4.003906 -4.84375 4.296875 -4.65625 C 4.597656 -4.476562 4.832031 -4.195312 5 -3.8125 C 5.164062 -3.4375 5.25 -2.972656 5.25 -2.421875 C 5.25 -1.867188 5.160156 -1.40625 4.984375 -1.03125 C 4.816406 -0.65625 4.578125 -0.375 4.265625 -0.1875 C 3.960938 0 3.613281 0.09375 3.21875 0.09375 Z M 3.046875 -0.546875 C 4.015625 -0.546875 4.5 -1.171875 4.5 -2.421875 C 4.5 -3.066406 4.375 -3.539062 4.125 -3.84375 C 3.875 -4.144531 3.515625 -4.296875 3.046875 -4.296875 C 2.597656 -4.296875 2.238281 -4.140625 1.96875 -3.828125 C 1.695312 -3.523438 1.5625 -3.054688 1.5625 -2.421875 C 1.5625 -1.796875 1.695312 -1.328125 1.96875 -1.015625 C 2.238281 -0.703125 2.597656 -0.546875 3.046875 -0.546875 Z M 3.046875 -0.546875 "/></g></g><g transform="translate(167.125483, 328.831824)"><g><path d="M 0.96875 2.0625 C 0.800781 2.0625 0.644531 2.046875 0.5 2.015625 C 0.363281 1.984375 0.242188 1.945312 0.140625 1.90625 L 0.28125 1.328125 L 0.359375 1.3125 C 0.429688 1.34375 0.519531 1.367188 0.625 1.390625 C 0.726562 1.421875 0.832031 1.4375 0.9375 1.4375 C 1.132812 1.4375 1.296875 1.410156 1.421875 1.359375 C 1.554688 1.304688 1.671875 1.21875 1.765625 1.09375 C 1.859375 0.96875 1.941406 0.800781 2.015625 0.59375 L 2.1875 0.109375 L 0.25 -4.84375 L 1.015625 -4.84375 L 2.546875 -0.890625 L 2.625 -0.890625 L 4.109375 -4.84375 L 4.84375 -4.84375 L 2.671875 0.765625 C 2.546875 1.066406 2.40625 1.3125 2.25 1.5 C 2.101562 1.695312 1.925781 1.835938 1.71875 1.921875 C 1.507812 2.015625 1.257812 2.0625 0.96875 2.0625 Z M 0.96875 2.0625 "/></g></g><g transform="translate(172.236322, 328.831824)"><g><path d="M 1.1875 0.046875 C 1.019531 0.046875 0.882812 0 0.78125 -0.09375 C 0.6875 -0.1875 0.640625 -0.3125 0.640625 -0.46875 C 0.640625 -0.625 0.6875 -0.75 0.78125 -0.84375 C 0.882812 -0.945312 1.019531 -1 1.1875 -1 C 1.351562 -1 1.484375 -0.953125 1.578125 -0.859375 C 1.679688 -0.765625 1.734375 -0.640625 1.734375 -0.484375 C 1.734375 -0.328125 1.679688 -0.195312 1.578125 -0.09375 C 1.484375 0 1.351562 0.046875 1.1875 0.046875 Z M 1.1875 -3.859375 C 1.019531 -3.859375 0.882812 -3.90625 0.78125 -4 C 0.6875 -4.09375 0.640625 -4.21875 0.640625 -4.375 C 0.640625 -4.53125 0.6875 -4.65625 0.78125 -4.75 C 0.882812 -4.851562 1.019531 -4.90625 1.1875 -4.90625 C 1.351562 -4.90625 1.484375 -4.859375 1.578125 -4.765625 C 1.679688 -4.671875 1.734375 -4.546875 1.734375 -4.390625 C 1.734375 -4.234375 1.679688 -4.101562 1.578125 -4 C 1.484375 -3.90625 1.351562 -3.859375 1.1875 -3.859375 Z M 1.1875 -3.859375 "/></g></g><g transform="translate(174.604975, 328.831824)"><g/></g><g transform="translate(176.811029, 328.831824)"><g><path d="M 2.8125 0.09375 C 2.40625 0.09375 2.039062 0.0390625 1.71875 -0.0625 C 1.394531 -0.175781 1.125 -0.320312 0.90625 -0.5 C 0.695312 -0.6875 0.539062 -0.882812 0.4375 -1.09375 L 0.859375 -1.59375 L 0.96875 -1.59375 C 1.363281 -0.925781 1.976562 -0.59375 2.8125 -0.59375 C 3.289062 -0.59375 3.644531 -0.691406 3.875 -0.890625 C 4.113281 -1.097656 4.234375 -1.378906 4.234375 -1.734375 C 4.234375 -1.941406 4.195312 -2.117188 4.125 -2.265625 C 4.050781 -2.410156 3.921875 -2.535156 3.734375 -2.640625 C 3.554688 -2.742188 3.316406 -2.835938 3.015625 -2.921875 L 2.265625 -3.109375 C 1.703125 -3.242188 1.285156 -3.457031 1.015625 -3.75 C 0.753906 -4.039062 0.625 -4.410156 0.625 -4.859375 C 0.625 -5.179688 0.703125 -5.46875 0.859375 -5.71875 C 1.023438 -5.96875 1.265625 -6.160156 1.578125 -6.296875 C 1.898438 -6.441406 2.28125 -6.515625 2.71875 -6.515625 C 3.207031 -6.515625 3.617188 -6.445312 3.953125 -6.3125 C 4.285156 -6.175781 4.550781 -5.972656 4.75 -5.703125 L 4.375 -5.203125 L 4.265625 -5.203125 C 4.078125 -5.429688 3.859375 -5.597656 3.609375 -5.703125 C 3.359375 -5.804688 3.0625 -5.859375 2.71875 -5.859375 C 2.28125 -5.859375 1.945312 -5.769531 1.71875 -5.59375 C 1.488281 -5.425781 1.375 -5.1875 1.375 -4.875 C 1.375 -4.59375 1.457031 -4.363281 1.625 -4.1875 C 1.789062 -4.019531 2.070312 -3.890625 2.46875 -3.796875 L 3.234375 -3.609375 C 3.859375 -3.460938 4.3125 -3.238281 4.59375 -2.9375 C 4.875 -2.632812 5.015625 -2.242188 5.015625 -1.765625 C 5.015625 -1.398438 4.929688 -1.078125 4.765625 -0.796875 C 4.609375 -0.523438 4.363281 -0.304688 4.03125 -0.140625 C 3.695312 0.015625 3.289062 0.09375 2.8125 0.09375 Z M 2.8125 0.09375 "/></g></g><g transform="translate(182.317376, 328.831824)"><g><path d="M 2 0.09375 C 1.519531 0.09375 1.144531 -0.03125 0.875 -0.28125 C 0.613281 -0.53125 0.484375 -0.882812 0.484375 -1.34375 C 0.484375 -1.632812 0.539062 -1.878906 0.65625 -2.078125 C 0.769531 -2.273438 0.953125 -2.4375 1.203125 -2.5625 C 1.453125 -2.6875 1.78125 -2.78125 2.1875 -2.84375 C 2.539062 -2.90625 2.804688 -2.972656 2.984375 -3.046875 C 3.171875 -3.117188 3.296875 -3.195312 3.359375 -3.28125 C 3.421875 -3.375 3.453125 -3.492188 3.453125 -3.640625 C 3.453125 -3.859375 3.375 -4.023438 3.21875 -4.140625 C 3.070312 -4.253906 2.832031 -4.3125 2.5 -4.3125 C 2.1875 -4.3125 1.914062 -4.25 1.6875 -4.125 C 1.46875 -4.007812 1.265625 -3.832031 1.078125 -3.59375 L 0.984375 -3.59375 L 0.640625 -4.09375 C 0.835938 -4.351562 1.09375 -4.554688 1.40625 -4.703125 C 1.726562 -4.859375 2.09375 -4.9375 2.5 -4.9375 C 3.070312 -4.9375 3.492188 -4.8125 3.765625 -4.5625 C 4.035156 -4.3125 4.171875 -3.96875 4.171875 -3.53125 L 4.171875 -0.953125 C 4.171875 -0.679688 4.285156 -0.546875 4.515625 -0.546875 C 4.585938 -0.546875 4.660156 -0.5625 4.734375 -0.59375 L 4.796875 -0.578125 L 4.875 -0.078125 C 4.820312 -0.0351562 4.75 -0.0078125 4.65625 0 C 4.570312 0.0195312 4.488281 0.03125 4.40625 0.03125 C 4.132812 0.03125 3.929688 -0.0234375 3.796875 -0.140625 C 3.660156 -0.253906 3.570312 -0.425781 3.53125 -0.65625 L 3.4375 -0.671875 C 3.300781 -0.410156 3.113281 -0.21875 2.875 -0.09375 C 2.644531 0.03125 2.351562 0.09375 2 0.09375 Z M 2.15625 -0.484375 C 2.425781 -0.484375 2.660156 -0.546875 2.859375 -0.671875 C 3.054688 -0.796875 3.207031 -0.96875 3.3125 -1.1875 C 3.414062 -1.414062 3.46875 -1.675781 3.46875 -1.96875 L 3.46875 -2.59375 L 3.390625 -2.609375 C 3.273438 -2.523438 3.140625 -2.457031 2.984375 -2.40625 C 2.835938 -2.363281 2.625 -2.320312 2.34375 -2.28125 C 2.0625 -2.238281 1.835938 -2.175781 1.671875 -2.09375 C 1.503906 -2.019531 1.382812 -1.921875 1.3125 -1.796875 C 1.25 -1.679688 1.21875 -1.53125 1.21875 -1.34375 C 1.21875 -1.0625 1.300781 -0.847656 1.46875 -0.703125 C 1.632812 -0.554688 1.863281 -0.484375 2.15625 -0.484375 Z M 2.15625 -0.484375 "/></g></g><g transform="translate(187.331536, 328.831824)"><g><path d="M 2.40625 0 L 1.5 0 L 0.3125 -4.84375 L 1.015625 -4.84375 L 1.9375 -0.828125 L 2.03125 -0.828125 L 3.15625 -4.84375 L 3.90625 -4.84375 L 5.078125 -0.828125 L 5.171875 -0.828125 L 6.0625 -4.84375 L 6.75 -4.84375 L 5.578125 0 L 4.671875 0 L 3.5625 -3.765625 L 3.46875 -3.765625 Z M 2.40625 0 "/></g></g><g transform="translate(194.397942, 328.831824)"><g><path d="M 0.96875 2.0625 C 0.800781 2.0625 0.644531 2.046875 0.5 2.015625 C 0.363281 1.984375 0.242188 1.945312 0.140625 1.90625 L 0.28125 1.328125 L 0.359375 1.3125 C 0.429688 1.34375 0.519531 1.367188 0.625 1.390625 C 0.726562 1.421875 0.832031 1.4375 0.9375 1.4375 C 1.132812 1.4375 1.296875 1.410156 1.421875 1.359375 C 1.554688 1.304688 1.671875 1.21875 1.765625 1.09375 C 1.859375 0.96875 1.941406 0.800781 2.015625 0.59375 L 2.1875 0.109375 L 0.25 -4.84375 L 1.015625 -4.84375 L 2.546875 -0.890625 L 2.625 -0.890625 L 4.109375 -4.84375 L 4.84375 -4.84375 L 2.671875 0.765625 C 2.546875 1.066406 2.40625 1.3125 2.25 1.5 C 2.101562 1.695312 1.925781 1.835938 1.71875 1.921875 C 1.507812 2.015625 1.257812 2.0625 0.96875 2.0625 Z M 0.96875 2.0625 "/></g></g><g transform="translate(199.508782, 328.831824)"><g><path d="M 4.625 -2.265625 L 1.28125 -2.265625 C 1.300781 -1.671875 1.441406 -1.234375 1.703125 -0.953125 C 1.972656 -0.679688 2.335938 -0.546875 2.796875 -0.546875 C 3.140625 -0.546875 3.414062 -0.609375 3.625 -0.734375 C 3.832031 -0.859375 4 -1.050781 4.125 -1.3125 L 4.21875 -1.3125 L 4.6875 -1.03125 C 4.539062 -0.6875 4.3125 -0.410156 4 -0.203125 C 3.695312 -0.00390625 3.296875 0.09375 2.796875 0.09375 C 2.328125 0.09375 1.921875 0 1.578125 -0.1875 C 1.242188 -0.375 0.984375 -0.65625 0.796875 -1.03125 C 0.617188 -1.40625 0.53125 -1.867188 0.53125 -2.421875 C 0.53125 -2.972656 0.625 -3.4375 0.8125 -3.8125 C 1.007812 -4.1875 1.273438 -4.46875 1.609375 -4.65625 C 1.941406 -4.84375 2.320312 -4.9375 2.75 -4.9375 C 3.363281 -4.9375 3.84375 -4.757812 4.1875 -4.40625 C 4.539062 -4.0625 4.722656 -3.546875 4.734375 -2.859375 C 4.734375 -2.585938 4.726562 -2.40625 4.71875 -2.3125 Z M 4.015625 -2.859375 C 4.003906 -3.367188 3.890625 -3.738281 3.671875 -3.96875 C 3.460938 -4.207031 3.15625 -4.328125 2.75 -4.328125 C 2.320312 -4.328125 1.988281 -4.207031 1.75 -3.96875 C 1.507812 -3.738281 1.363281 -3.367188 1.3125 -2.859375 Z M 4.015625 -2.859375 "/></g></g><g transform="translate(204.67675, 328.831824)"><g><path d="M 0.84375 0 L 0.84375 -4.84375 L 1.53125 -4.84375 L 1.53125 -4.09375 L 1.625 -4.0625 C 1.84375 -4.613281 2.265625 -4.890625 2.890625 -4.890625 C 3.222656 -4.890625 3.472656 -4.832031 3.640625 -4.71875 L 3.453125 -4.109375 L 3.359375 -4.09375 C 3.179688 -4.175781 2.984375 -4.21875 2.765625 -4.21875 C 2.378906 -4.21875 2.082031 -4.070312 1.875 -3.78125 C 1.664062 -3.5 1.5625 -3.03125 1.5625 -2.375 L 1.5625 0 Z M 0.84375 0 "/></g></g><g transform="translate(208.42089, 328.831824)"><g/></g><g transform="translate(210.626945, 328.831824)"><g><path d="M 3.046875 -6.421875 C 3.703125 -6.421875 4.257812 -6.300781 4.71875 -6.0625 C 5.1875 -5.832031 5.546875 -5.476562 5.796875 -5 C 6.054688 -4.53125 6.1875 -3.9375 6.1875 -3.21875 C 6.1875 -2.488281 6.054688 -1.882812 5.796875 -1.40625 C 5.546875 -0.9375 5.1875 -0.582031 4.71875 -0.34375 C 4.257812 -0.113281 3.703125 0 3.046875 0 L 0.96875 0 L 0.96875 -6.421875 Z M 2.96875 -0.640625 C 3.507812 -0.640625 3.953125 -0.722656 4.296875 -0.890625 C 4.648438 -1.054688 4.914062 -1.328125 5.09375 -1.703125 C 5.28125 -2.085938 5.375 -2.59375 5.375 -3.21875 C 5.375 -3.84375 5.28125 -4.34375 5.09375 -4.71875 C 4.914062 -5.09375 4.648438 -5.363281 4.296875 -5.53125 C 3.953125 -5.695312 3.507812 -5.78125 2.96875 -5.78125 L 1.734375 -5.78125 L 1.734375 -0.640625 Z M 2.96875 -0.640625 "/></g></g><g transform="translate(217.456046, 328.831824)"><g><path d="M 1.203125 -5.78125 C 1.046875 -5.78125 0.921875 -5.828125 0.828125 -5.921875 C 0.734375 -6.015625 0.6875 -6.132812 0.6875 -6.28125 C 0.6875 -6.4375 0.734375 -6.5625 0.828125 -6.65625 C 0.921875 -6.75 1.046875 -6.796875 1.203125 -6.796875 C 1.359375 -6.796875 1.484375 -6.75 1.578125 -6.65625 C 1.671875 -6.5625 1.71875 -6.4375 1.71875 -6.28125 C 1.71875 -6.132812 1.671875 -6.015625 1.578125 -5.921875 C 1.484375 -5.828125 1.359375 -5.78125 1.203125 -5.78125 Z M 0.84375 0 L 0.84375 -4.84375 L 1.5625 -4.84375 L 1.5625 0 Z M 0.84375 0 "/></g></g><g transform="translate(219.859854, 328.831824)"><g><path d="M 1.921875 0.09375 C 1.585938 0.09375 1.320312 -0.00390625 1.125 -0.203125 C 0.925781 -0.398438 0.828125 -0.691406 0.828125 -1.078125 L 0.828125 -6.796875 L 1.546875 -6.796875 L 1.546875 -1.125 C 1.546875 -0.914062 1.582031 -0.765625 1.65625 -0.671875 C 1.738281 -0.585938 1.859375 -0.546875 2.015625 -0.546875 C 2.117188 -0.546875 2.222656 -0.5625 2.328125 -0.59375 L 2.390625 -0.578125 L 2.46875 -0.015625 C 2.414062 0.015625 2.335938 0.0390625 2.234375 0.0625 C 2.140625 0.0820312 2.035156 0.09375 1.921875 0.09375 Z M 1.921875 0.09375 "/></g></g><g transform="translate(222.496573, 328.831824)"><g><path d="M 1.921875 0.09375 C 1.585938 0.09375 1.320312 -0.00390625 1.125 -0.203125 C 0.925781 -0.398438 0.828125 -0.691406 0.828125 -1.078125 L 0.828125 -6.796875 L 1.546875 -6.796875 L 1.546875 -1.125 C 1.546875 -0.914062 1.582031 -0.765625 1.65625 -0.671875 C 1.738281 -0.585938 1.859375 -0.546875 2.015625 -0.546875 C 2.117188 -0.546875 2.222656 -0.5625 2.328125 -0.59375 L 2.390625 -0.578125 L 2.46875 -0.015625 C 2.414062 0.015625 2.335938 0.0390625 2.234375 0.0625 C 2.140625 0.0820312 2.035156 0.09375 1.921875 0.09375 Z M 1.921875 0.09375 "/></g></g><g transform="translate(225.133292, 328.831824)"><g><path d="M 2.78125 0.09375 C 2.320312 0.09375 1.921875 0 1.578125 -0.1875 C 1.242188 -0.382812 0.984375 -0.671875 0.796875 -1.046875 C 0.617188 -1.429688 0.53125 -1.890625 0.53125 -2.421875 C 0.53125 -2.953125 0.617188 -3.40625 0.796875 -3.78125 C 0.984375 -4.164062 1.242188 -4.453125 1.578125 -4.640625 C 1.921875 -4.835938 2.320312 -4.9375 2.78125 -4.9375 C 3.238281 -4.9375 3.632812 -4.835938 3.96875 -4.640625 C 4.3125 -4.453125 4.570312 -4.164062 4.75 -3.78125 C 4.9375 -3.40625 5.03125 -2.953125 5.03125 -2.421875 C 5.03125 -1.890625 4.9375 -1.429688 4.75 -1.046875 C 4.570312 -0.671875 4.3125 -0.382812 3.96875 -0.1875 C 3.632812 0 3.238281 0.09375 2.78125 0.09375 Z M 2.78125 -0.546875 C 3.257812 -0.546875 3.628906 -0.695312 3.890625 -1 C 4.148438 -1.3125 4.28125 -1.785156 4.28125 -2.421875 C 4.28125 -3.066406 4.148438 -3.539062 3.890625 -3.84375 C 3.628906 -4.144531 3.257812 -4.296875 2.78125 -4.296875 C 2.300781 -4.296875 1.929688 -4.140625 1.671875 -3.828125 C 1.410156 -3.523438 1.28125 -3.054688 1.28125 -2.421875 C 1.28125 -1.785156 1.410156 -1.3125 1.671875 -1 C 1.929688 -0.695312 2.300781 -0.546875 2.78125 -0.546875 Z M 2.78125 -0.546875 "/></g></g><g transform="translate(230.696768, 328.831824)"><g><path d="M 0.84375 0 L 0.84375 -4.84375 L 1.53125 -4.84375 L 1.53125 -4.09375 L 1.625 -4.0625 C 1.78125 -4.34375 1.984375 -4.554688 2.234375 -4.703125 C 2.484375 -4.859375 2.789062 -4.9375 3.15625 -4.9375 C 3.738281 -4.9375 4.160156 -4.785156 4.421875 -4.484375 C 4.679688 -4.191406 4.8125 -3.738281 4.8125 -3.125 L 4.8125 0 L 4.09375 0 L 4.09375 -3.109375 C 4.09375 -3.398438 4.054688 -3.632812 3.984375 -3.8125 C 3.910156 -3.988281 3.796875 -4.113281 3.640625 -4.1875 C 3.484375 -4.269531 3.273438 -4.3125 3.015625 -4.3125 C 2.578125 -4.3125 2.222656 -4.164062 1.953125 -3.875 C 1.691406 -3.59375 1.5625 -3.128906 1.5625 -2.484375 L 1.5625 0 Z M 0.84375 0 "/></g></g></g></svg>