<svg xmlns="http://www.w3.org/2000/svg" xmlns:xlink="http://www.w3.org/1999/xlink" width="500" zoomAndPan="magnify" viewBox="0 0 375 374.999991" height="500" preserveAspectRatio="xMidYMid meet" version="1.0"><defs><g/><clipPath id="d8d62f220f"><path d="M 85 99 L 290 99 L 290 305 L 85 305 Z M 85 99 " clip-rule="nonzero"/></clipPath><clipPath id="8aa55b6047"><path d="M 77.359375 201.605469 L 187.414062 91.550781 L 297.902344 202.035156 L 187.84375 312.09375 Z M 77.359375 201.605469 " clip-rule="nonzero"/></clipPath><clipPath id="e8fc8ada6f"><path d="M 90.617188 188.347656 L 174.15625 104.808594 C 181.476562 97.484375 193.351562 97.484375 200.671875 104.808594 L 284.390625 188.527344 C 291.710938 195.847656 291.710938 207.71875 284.390625 215.042969 L 200.851562 298.582031 C 193.527344 305.90625 181.65625 305.90625 174.332031 298.582031 L 90.617188 214.863281 C 83.292969 207.542969 83.292969 195.671875 90.617188 188.347656 Z M 90.617188 188.347656 " clip-rule="nonzero"/></clipPath><clipPath id="7da54d2aa7"><path d="M 109.109375 77 L 274.859375 77 L 274.859375 282 L 109.109375 282 Z M 109.109375 77 " clip-rule="nonzero"/></clipPath><clipPath id="f56c74f880"><path d="M 109.109375 82 L 274.859375 82 L 274.859375 282 L 109.109375 282 Z M 109.109375 82 " clip-rule="nonzero"/></clipPath></defs><rect x="-37.5" width="450" fill="#ffffff" y="-37.499999" height="449.999989" fill-opacity="1"/><rect x="-37.5" width="450" fill="#ff914d" y="-37.499999" height="449.999989" fill-opacity="1"/><g clip-path="url(#d8d62f220f)"><g clip-path="url(#8aa55b6047)"><g clip-path="url(#e8fc8ada6f)"><path fill="#c1ff72" d="M 77.359375 201.605469 L 187.414062 91.550781 L 297.472656 201.605469 L 187.414062 311.664062 Z M 77.359375 201.605469 " fill-opacity="1" fill-rule="nonzero"/></g></g></g><g clip-path="url(#7da54d2aa7)"><path fill="#00bf63" d="M 272.585938 266.902344 C 270.804688 267.511719 254.722656 273.066406 251.464844 274.191406 C 251.464844 274.191406 251.375 274.222656 251.203125 274.28125 C 251.03125 274.335938 250.9375 274.371094 250.9375 274.371094 C 247.671875 275.476562 231.550781 280.917969 229.769531 281.527344 C 227.800781 282.199219 225.816406 280.679688 223.703125 276.09375 C 221.585938 271.507812 221.570312 268.769531 219.5 263.25 C 217.433594 257.734375 199.929688 210.988281 196.65625 198.195312 C 193.386719 185.402344 200.367188 181.191406 199.859375 179.164062 C 199.351562 177.140625 196.261719 167.03125 191.433594 150.742188 C 188.800781 141.871094 186.765625 132.195312 185.457031 125.226562 C 184.96875 128.152344 184.417969 131.117188 183.804688 134 C 180.261719 150.617188 177.96875 160.9375 177.621094 162.996094 C 177.273438 165.050781 184.558594 168.710938 182.296875 181.722656 C 180.035156 194.730469 166.234375 242.699219 164.605469 248.359375 C 162.976562 254.019531 163.167969 256.753906 161.417969 261.488281 C 159.664062 266.226562 157.808594 267.894531 155.792969 267.378906 C 153.96875 266.910156 137.476562 262.738281 134.128906 261.898438 C 134.128906 261.898438 134.035156 261.871094 133.859375 261.828125 C 133.683594 261.78125 133.585938 261.757812 133.585938 261.757812 C 130.25 260.886719 113.78125 256.605469 111.957031 256.136719 C 109.941406 255.617188 109.117188 253.257812 109.863281 248.265625 C 110.609375 243.269531 112.09375 240.96875 113.386719 235.21875 C 114.679688 229.472656 125.664062 180.785156 129.941406 168.289062 C 134.21875 155.792969 142.367188 156.09375 143.050781 154.125 C 143.734375 152.15625 146.695312 142.007812 151.582031 125.730469 C 155.839844 111.558594 162.492188 96.507812 164.136719 92.859375 C 164.339844 92.410156 164.316406 91.882812 164.050781 91.46875 C 163.605469 90.765625 163.066406 89.375 163.632812 87.164062 C 164.164062 85.101562 165.015625 83.847656 165.601562 83.183594 C 165.808594 82.953125 165.871094 82.644531 165.785156 82.367188 C 165.625 81.820312 165.53125 81.257812 165.550781 80.6875 C 165.558594 80.304688 165.617188 79.925781 165.707031 79.554688 L 165.902344 78.792969 C 166.21875 77.558594 167.472656 76.816406 168.703125 77.132812 L 180.152344 80.066406 L 180.722656 80.210938 L 192.167969 83.144531 C 193.402344 83.460938 194.144531 84.71875 193.828125 85.945312 L 193.636719 86.707031 C 193.539062 87.074219 193.402344 87.4375 193.234375 87.773438 C 192.972656 88.285156 192.617188 88.730469 192.214844 89.136719 C 192.011719 89.335938 191.914062 89.636719 191.984375 89.9375 C 192.183594 90.804688 192.328125 92.308594 191.796875 94.375 C 191.527344 95.410156 191.136719 96.171875 190.722656 96.726562 L 190.855469 96.679688 L 202.042969 92.859375 C 203.246094 92.445312 204.554688 93.089844 204.964844 94.296875 L 205.222656 95.035156 C 205.34375 95.398438 205.425781 95.769531 205.464844 96.152344 C 205.527344 96.71875 205.480469 97.289062 205.359375 97.851562 C 205.304688 98.132812 205.386719 98.4375 205.613281 98.652344 C 206.253906 99.265625 207.195312 100.445312 207.886719 102.460938 C 208.625 104.625 208.195312 106.050781 207.804688 106.785156 C 207.570312 107.21875 207.585938 107.746094 207.828125 108.175781 C 209.753906 111.683594 217.558594 126.171875 222.914062 139.96875 C 229.054688 155.808594 232.796875 165.695312 233.636719 167.605469 C 234.472656 169.515625 242.574219 168.582031 247.8125 180.707031 C 253.050781 192.832031 267.800781 240.511719 269.539062 246.140625 C 271.277344 251.769531 272.9375 253.949219 274.070312 258.871094 C 275.195312 263.816406 274.554688 266.230469 272.585938 266.902344 Z M 272.585938 266.902344 " fill-opacity="1" fill-rule="nonzero"/></g><g clip-path="url(#f56c74f880)"><path fill="#4a8e00" d="M 199.722656 98.960938 C 199.503906 98.238281 203.109375 97.632812 205.460938 96.15625 C 205.460938 96.160156 205.460938 96.171875 205.464844 96.175781 C 205.527344 96.742188 205.480469 97.3125 205.359375 97.875 C 205.347656 97.933594 205.34375 98 205.34375 98.066406 C 205.34375 98.105469 205.351562 98.144531 205.355469 98.1875 C 205.359375 98.207031 205.359375 98.230469 205.367188 98.246094 C 205.378906 98.300781 205.394531 98.347656 205.417969 98.394531 C 205.421875 98.402344 205.421875 98.40625 205.425781 98.410156 C 205.453125 98.460938 205.484375 98.515625 205.523438 98.5625 C 202.757812 98.796875 199.941406 99.695312 199.722656 98.960938 Z M 209.007812 110.390625 C 208.761719 109.933594 208.539062 109.519531 208.34375 109.160156 C 208.335938 109.144531 208.324219 109.128906 208.320312 109.117188 C 208.238281 108.957031 208.160156 108.8125 208.082031 108.675781 C 208.070312 108.65625 208.058594 108.625 208.042969 108.601562 C 207.964844 108.453125 207.890625 108.316406 207.820312 108.199219 C 207.582031 107.761719 207.5625 107.242188 207.792969 106.804688 C 207.839844 106.726562 207.878906 106.632812 207.921875 106.539062 C 207.9375 106.492188 207.957031 106.449219 207.972656 106.40625 C 207.996094 106.347656 208.019531 106.292969 208.039062 106.230469 C 208.0625 106.167969 208.078125 106.101562 208.101562 106.039062 C 208.117188 105.984375 208.132812 105.921875 208.144531 105.867188 C 208.164062 105.792969 208.183594 105.714844 208.199219 105.632812 C 207.207031 106.171875 206.203125 106.542969 205.648438 106.828125 C 204.757812 107.28125 206.523438 107.953125 209.007812 110.390625 Z M 244.65625 175.375 C 244.886719 175.632812 245.105469 175.90625 245.332031 176.175781 C 245.179688 175.957031 245.03125 175.746094 244.882812 175.539062 C 244.871094 175.519531 244.855469 175.503906 244.84375 175.484375 C 244.695312 175.285156 244.539062 175.085938 244.390625 174.890625 C 244.386719 174.882812 244.378906 174.878906 244.375 174.871094 C 240.535156 170.050781 236.355469 169.285156 234.519531 168.378906 C 234.511719 168.375 234.507812 168.371094 234.496094 168.367188 C 234.421875 168.332031 234.351562 168.292969 234.285156 168.257812 C 234.265625 168.242188 234.242188 168.230469 234.222656 168.21875 C 234.171875 168.1875 234.125 168.15625 234.082031 168.125 C 234.058594 168.109375 234.035156 168.09375 234.015625 168.078125 C 233.976562 168.046875 233.941406 168.019531 233.90625 167.988281 C 233.886719 167.972656 233.863281 167.953125 233.847656 167.9375 C 233.8125 167.90625 233.785156 167.871094 233.757812 167.835938 C 233.746094 167.816406 233.734375 167.804688 233.71875 167.789062 C 233.683594 167.734375 233.648438 167.683594 233.628906 167.628906 C 233.601562 167.570312 233.574219 167.507812 233.542969 167.433594 C 233.53125 167.402344 233.519531 167.367188 233.503906 167.335938 C 233.488281 167.285156 233.464844 167.242188 233.449219 167.195312 C 233.429688 167.160156 233.417969 167.117188 233.398438 167.074219 C 233.378906 167.019531 233.355469 166.964844 233.328125 166.90625 C 233.3125 166.859375 233.289062 166.808594 233.273438 166.761719 C 233.25 166.703125 233.222656 166.644531 233.203125 166.585938 C 233.175781 166.523438 233.148438 166.457031 233.128906 166.390625 C 233.105469 166.332031 233.078125 166.277344 233.058594 166.210938 C 233.03125 166.140625 233 166.070312 232.972656 165.996094 C 232.949219 165.929688 232.921875 165.867188 232.894531 165.800781 C 232.863281 165.722656 232.832031 165.644531 232.796875 165.5625 C 232.773438 165.492188 232.742188 165.421875 232.714844 165.347656 C 232.683594 165.265625 232.648438 165.183594 232.617188 165.101562 C 232.582031 165.011719 232.546875 164.925781 232.511719 164.835938 C 232.476562 164.75 232.441406 164.660156 232.40625 164.570312 C 232.371094 164.484375 232.339844 164.398438 232.304688 164.308594 C 232.269531 164.222656 232.234375 164.132812 232.199219 164.042969 C 232.15625 163.925781 232.113281 163.8125 232.066406 163.695312 C 232.03125 163.601562 231.988281 163.507812 231.953125 163.410156 C 231.925781 163.324219 231.890625 163.238281 231.855469 163.148438 C 231.796875 163.007812 231.742188 162.863281 231.6875 162.714844 C 231.664062 162.664062 231.648438 162.609375 231.625 162.5625 C 231.558594 162.394531 231.492188 162.222656 231.429688 162.046875 C 231.402344 161.980469 231.375 161.917969 231.351562 161.851562 C 231.289062 161.675781 231.21875 161.5 231.148438 161.320312 C 231.132812 161.28125 231.117188 161.238281 231.097656 161.199219 C 230.921875 160.742188 230.738281 160.265625 230.546875 159.765625 C 230.804688 166.222656 228.292969 168.765625 228.429688 169.289062 C 228.851562 170.910156 237.300781 167.160156 244.65625 175.375 Z M 214.144531 211.414062 L 222.25 235.140625 C 225.707031 245.261719 236.714844 250.667969 246.835938 247.207031 C 256.957031 243.753906 262.363281 232.742188 258.902344 222.621094 L 250.796875 198.894531 C 247.34375 188.773438 236.332031 183.367188 226.210938 186.828125 C 216.089844 190.285156 210.683594 201.292969 214.144531 211.414062 Z M 192.152344 91.265625 C 192.148438 91.167969 192.140625 91.082031 192.136719 90.992188 C 192.128906 90.941406 192.125 90.886719 192.121094 90.835938 C 192.113281 90.753906 192.105469 90.679688 192.09375 90.609375 C 192.085938 90.550781 192.078125 90.488281 192.070312 90.425781 C 192.058594 90.375 192.050781 90.316406 192.042969 90.269531 C 192.023438 90.160156 192.003906 90.054688 191.980469 89.960938 C 191.910156 89.65625 192.007812 89.359375 192.210938 89.15625 C 192.613281 88.753906 192.96875 88.304688 193.226562 87.796875 C 193.402344 87.457031 193.539062 87.097656 193.632812 86.730469 L 193.824219 85.96875 C 191.652344 88.859375 184.703125 85.261719 184.386719 86.316406 C 184.085938 87.375 190.132812 88.546875 192.152344 91.265625 Z M 185.269531 98.617188 L 190.300781 96.898438 L 190.722656 96.753906 C 190.878906 96.542969 191.03125 96.300781 191.183594 96.023438 C 189.253906 97.121094 186.304688 96.285156 185.042969 96.148438 C 184.324219 96.066406 184.71875 96.859375 185.269531 98.617188 Z M 273.84375 266.007812 C 273.367188 268.015625 264.078125 272.640625 252.210938 276.714844 C 240.789062 280.632812 230.921875 282.675781 228.777344 281.671875 C 227.128906 281.601562 225.460938 279.914062 223.699219 276.09375 C 221.582031 271.507812 221.566406 268.769531 219.496094 263.25 C 219.257812 262.617188 218.816406 261.441406 218.21875 259.835938 C 218.195312 259.777344 218.171875 259.710938 218.148438 259.648438 C 218.101562 259.515625 218.046875 259.378906 217.996094 259.238281 C 217.675781 258.382812 217.320312 257.425781 216.929688 256.378906 C 216.886719 256.277344 216.851562 256.171875 216.8125 256.070312 C 216.757812 255.910156 216.695312 255.757812 216.636719 255.59375 C 216.582031 255.4375 216.519531 255.277344 216.457031 255.117188 C 216.414062 255 216.371094 254.878906 216.328125 254.761719 C 216.273438 254.621094 216.222656 254.476562 216.167969 254.332031 C 216.082031 254.097656 215.996094 253.863281 215.910156 253.628906 C 215.890625 253.585938 215.878906 253.539062 215.859375 253.496094 C 215.78125 253.277344 215.699219 253.058594 215.613281 252.832031 C 215.566406 252.703125 215.519531 252.570312 215.464844 252.433594 C 215.410156 252.277344 215.347656 252.113281 215.285156 251.949219 C 215.226562 251.792969 215.167969 251.632812 215.109375 251.472656 C 214.863281 250.808594 214.609375 250.125 214.355469 249.421875 C 214.339844 249.386719 214.328125 249.351562 214.316406 249.316406 C 214.191406 248.988281 214.074219 248.65625 213.949219 248.324219 C 213.9375 248.289062 213.925781 248.25 213.910156 248.210938 C 213.796875 247.90625 213.6875 247.597656 213.574219 247.285156 C 213.539062 247.191406 213.5 247.089844 213.464844 246.988281 C 213.359375 246.699219 213.25 246.40625 213.136719 246.105469 C 213.113281 246.039062 213.089844 245.96875 213.0625 245.902344 C 212.949219 245.585938 212.832031 245.265625 212.710938 244.945312 C 212.6875 244.875 212.664062 244.808594 212.636719 244.738281 C 212.519531 244.417969 212.402344 244.097656 212.28125 243.773438 C 212.253906 243.699219 212.230469 243.625 212.199219 243.550781 C 212.070312 243.199219 211.9375 242.84375 211.808594 242.484375 C 211.792969 242.445312 211.78125 242.410156 211.769531 242.375 C 211.472656 241.574219 211.179688 240.757812 210.882812 239.9375 C 210.859375 239.871094 210.832031 239.804688 210.8125 239.742188 C 210.6875 239.410156 210.570312 239.074219 210.445312 238.738281 C 210.40625 238.632812 210.371094 238.53125 210.332031 238.425781 C 210.222656 238.117188 210.109375 237.8125 210 237.503906 C 209.953125 237.382812 209.910156 237.265625 209.867188 237.148438 C 209.761719 236.859375 209.65625 236.5625 209.546875 236.269531 C 209.503906 236.144531 209.457031 236.027344 209.414062 235.90625 C 209.304688 235.601562 209.195312 235.304688 209.085938 235 C 209.042969 234.882812 208.996094 234.757812 208.953125 234.640625 C 208.832031 234.296875 208.707031 233.957031 208.585938 233.613281 C 208.558594 233.546875 208.535156 233.476562 208.511719 233.410156 C 208.054688 232.140625 207.59375 230.859375 207.132812 229.582031 C 207.097656 229.480469 207.0625 229.382812 207.027344 229.28125 C 206.90625 228.953125 206.789062 228.625 206.675781 228.292969 C 206.640625 228.203125 206.609375 228.105469 206.574219 228.015625 C 206.453125 227.679688 206.335938 227.347656 206.21875 227.015625 C 206.179688 226.90625 206.144531 226.800781 206.101562 226.691406 C 205.992188 226.390625 205.886719 226.085938 205.78125 225.78125 C 205.738281 225.65625 205.691406 225.527344 205.648438 225.402344 C 205.535156 225.089844 205.421875 224.773438 205.3125 224.460938 C 205.277344 224.359375 205.238281 224.253906 205.203125 224.152344 C 205.070312 223.789062 204.945312 223.421875 204.816406 223.054688 C 204.800781 223.007812 204.78125 222.960938 204.765625 222.910156 C 204.464844 222.066406 204.171875 221.230469 203.882812 220.398438 C 203.855469 220.328125 203.832031 220.261719 203.808594 220.191406 C 203.6875 219.859375 203.574219 219.519531 203.457031 219.191406 C 203.414062 219.082031 203.382812 218.976562 203.339844 218.867188 C 203.234375 218.566406 203.136719 218.273438 203.035156 217.980469 C 202.996094 217.859375 202.949219 217.746094 202.910156 217.628906 C 202.8125 217.355469 202.722656 217.078125 202.625 216.808594 C 202.578125 216.671875 202.527344 216.535156 202.484375 216.398438 C 202.398438 216.140625 202.304688 215.886719 202.21875 215.625 C 202.171875 215.496094 202.125 215.359375 202.082031 215.226562 C 201.980469 214.941406 201.882812 214.65625 201.785156 214.371094 C 201.757812 214.277344 201.726562 214.1875 201.691406 214.09375 C 201.582031 213.769531 201.464844 213.445312 201.355469 213.117188 C 201.339844 213.0625 201.316406 213 201.296875 212.941406 C 201.167969 212.5625 201.035156 212.1875 200.914062 211.8125 C 200.898438 211.777344 200.890625 211.742188 200.878906 211.707031 C 200.769531 211.378906 200.660156 211.054688 200.546875 210.734375 C 200.511719 210.632812 200.484375 210.53125 200.449219 210.429688 C 200.363281 210.175781 200.277344 209.921875 200.191406 209.675781 C 200.152344 209.558594 200.113281 209.4375 200.074219 209.316406 C 200 209.085938 199.921875 208.859375 199.847656 208.636719 C 199.804688 208.511719 199.765625 208.390625 199.722656 208.265625 C 199.648438 208.046875 199.578125 207.828125 199.507812 207.613281 C 199.46875 207.492188 199.429688 207.375 199.390625 207.257812 C 199.320312 207.046875 199.253906 206.839844 199.1875 206.628906 C 199.148438 206.503906 199.109375 206.382812 199.070312 206.265625 C 199 206.054688 198.933594 205.847656 198.867188 205.640625 C 198.832031 205.535156 198.796875 205.429688 198.765625 205.324219 C 198.683594 205.066406 198.601562 204.808594 198.523438 204.558594 C 198.507812 204.511719 198.492188 204.457031 198.476562 204.410156 C 198.382812 204.113281 198.292969 203.820312 198.199219 203.535156 C 198.175781 203.460938 198.152344 203.386719 198.128906 203.3125 C 198.0625 203.101562 197.996094 202.890625 197.9375 202.6875 C 197.910156 202.597656 197.878906 202.507812 197.851562 202.417969 C 197.796875 202.238281 197.742188 202.058594 197.691406 201.886719 C 197.660156 201.785156 197.628906 201.683594 197.597656 201.585938 C 197.550781 201.429688 197.5 201.269531 197.457031 201.117188 C 197.425781 201.015625 197.398438 200.917969 197.371094 200.824219 C 197.324219 200.671875 197.28125 200.527344 197.242188 200.382812 C 197.214844 200.289062 197.183594 200.191406 197.160156 200.09375 C 197.117188 199.953125 197.078125 199.820312 197.042969 199.6875 C 197.019531 199.59375 196.992188 199.5 196.96875 199.414062 C 196.929688 199.269531 196.890625 199.132812 196.855469 198.992188 C 196.835938 198.921875 196.816406 198.847656 196.796875 198.777344 C 196.746094 198.574219 196.691406 198.378906 196.644531 198.183594 C 196.535156 197.753906 196.4375 197.335938 196.351562 196.929688 C 196.332031 196.847656 196.320312 196.773438 196.304688 196.699219 C 196.234375 196.363281 196.175781 196.023438 196.117188 195.699219 C 196.109375 195.644531 196.101562 195.597656 196.097656 195.542969 C 196.039062 195.1875 195.992188 194.84375 195.945312 194.503906 C 195.941406 194.488281 195.941406 194.464844 195.941406 194.445312 C 195.898438 194.078125 195.863281 193.71875 195.835938 193.367188 C 195.164062 184.277344 200.285156 180.898438 199.847656 179.15625 C 199.335938 177.132812 196.25 167.023438 191.417969 150.730469 C 190.09375 146.257812 188.914062 141.582031 187.910156 137.144531 C 187.875 137 187.84375 136.851562 187.808594 136.707031 C 187.730469 136.359375 187.65625 136.011719 187.578125 135.667969 C 187.546875 135.519531 187.511719 135.375 187.480469 135.226562 C 187.433594 135.007812 187.382812 134.792969 187.335938 134.570312 C 187.308594 134.449219 187.28125 134.320312 187.257812 134.199219 C 187.164062 133.78125 187.074219 133.363281 186.988281 132.953125 C 186.96875 132.867188 186.953125 132.78125 186.933594 132.695312 C 186.886719 132.460938 186.835938 132.226562 186.785156 131.992188 C 186.769531 131.898438 186.746094 131.804688 186.730469 131.714844 C 186.574219 130.976562 186.425781 130.25 186.285156 129.539062 C 186.269531 129.453125 186.25 129.363281 186.234375 129.277344 C 186.09375 128.566406 185.953125 127.871094 185.824219 127.195312 C 185.8125 127.121094 185.796875 127.050781 185.78125 126.976562 C 185.742188 126.757812 185.695312 126.550781 185.65625 126.339844 C 185.644531 126.277344 185.636719 126.214844 185.621094 126.148438 C 185.546875 125.753906 185.472656 125.363281 185.402344 124.980469 C 185.402344 124.972656 185.398438 124.964844 185.398438 124.953125 C 185.417969 125.042969 185.429688 125.128906 185.445312 125.21875 C 184.960938 128.144531 184.410156 131.105469 183.796875 133.992188 C 180.253906 150.609375 177.960938 160.929688 177.613281 162.988281 C 177.265625 165.042969 184.550781 168.699219 182.289062 181.710938 C 180.027344 194.722656 166.226562 242.6875 164.597656 248.351562 C 162.96875 254.011719 163.160156 256.746094 161.410156 261.480469 C 159.910156 265.527344 158.335938 267.328125 156.652344 267.449219 C 153.617188 268.203125 144.261719 266.992188 133.441406 264.3125 C 121.453125 261.34375 111.894531 257.617188 110.925781 255.621094 C 109.679688 254.613281 109.253906 252.296875 109.855469 248.261719 C 110.601562 243.265625 112.085938 240.964844 113.378906 235.214844 C 113.503906 234.644531 113.921875 233.382812 114.476562 231.714844 L 114.179688 231.664062 C 116.632812 220.855469 123.390625 191.367188 127.742188 175.617188 C 127.746094 175.597656 127.75 175.585938 127.753906 175.570312 C 127.820312 175.332031 127.886719 175.097656 127.949219 174.867188 C 127.960938 174.816406 127.972656 174.769531 127.988281 174.726562 C 128.042969 174.523438 128.101562 174.320312 128.160156 174.125 C 128.179688 174.050781 128.203125 173.976562 128.21875 173.898438 C 128.273438 173.714844 128.320312 173.535156 128.375 173.359375 C 128.394531 173.285156 128.417969 173.207031 128.4375 173.132812 C 128.488281 172.960938 128.535156 172.792969 128.585938 172.625 C 128.609375 172.539062 128.632812 172.457031 128.660156 172.367188 C 128.703125 172.214844 128.746094 172.066406 128.789062 171.914062 C 128.816406 171.824219 128.84375 171.734375 128.871094 171.644531 C 128.910156 171.507812 128.949219 171.371094 128.992188 171.238281 C 129.023438 171.136719 129.050781 171.042969 129.082031 170.945312 C 129.121094 170.820312 129.15625 170.699219 129.191406 170.582031 C 129.222656 170.480469 129.25 170.382812 129.28125 170.285156 C 129.316406 170.175781 129.351562 170.066406 129.382812 169.960938 C 129.417969 169.851562 129.453125 169.742188 129.484375 169.636719 C 129.511719 169.546875 129.542969 169.457031 129.566406 169.371094 C 129.605469 169.25 129.648438 169.136719 129.683594 169.019531 C 129.703125 168.949219 129.726562 168.878906 129.746094 168.816406 C 129.808594 168.636719 129.867188 168.464844 129.921875 168.296875 C 130.070312 167.878906 130.214844 167.476562 130.367188 167.085938 C 130.398438 167.011719 130.429688 166.941406 130.453125 166.863281 C 130.582031 166.542969 130.714844 166.226562 130.847656 165.925781 C 130.867188 165.878906 130.890625 165.832031 130.910156 165.785156 C 131.054688 165.457031 131.207031 165.140625 131.359375 164.832031 C 131.367188 164.816406 131.378906 164.800781 131.386719 164.785156 C 131.550781 164.449219 131.71875 164.128906 131.890625 163.820312 C 136.3125 155.851562 142.449219 155.835938 143.035156 154.136719 C 143.722656 152.164062 146.679688 142.015625 151.566406 125.742188 C 152.910156 121.269531 154.492188 116.710938 156.078125 112.453125 C 156.253906 111.980469 156.429688 111.511719 156.605469 111.046875 C 156.640625 110.960938 156.671875 110.871094 156.707031 110.785156 C 156.898438 110.277344 157.089844 109.777344 157.28125 109.285156 C 157.308594 109.210938 157.339844 109.140625 157.363281 109.066406 C 157.5625 108.558594 157.753906 108.058594 157.949219 107.5625 C 157.980469 107.488281 158.011719 107.40625 158.035156 107.332031 C 158.234375 106.828125 158.4375 106.328125 158.628906 105.835938 C 158.648438 105.792969 158.664062 105.746094 158.683594 105.703125 C 158.878906 105.214844 159.074219 104.734375 159.261719 104.257812 C 159.277344 104.214844 159.296875 104.171875 159.3125 104.128906 C 159.503906 103.65625 159.691406 103.195312 159.875 102.742188 C 159.894531 102.703125 159.90625 102.664062 159.925781 102.625 C 160.109375 102.171875 160.292969 101.730469 160.472656 101.292969 C 160.488281 101.265625 160.5 101.238281 160.507812 101.207031 C 160.691406 100.757812 160.878906 100.324219 161.054688 99.902344 C 161.054688 99.898438 161.054688 99.898438 161.058594 99.894531 C 162.453125 96.578125 163.566406 94.074219 164.117188 92.855469 C 164.320312 92.40625 164.296875 91.878906 164.035156 91.460938 C 163.738281 90.996094 163.398438 90.222656 163.371094 89.113281 C 164.085938 90.292969 165.867188 91.433594 167.648438 91.886719 C 169.753906 92.429688 172.773438 93.082031 172.464844 93.832031 C 172.15625 94.582031 165.191406 92.78125 163.605469 96.976562 C 162.519531 99.851562 161.617188 100.375 159.238281 106.324219 C 155.027344 120.023438 146.953125 146.800781 148.238281 150.375 C 149.898438 154.972656 154.582031 155.648438 154.660156 156.886719 C 154.738281 158.125 152.4375 157.121094 146.425781 157.523438 C 139.53125 157.992188 135.28125 161.011719 130.753906 170.113281 C 124.960938 186.082031 116.039062 231.984375 116.039062 231.984375 L 115.976562 231.976562 C 115.441406 236.746094 115.703125 239.890625 117.5625 243.882812 C 120.515625 250.226562 125.339844 253.160156 135.1875 255.683594 C 145.039062 258.207031 151.6875 258.8125 158.660156 251.371094 C 165.632812 243.929688 171.183594 223.039062 174.8125 210.039062 C 178.4375 197.046875 181.71875 185.742188 180.070312 174.839844 C 178.425781 163.9375 164.648438 161.105469 165.179688 159.511719 C 165.371094 158.941406 175.386719 159.730469 177.730469 151.984375 C 179.609375 145.769531 182.316406 130.984375 184.429688 119.601562 C 184.417969 119.550781 184.410156 119.492188 184.402344 119.445312 C 184.386719 119.363281 184.375 119.285156 184.363281 119.207031 C 184.335938 119.054688 184.308594 118.90625 184.289062 118.761719 C 184.277344 118.707031 184.269531 118.652344 184.261719 118.597656 C 184.195312 118.207031 184.136719 117.84375 184.085938 117.519531 C 184.082031 117.492188 184.078125 117.46875 184.074219 117.441406 C 184.003906 117.015625 183.945312 116.648438 183.898438 116.351562 C 183.820312 115.863281 183.515625 115.4375 183.0625 115.238281 C 182.558594 115.007812 181.855469 114.546875 181.222656 113.632812 C 182.46875 114.230469 184.578125 114.210938 186.320312 113.613281 C 188.375 112.910156 191.265625 111.804688 191.414062 112.597656 C 191.484375 112.957031 190.109375 113.632812 188.683594 114.679688 L 189.257812 114.449219 C 189.257812 114.449219 186.621094 120.445312 197.921875 151.738281 C 203.585938 167.417969 205.777344 172.851562 214.859375 171.839844 C 224.4375 170.773438 211.433594 175.894531 208.566406 184.488281 C 205.699219 193.085938 203.652344 198.40625 210.203125 217.242188 C 216.757812 236.074219 217.875 239.347656 222.789062 247.945312 C 227.507812 256.195312 232.289062 271.460938 256.621094 264.710938 C 264.285156 261.773438 269.59375 258.386719 271.328125 252.503906 C 271.421875 252.179688 271.429688 251.824219 271.46875 251.472656 C 272.460938 253.863281 273.355469 255.855469 274.050781 258.878906 C 274.902344 262.535156 274.765625 264.800781 273.84375 266.007812 Z M 184.925781 122.347656 C 184.925781 122.335938 184.917969 122.328125 184.917969 122.320312 C 184.902344 122.230469 184.890625 122.148438 184.875 122.066406 C 184.875 122.054688 184.871094 122.042969 184.871094 122.035156 C 184.886719 122.136719 184.90625 122.242188 184.925781 122.347656 Z M 185.070312 123.148438 C 185.054688 123.066406 185.039062 122.984375 185.023438 122.898438 C 185.019531 122.878906 185.015625 122.851562 185.011719 122.828125 C 185.03125 122.933594 185.046875 123.042969 185.070312 123.148438 Z M 179.234375 105.988281 C 180.332031 106.300781 180.488281 106.617188 180.171875 107.953125 C 179.859375 109.285156 179.546875 110.464844 180.722656 112.5 C 180.410156 109.558594 181.480469 106.695312 183.015625 105.945312 C 185.328125 105.320312 191.035156 102.691406 190.828125 102.222656 C 190.441406 101.355469 183.453125 104.199219 182.183594 104.71875 C 180.636719 105.128906 179.539062 105.285156 179.070312 103.953125 C 178.601562 102.617188 179.460938 100.65625 183.308594 99.324219 C 183.308594 99.324219 178.996094 100.339844 178.210938 101.988281 C 177.429688 103.636719 178.136719 105.675781 179.234375 105.988281 Z M 156.375 174.25 C 146.011719 171.59375 135.460938 177.839844 132.804688 188.203125 L 126.578125 212.492188 C 123.921875 222.855469 130.164062 233.40625 140.527344 236.0625 C 150.890625 238.71875 161.445312 232.476562 164.101562 222.113281 L 170.328125 197.824219 C 172.984375 187.460938 166.738281 176.90625 156.375 174.25 Z M 177.683594 84.832031 C 177.832031 83.902344 170.433594 82.441406 169.085938 82.183594 C 167.738281 81.925781 167.488281 82.570312 168.351562 83.320312 C 169.222656 84.070312 177.585938 85.421875 177.683594 84.832031 Z M 177.683594 84.832031 " fill-opacity="1" fill-rule="nonzero"/></g><path fill="#ffffff" d="M 156.984375 171.902344 C 145.292969 168.902344 133.339844 175.976562 130.34375 187.667969 L 124.164062 211.769531 C 122.707031 217.433594 123.550781 223.324219 126.527344 228.355469 C 129.507812 233.386719 134.265625 236.957031 139.925781 238.414062 C 141.742188 238.878906 143.574219 239.105469 145.402344 239.105469 C 149.277344 239.105469 153.09375 238.070312 156.511719 236.046875 C 161.546875 233.066406 165.117188 228.308594 166.570312 222.644531 L 172.75 198.539062 C 175.742188 186.851562 168.671875 174.898438 156.984375 171.902344 Z M 171.757812 198.285156 L 165.578125 222.386719 C 164.191406 227.789062 160.785156 232.324219 155.988281 235.164062 C 151.195312 238 145.578125 238.804688 140.175781 237.417969 C 134.777344 236.035156 130.238281 232.632812 127.402344 227.832031 C 124.5625 223.039062 123.761719 217.421875 125.144531 212.019531 L 131.328125 187.917969 C 133.742188 178.503906 142.246094 172.230469 151.546875 172.230469 C 153.257812 172.230469 154.996094 172.441406 156.726562 172.890625 C 167.871094 175.746094 174.617188 187.140625 171.757812 198.285156 Z M 162.269531 198.203125 L 157.21875 217.894531 C 155.871094 223.152344 151.121094 226.65625 145.929688 226.65625 C 144.972656 226.65625 144.003906 226.539062 143.035156 226.292969 C 136.808594 224.695312 133.046875 218.332031 134.640625 212.109375 L 139.691406 192.414062 C 141.289062 186.191406 147.652344 182.421875 153.875 184.015625 C 160.101562 185.617188 163.863281 191.980469 162.269531 198.203125 Z M 176.046875 106.96875 C 176.445312 107.644531 176.558594 108.4375 176.367188 109.203125 L 168.4375 140.117188 C 168.242188 140.882812 167.761719 141.523438 167.085938 141.921875 C 166.625 142.195312 166.113281 142.335938 165.589844 142.335938 C 165.34375 142.335938 165.097656 142.304688 164.851562 142.242188 C 163.273438 141.839844 162.328125 140.230469 162.726562 138.65625 L 170.652344 107.742188 C 170.851562 106.976562 171.328125 106.335938 172.003906 105.9375 C 172.679688 105.535156 173.476562 105.421875 174.242188 105.617188 C 175.003906 105.808594 175.644531 106.289062 176.046875 106.96875 Z M 261.257812 221.722656 L 253.214844 198.171875 C 249.3125 186.75 236.847656 180.632812 225.425781 184.53125 C 219.890625 186.417969 215.425781 190.355469 212.851562 195.601562 C 210.273438 200.847656 209.898438 206.785156 211.789062 212.320312 L 219.835938 235.871094 C 222.941406 244.957031 231.457031 250.6875 240.566406 250.6875 C 242.90625 250.6875 245.285156 250.308594 247.621094 249.507812 C 253.15625 247.621094 257.621094 243.6875 260.195312 238.4375 C 262.769531 233.191406 263.144531 227.253906 261.257812 221.722656 Z M 259.277344 237.992188 C 256.824219 242.996094 252.5625 246.742188 247.289062 248.542969 C 236.398438 252.261719 224.515625 246.429688 220.796875 235.539062 L 212.75 211.988281 C 209.03125 201.101562 214.863281 189.21875 225.753906 185.496094 C 227.980469 184.738281 230.25 184.378906 232.480469 184.378906 C 241.164062 184.378906 249.289062 189.839844 252.246094 198.503906 L 260.292969 222.054688 C 262.097656 227.324219 261.738281 232.984375 259.277344 237.992188 Z M 252.375 222.257812 C 254.453125 228.339844 251.191406 234.972656 245.109375 237.050781 C 243.878906 237.472656 242.605469 237.683594 241.335938 237.683594 C 239.578125 237.683594 237.832031 237.285156 236.210938 236.484375 C 233.417969 235.113281 231.324219 232.734375 230.316406 229.789062 L 223.742188 210.550781 C 222.738281 207.601562 222.941406 204.441406 224.308594 201.648438 C 225.679688 198.855469 228.058594 196.761719 231.007812 195.753906 C 237.089844 193.679688 243.722656 196.9375 245.800781 203.019531 Z M 212.382812 153.511719 L 201.359375 123.558594 C 200.796875 122.035156 201.585938 120.335938 203.109375 119.773438 C 204.632812 119.210938 206.332031 119.996094 206.894531 121.519531 L 217.914062 151.472656 C 218.1875 152.210938 218.15625 153.015625 217.824219 153.726562 C 217.496094 154.441406 216.90625 154.988281 216.164062 155.253906 C 215.832031 155.378906 215.488281 155.4375 215.144531 155.4375 C 214.722656 155.4375 214.304688 155.347656 213.910156 155.167969 C 213.199219 154.84375 212.65625 154.253906 212.382812 153.511719 Z M 212.382812 153.511719 " fill-opacity="1" fill-rule="nonzero"/><path fill="#ffc533" d="M 259.699219 217.113281 L 218.296875 231.253906 L 213.910156 218.414062 L 255.3125 204.273438 Z M 167.808594 93.21875 C 169.175781 93.21875 170.289062 92.535156 170.289062 91.691406 C 170.289062 90.847656 169.175781 90.164062 167.808594 90.164062 C 166.4375 90.164062 165.324219 90.847656 165.324219 91.691406 C 165.324219 92.535156 166.4375 93.21875 167.808594 93.21875 Z M 125.410156 207.070312 L 167.785156 217.9375 L 171.15625 204.792969 L 128.78125 193.929688 Z M 178.558594 70.929688 C 179.324219 70.929688 179.949219 70.304688 179.949219 69.535156 C 179.949219 68.769531 179.324219 68.144531 178.558594 68.144531 C 177.789062 68.144531 177.164062 68.769531 177.164062 69.535156 C 177.164062 70.304688 177.789062 70.929688 178.558594 70.929688 Z M 191.800781 65.722656 C 189.292969 68.234375 190.339844 74.34375 190.339844 74.34375 C 190.339844 74.34375 192.386719 70.539062 193.605469 68.964844 C 194.828125 67.394531 194.304688 63.203125 191.800781 65.722656 Z M 179.171875 76.019531 C 179.773438 77.339844 182.699219 76.644531 184.300781 81.148438 L 189.210938 82.40625 C 189.207031 82.28125 189.203125 82.152344 189.191406 82.03125 C 188.90625 76.875 187.617188 70.578125 186.328125 68.574219 C 185.042969 66.574219 181.832031 68.792969 184.46875 70.867188 C 188.476562 74.015625 185.753906 79.027344 182.890625 75.308594 C 180.027344 71.582031 178.457031 74.445312 179.171875 76.019531 Z M 185.359375 93.246094 C 182.4375 90.941406 180.519531 89.730469 176.375 89.917969 C 171.855469 90.117188 171.757812 91.453125 174.53125 91.609375 C 177.296875 91.761719 178.992188 95.453125 177.914062 95.453125 C 176.839844 95.453125 172.53125 94.53125 170.378906 94.070312 C 168.230469 93.609375 168.691406 97.304688 172.6875 96.53125 C 176.25 95.84375 179.816406 99.4375 180.546875 100.222656 L 189.25 97.25 C 189.101562 97.007812 188.054688 95.375 185.359375 93.246094 Z M 185.359375 93.246094 " fill-opacity="1" fill-rule="nonzero"/><path fill="#ff914d" d="M 259.699219 217.113281 L 233.316406 226.09375 C 240.511719 223.214844 247.535156 216.738281 253.652344 204.859375 L 255.308594 204.273438 Z M 144.253906 211.90625 L 167.785156 217.941406 L 171.15625 204.796875 L 160.027344 201.941406 C 154.980469 205.390625 149.527344 208.789062 144.253906 211.90625 Z M 184.058594 96.300781 C 181.515625 95.617188 180.933594 97.671875 177.609375 96.890625 C 176.777344 96.695312 176.339844 96.78125 176.144531 97.015625 C 178.3125 97.941406 180.058594 99.703125 180.546875 100.226562 L 189.25 97.253906 C 189.210938 97.1875 189.109375 97.03125 188.933594 96.789062 C 187.511719 96.785156 185.527344 96.695312 184.058594 96.300781 Z M 184.296875 81.148438 L 188.15625 82.136719 C 187.691406 80.851562 186.800781 79.070312 185.332031 78.707031 C 182.996094 78.121094 180.65625 76.375 180.644531 77.039062 C 181.785156 77.554688 183.300781 78.335938 184.296875 81.148438 Z M 192.421875 67.589844 C 192.019531 67.445312 191.523438 67.816406 191.304688 68.414062 C 191.089844 69.011719 191.238281 69.613281 191.632812 69.757812 C 192.035156 69.902344 192.53125 69.53125 192.75 68.933594 C 192.964844 68.339844 192.816406 67.730469 192.421875 67.589844 Z M 168.328125 92.648438 C 168.625 92.753906 168.992188 92.480469 169.15625 92.039062 C 169.3125 91.59375 169.203125 91.152344 168.910156 91.046875 C 168.613281 90.941406 168.246094 91.210938 168.082031 91.65625 C 167.925781 92.097656 168.035156 92.542969 168.328125 92.648438 Z M 168.328125 92.648438 " fill-opacity="1" fill-rule="nonzero"/><path stroke-linecap="butt" transform="matrix(0.316709, 0, 0, 0.316709, 15.270015, 145.507826)" fill="none" stroke-linejoin="miter" d="M 72.583318 236.884335 C 105.144745 267.583347 110.731989 212.19192 110.485312 193.395096 C 130.774534 200.03072 144.539137 190.607641 147.832282 170.010071 C 151.359769 148.179115 137.656836 145.379326 119.353367 143.837591 C 110.485312 143.344236 101.802265 138.497024 108.931244 128.383248 C 113.519445 121.747624 126.741357 124.300735 135.116058 124.79409 C 151.113092 126.335825 186.967663 125.040768 177.791261 98.115922 C 169.169883 72.745143 121.894145 77.024997 101.555587 75.79161 C 62.161195 73.744187 68.303464 110.585468 67.255084 139.804415 L 65.762686 194.147462 C 65.269331 208.158743 61.174485 226.215534 72.583318 236.884335 Z M 176.286528 85.646375 C 186.708652 120.760914 233.417031 89.741221 225.289009 64.062096 C 229.383855 51.345872 206.997874 46.572663 199.116529 48.866764 C 184.414551 52.89994 171.945005 70.69772 176.286528 85.646375 Z M 209.538652 242.459246 C 217.17332 236.884335 218.221699 227.448921 219.960775 218.827544 C 225.54802 190.360963 231.936967 150.473216 219.220743 123.055014 C 213.38682 110.585468 198.623174 101.96409 187.707695 113.372923 C 179.82635 121.747624 179.82635 140.051092 178.827306 150.473216 C 177.038895 173.056538 171.45165 211.451887 181.380418 232.789489 C 186.708652 243.951645 198.376496 250.340591 209.538652 242.459246 Z M 335.356498 240.917512 C 352.352576 237.871045 365.0688 208.911109 345.470274 199.475696 C 333.309075 193.395096 316.498005 205.12461 305.582527 199.784043 C 295.160403 194.702487 308.123305 176.892373 312.958183 169.023362 C 327.968507 144.392616 362.528022 109.845435 330.01593 83.105597 C 310.170728 66.602874 250.1911 59.535564 233.441699 82.118887 C 225.313676 93.034366 222.526221 109.537089 235.242445 117.973458 C 248.452023 126.841513 275.623547 121.747624 290.387194 121.007591 C 272.083726 146.625047 200.682931 214.239343 257.566756 240.670834 C 278.164325 250.340591 313.710549 244.753346 335.356498 240.917512 Z M 464.171475 240.917512 C 481.167553 237.871045 493.883777 208.911109 474.285252 199.475696 C 462.124052 193.395096 445.312982 205.12461 434.397504 199.784043 C 423.975381 194.702487 436.938282 176.892373 441.785494 169.023362 C 456.795819 144.392616 491.342999 109.845435 458.843242 83.105597 C 438.985705 66.602874 379.006077 59.535564 362.256676 82.118887 C 354.128654 93.034366 351.341198 109.537089 364.057422 117.973458 C 377.267001 126.841513 404.438525 121.747624 419.202171 121.007591 C 400.898703 146.625047 329.497908 214.239343 386.381733 240.670834 C 406.979303 250.340591 442.525527 244.753346 464.171475 240.917512 Z M 535.79428 245.505713 C 557.390893 243.211612 580.516906 236.070299 593.738819 217.779164 C 607.68843 198.229975 607.935107 164.928516 589.89065 147.68576 C 605.147652 134.21717 619.109597 110.092113 610.734897 89.247866 C 600.867798 64.062096 569.108073 63.815419 546.463081 64.555451 C 529.467003 64.863798 499.939709 61.027963 489.517586 77.777364 C 481.142885 91.788644 484.991054 112.879568 485.484409 128.383248 C 486.236775 157.602195 482.696953 190.854318 489.517586 219.320899 C 494.858153 242.964935 513.963323 247.799813 535.79428 245.505713 Z M 524.878802 129.382291 C 523.583745 128.383248 524.385447 113.372923 524.878802 112.386213 C 529.158656 102.457445 568.553048 108.04469 561.226727 120.514236 C 557.131881 127.334868 547.215447 128.383248 540.135803 129.135614 C 538.594069 129.382291 526.3712 130.628013 524.878802 129.382291 Z M 523.324733 207.665388 C 523.583745 200.536409 520.537278 184.033686 523.583745 178.384772 C 526.3712 173.364885 530.959401 173.056538 538.594069 172.797527 C 548.510504 172.550849 562.965804 175.103961 559.684993 188.560218 C 556.145171 203.077187 535.547602 206.357997 523.324733 207.665388 Z M 645.57809 240.670834 C 666.11399 251.339635 702.955271 245.259035 717.965595 227.448921 C 737.009096 205.12461 735.529031 160.401984 734.714995 132.663102 C 734.961673 121.994301 735.27002 107.292324 726.340295 99.66999 C 715.178139 90.234576 702.708593 98.362599 698.922094 110.585468 C 694.827248 124.041724 700.167815 142.59187 700.167815 156.800493 C 700.167815 170.824107 700.414493 186.574464 694.087215 199.475696 C 686.958236 213.745988 674.550359 209.897819 668.901445 195.935874 C 663.067523 180.92555 665.361623 161.882049 665.608301 146.131692 C 666.11399 127.828223 670.455513 86.707088 642.223276 86.460411 C 606.430375 86.460411 613.016663 139.804415 615.557441 161.882049 C 618.899921 188.560218 617.851542 226.462212 645.57809 240.670834 Z M 844.017784 240.917512 C 861.013862 237.871045 873.730086 208.911109 854.131561 199.475696 C 841.970361 193.395096 825.159291 205.12461 814.243813 199.784043 C 803.82169 194.702487 816.784591 176.892373 821.631804 169.023362 C 836.642128 144.392616 871.189308 109.845435 838.689551 83.105597 C 818.832014 66.602874 758.852386 59.535564 742.102986 82.118887 C 733.974963 93.034366 731.187507 109.537089 743.903731 117.973458 C 757.11331 126.841513 784.284834 121.747624 799.048481 121.007591 C 780.745012 146.625047 709.344217 214.239343 766.228043 240.670834 C 786.825612 250.340591 822.371836 244.753346 844.017784 240.917512 Z M 972.832762 240.917512 C 989.82884 237.871045 1002.545063 208.911109 982.946538 199.475696 C 970.785339 193.395096 953.974269 205.12461 943.05879 199.784043 C 932.636667 194.702487 945.599568 176.892373 950.446781 169.023362 C 965.457105 144.392616 1000.004285 109.845435 967.504528 83.105597 C 947.646991 66.602874 887.667364 59.535564 870.917963 82.118887 C 862.78994 93.034366 860.002485 109.537089 872.718709 117.973458 C 885.928287 126.841513 913.099811 121.747624 927.863458 121.007591 C 909.559989 146.625047 838.171528 214.239343 895.055354 240.670834 C 915.640589 250.340591 951.186813 244.753346 972.832762 240.917512 Z M 994.158029 238.623411 C 1002.286052 258.221936 1032.800056 233.776199 1019.590477 221.368322 C 1009.415031 206.11132 987.830752 223.674756 994.158029 238.623411 Z M 994.158029 238.623411 " stroke="#ffffff" stroke-width="19.05645" stroke-opacity="1" stroke-miterlimit="4"/><g fill="#446a00" fill-opacity="1"><g transform="translate(34.564527, 223.418264)"><g><path d="M 3.703125 -2.890625 C 14 6.84375 15.765625 -10.703125 15.6875 -16.65625 C 22.125 -14.5625 26.46875 -17.546875 27.515625 -24.0625 C 28.640625 -30.984375 24.296875 -31.859375 18.5 -32.34375 C 15.6875 -32.515625 12.953125 -34.03125 15.203125 -37.25 C 16.65625 -39.34375 20.84375 -38.546875 23.5 -38.390625 C 28.5625 -37.90625 39.90625 -38.296875 37.015625 -46.828125 C 34.28125 -54.875 19.3125 -53.515625 12.875 -53.90625 C 0.40625 -54.5625 2.328125 -42.890625 2.015625 -33.640625 L 1.53125 -16.421875 C 1.375 -11.984375 0.078125 -6.28125 3.703125 -2.890625 Z M 3.703125 -2.890625 "/></g></g></g><g fill="#446a00" fill-opacity="1"><g transform="translate(69.648877, 223.418264)"><g><path d="M 1.453125 -50.78125 C 4.75 -39.671875 19.546875 -49.484375 16.984375 -57.609375 C 18.265625 -61.640625 11.1875 -63.171875 8.6875 -62.4375 C 4.015625 -61.15625 0.078125 -55.515625 1.453125 -50.78125 Z M 11.984375 -1.125 C 14.40625 -2.890625 14.71875 -5.875 15.28125 -8.609375 C 17.0625 -17.625 19.078125 -30.25 15.046875 -38.953125 C 13.203125 -42.890625 8.53125 -45.625 5.0625 -42 C 2.578125 -39.34375 2.578125 -33.5625 2.25 -30.25 C 1.6875 -23.09375 -0.078125 -10.9375 3.0625 -4.1875 C 4.75 -0.640625 8.453125 1.375 11.984375 -1.125 Z M 11.984375 -1.125 "/></g></g></g><g fill="#446a00" fill-opacity="1"><g transform="translate(85.823041, 223.418264)"><g><path d="M 35.640625 -1.609375 C 41.03125 -2.578125 45.0625 -11.75 38.859375 -14.71875 C 35 -16.65625 29.6875 -12.953125 26.234375 -14.640625 C 22.9375 -16.25 27.03125 -21.890625 28.5625 -24.375 C 33.3125 -32.1875 44.25 -43.125 33.953125 -51.578125 C 27.6875 -56.8125 8.6875 -59.0625 3.375 -51.90625 C 0.796875 -48.4375 -0.078125 -43.21875 3.9375 -40.5625 C 8.125 -37.734375 16.734375 -39.34375 21.40625 -39.59375 C 15.609375 -31.46875 -7 -10.0625 11.03125 -1.6875 C 17.546875 1.375 28.8125 -0.40625 35.640625 -1.609375 Z M 35.640625 -1.609375 "/></g></g></g><g fill="#446a00" fill-opacity="1"><g transform="translate(126.620683, 223.418264)"><g><path d="M 35.640625 -1.609375 C 41.03125 -2.578125 45.0625 -11.75 38.859375 -14.71875 C 35 -16.65625 29.6875 -12.953125 26.234375 -14.640625 C 22.9375 -16.25 27.03125 -21.890625 28.5625 -24.375 C 33.3125 -32.1875 44.25 -43.125 33.953125 -51.578125 C 27.6875 -56.8125 8.6875 -59.0625 3.375 -51.90625 C 0.796875 -48.4375 -0.078125 -43.21875 3.9375 -40.5625 C 8.125 -37.734375 16.734375 -39.34375 21.40625 -39.59375 C 15.609375 -31.46875 -7 -10.0625 11.03125 -1.6875 C 17.546875 1.375 28.8125 -0.40625 35.640625 -1.609375 Z M 35.640625 -1.609375 "/></g></g></g><g fill="#446a00" fill-opacity="1"><g transform="translate(167.41833, 223.418264)"><g><path d="M 17.546875 -0.15625 C 24.375 -0.890625 31.703125 -3.140625 35.890625 -8.9375 C 40.3125 -15.125 40.390625 -25.671875 34.6875 -31.140625 C 39.515625 -35.40625 43.9375 -43.046875 41.28125 -49.65625 C 38.140625 -57.609375 28.078125 -57.703125 20.921875 -57.453125 C 15.53125 -57.375 6.203125 -58.578125 2.890625 -53.265625 C 0.234375 -48.84375 1.453125 -42.171875 1.609375 -37.25 C 1.84375 -28 0.71875 -17.46875 2.890625 -8.453125 C 4.59375 -0.96875 10.625 0.5625 17.546875 -0.15625 Z M 14.078125 -36.9375 C 13.671875 -37.25 13.921875 -42 14.078125 -42.328125 C 15.453125 -45.46875 27.921875 -43.6875 25.59375 -39.75 C 24.296875 -37.578125 21.15625 -37.25 18.90625 -37.015625 C 18.421875 -36.9375 14.5625 -36.53125 14.078125 -36.9375 Z M 13.59375 -12.15625 C 13.671875 -14.40625 12.71875 -19.640625 13.671875 -21.40625 C 14.5625 -23.015625 16.015625 -23.09375 18.421875 -23.171875 C 21.5625 -23.25 26.15625 -22.453125 25.109375 -18.1875 C 23.984375 -13.59375 17.46875 -12.546875 13.59375 -12.15625 Z M 13.59375 -12.15625 "/></g></g></g><g fill="#446a00" fill-opacity="1"><g transform="translate(208.296439, 223.418264)"><g><path d="M 11.421875 -1.6875 C 17.9375 1.6875 29.609375 -0.234375 34.359375 -5.875 C 40.390625 -12.953125 39.90625 -27.125 39.671875 -35.890625 C 39.75 -39.265625 39.828125 -43.9375 37.015625 -46.34375 C 33.46875 -49.328125 29.53125 -46.75 28.328125 -42.890625 C 27.03125 -38.625 28.734375 -32.75 28.734375 -28.25 C 28.734375 -23.8125 28.8125 -18.828125 26.796875 -14.71875 C 24.546875 -10.21875 20.59375 -11.421875 18.828125 -15.859375 C 16.984375 -20.59375 17.703125 -26.640625 17.78125 -31.625 C 17.9375 -37.421875 19.3125 -50.453125 10.375 -50.53125 C -0.96875 -50.53125 1.125 -33.640625 1.9375 -26.640625 C 2.984375 -18.1875 2.65625 -6.203125 11.421875 -1.6875 Z M 11.421875 -1.6875 "/></g></g></g><g fill="#446a00" fill-opacity="1"><g transform="translate(246.921417, 223.418264)"><g><path d="M 35.640625 -1.609375 C 41.03125 -2.578125 45.0625 -11.75 38.859375 -14.71875 C 35 -16.65625 29.6875 -12.953125 26.234375 -14.640625 C 22.9375 -16.25 27.03125 -21.890625 28.5625 -24.375 C 33.3125 -32.1875 44.25 -43.125 33.953125 -51.578125 C 27.6875 -56.8125 8.6875 -59.0625 3.375 -51.90625 C 0.796875 -48.4375 -0.078125 -43.21875 3.9375 -40.5625 C 8.125 -37.734375 16.734375 -39.34375 21.40625 -39.59375 C 15.609375 -31.46875 -7 -10.0625 11.03125 -1.6875 C 17.546875 1.375 28.8125 -0.40625 35.640625 -1.609375 Z M 35.640625 -1.609375 "/></g></g></g><g fill="#446a00" fill-opacity="1"><g transform="translate(287.719054, 223.418264)"><g><path d="M 35.640625 -1.609375 C 41.03125 -2.578125 45.0625 -11.75 38.859375 -14.71875 C 35 -16.65625 29.6875 -12.953125 26.234375 -14.640625 C 22.9375 -16.25 27.03125 -21.890625 28.5625 -24.375 C 33.3125 -32.1875 44.25 -43.125 33.953125 -51.578125 C 27.6875 -56.8125 8.6875 -59.0625 3.375 -51.90625 C 0.796875 -48.4375 -0.078125 -43.21875 3.9375 -40.5625 C 8.125 -37.734375 16.734375 -39.34375 21.40625 -39.59375 C 15.609375 -31.46875 -7 -10.0625 11.03125 -1.6875 C 17.546875 1.375 28.8125 -0.40625 35.640625 -1.609375 Z M 35.640625 -1.609375 "/></g></g></g><g fill="#446a00" fill-opacity="1"><g transform="translate(328.516691, 223.418264)"><g><path d="M 1.609375 -2.328125 C 4.1875 3.859375 13.84375 -3.859375 9.65625 -7.8125 C 6.4375 -12.640625 -0.40625 -7.078125 1.609375 -2.328125 Z M 1.609375 -2.328125 "/></g></g></g></svg>