<svg xmlns="http://www.w3.org/2000/svg" xmlns:xlink="http://www.w3.org/1999/xlink" width="500" zoomAndPan="magnify" viewBox="0 0 375 374.999991" height="500" preserveAspectRatio="xMidYMid meet" version="1.0"><defs><g/><clipPath id="1944ccb97c"><path d="M 78 77.480469 L 297 77.480469 L 297 297.230469 L 78 297.230469 Z M 78 77.480469 " clip-rule="nonzero"/></clipPath><clipPath id="a08333bbc7"><path d="M 53.925781 161 L 94 161 L 94 173 L 53.925781 173 Z M 53.925781 161 " clip-rule="nonzero"/></clipPath><clipPath id="e07ee26c6e"><path d="M 281 161 L 320.925781 161 L 320.925781 173 L 281 173 Z M 281 161 " clip-rule="nonzero"/></clipPath></defs><rect x="-37.5" width="450" fill="#ffffff" y="-37.499999" height="449.999989" fill-opacity="1"/><rect x="-37.5" width="450" fill="#7d93f8" y="-37.499999" height="449.999989" fill-opacity="1"/><g clip-path="url(#1944ccb97c)"><path fill="#000000" d="M 286.023438 236.351562 C 268.035156 272.566406 230.675781 297.457031 187.496094 297.457031 C 144.316406 297.457031 106.960938 272.566406 88.96875 236.351562 L 105.777344 236.351562 C 122.410156 264.113281 152.78125 282.699219 187.496094 282.699219 C 222.214844 282.699219 252.585938 264.113281 269.214844 236.351562 Z M 187.496094 77.539062 C 243.066406 77.539062 289 118.765625 296.40625 172.300781 L 281.484375 172.300781 C 274.207031 126.949219 234.898438 92.300781 187.496094 92.300781 C 140.09375 92.300781 100.789062 126.949219 93.511719 172.300781 L 78.589844 172.300781 C 85.992188 118.765625 131.925781 77.539062 187.496094 77.539062 Z M 187.496094 77.539062 " fill-opacity="1" fill-rule="evenodd"/></g><g clip-path="url(#a08333bbc7)"><path fill="#000000" d="M 93.503906 172.300781 L 53.925781 172.300781 L 93.503906 161.667969 Z M 93.503906 172.300781 " fill-opacity="1" fill-rule="evenodd"/></g><g clip-path="url(#e07ee26c6e)"><path fill="#000000" d="M 281.484375 172.300781 L 321.0625 172.300781 L 281.484375 161.667969 Z M 281.484375 172.300781 " fill-opacity="1" fill-rule="evenodd"/></g><path fill="#000000" d="M 105.777344 236.351562 L 66.199219 236.351562 L 105.777344 246.984375 Z M 105.777344 236.351562 " fill-opacity="1" fill-rule="evenodd"/><path fill="#000000" d="M 269.214844 236.351562 L 308.796875 236.351562 L 269.214844 246.984375 Z M 269.214844 236.351562 " fill-opacity="1" fill-rule="evenodd"/><path fill="#ff914d" d="M 187.496094 160.34375 C 196.863281 160.34375 205.125 165.085938 210.003906 172.300781 L 198.472656 172.300781 C 193.960938 168.960938 188.375 166.984375 182.332031 166.984375 C 175.132812 166.984375 168.585938 169.785156 163.726562 174.359375 C 168.355469 166 177.265625 160.34375 187.496094 160.34375 " fill-opacity="1" fill-rule="evenodd"/><path fill="#ff914d" d="M 226.609375 119.96875 C 228.824219 121.25 229.589844 124.105469 228.3125 126.320312 L 202.046875 171.816406 L 193.992188 167.167969 L 220.257812 121.671875 C 221.535156 119.457031 224.394531 118.691406 226.609375 119.96875 " fill-opacity="1" fill-rule="evenodd"/><path fill="#000000" d="M 185.28125 90.972656 L 187.789062 90.972656 L 187.789062 107.058594 L 185.28125 107.058594 Z M 185.28125 90.972656 " fill-opacity="1" fill-rule="evenodd"/><path fill="#000000" d="M 166.964844 109.726562 L 164.539062 110.375 L 160.375 94.835938 L 162.796875 94.183594 Z M 166.964844 109.726562 " fill-opacity="1" fill-rule="evenodd"/><path fill="#000000" d="M 147.535156 117.691406 L 145.363281 118.945312 L 137.320312 105.011719 L 139.492188 103.757812 Z M 147.535156 117.691406 " fill-opacity="1" fill-rule="evenodd"/><path fill="#000000" d="M 130.824219 130.414062 L 129.050781 132.1875 L 117.679688 120.808594 L 119.453125 119.035156 Z M 130.824219 130.414062 " fill-opacity="1" fill-rule="evenodd"/><path fill="#000000" d="M 117.980469 147.019531 L 116.722656 149.195312 L 102.792969 141.152344 L 104.046875 138.980469 Z M 117.980469 147.019531 " fill-opacity="1" fill-rule="evenodd"/><path fill="#000000" d="M 109.871094 166.394531 L 109.222656 168.816406 L 93.679688 164.65625 L 94.328125 162.230469 Z M 109.871094 166.394531 " fill-opacity="1" fill-rule="evenodd"/><path fill="#000000" d="M 208.601562 109.875 L 206.179688 109.226562 L 210.34375 93.6875 L 212.765625 94.335938 Z M 208.601562 109.875 " fill-opacity="1" fill-rule="evenodd"/><path fill="#000000" d="M 227.984375 117.992188 L 225.808594 116.738281 L 233.851562 102.804688 L 236.023438 104.058594 Z M 227.984375 117.992188 " fill-opacity="1" fill-rule="evenodd"/><path fill="#000000" d="M 244.585938 130.828125 L 242.8125 129.054688 L 254.1875 117.679688 L 255.960938 119.453125 Z M 244.585938 130.828125 " fill-opacity="1" fill-rule="evenodd"/><path fill="#000000" d="M 257.300781 147.53125 L 256.046875 145.359375 L 269.980469 137.320312 L 271.234375 139.492188 Z M 257.300781 147.53125 " fill-opacity="1" fill-rule="evenodd"/><path fill="#000000" d="M 265.273438 166.964844 L 264.625 164.539062 L 280.164062 160.382812 L 280.8125 162.804688 Z M 265.273438 166.964844 " fill-opacity="1" fill-rule="evenodd"/><path fill="#ff914d" d="M 226.613281 123.179688 C 244.148438 133.867188 256.972656 151.523438 261.234375 172.300781 L 259.183594 172.300781 C 254.023438 152.976562 241.363281 136.714844 224.511719 126.824219 Z M 187.496094 112.226562 C 198.503906 112.226562 208.957031 114.59375 218.378906 118.839844 L 216.203125 122.613281 C 207.078125 118.683594 197.027344 116.507812 186.464844 116.507812 C 151.757812 116.507812 122.539062 140 113.835938 171.949219 C 121.003906 137.839844 151.257812 112.226562 187.496094 112.226562 Z M 187.496094 112.226562 " fill-opacity="1" fill-rule="evenodd"/><path fill="#ff914d" d="M 261.648438 244.445312 C 244.558594 266.671875 217.703125 281 187.496094 281 C 157.292969 281 130.4375 266.671875 113.34375 244.445312 C 131.089844 264.894531 157.71875 277.898438 187.496094 277.898438 C 217.273438 277.898438 243.902344 264.894531 261.648438 244.445312 " fill-opacity="1" fill-rule="evenodd"/><g fill="#1a1a1a" fill-opacity="1"><g transform="translate(78.986025, 218.212513)"><g><path d="M 15.5625 0.625 C 22.28125 0.625 27.5625 -3.875 28.796875 -10.59375 L 22.859375 -10.59375 C 21.890625 -7.1875 19.140625 -5 15.5625 -5 C 10.9375 -5 7.484375 -8.65625 7.484375 -13.546875 C 7.484375 -18.4375 10.9375 -22.125 15.5625 -22.125 C 18.984375 -22.125 21.703125 -20.109375 22.828125 -16.921875 L 28.6875 -16.921875 C 27.4375 -23.359375 22.15625 -27.75 15.5625 -27.75 C 7.5625 -27.75 1.515625 -21.625 1.515625 -13.546875 C 1.515625 -5.515625 7.5625 0.625 15.5625 0.625 Z M 15.5625 0.625 "/></g></g></g><g fill="#1a1a1a" fill-opacity="1"><g transform="translate(110.464886, 218.212513)"><g><path d="M 15.984375 0.625 C 24.25 0.625 30.421875 -5.46875 30.421875 -13.578125 C 30.421875 -21.65625 24.25 -27.75 15.984375 -27.75 C 7.6875 -27.75 1.46875 -21.625 1.46875 -13.578125 C 1.46875 -5.515625 7.6875 0.625 15.984375 0.625 Z M 15.984375 -4.921875 C 11.140625 -4.921875 7.453125 -8.6875 7.453125 -13.578125 C 7.453125 -18.46875 11.140625 -22.203125 15.984375 -22.203125 C 20.84375 -22.203125 24.453125 -18.515625 24.453125 -13.578125 C 24.453125 -8.65625 20.84375 -4.921875 15.984375 -4.921875 Z M 15.984375 -4.921875 "/></g></g></g><g fill="#1a1a1a" fill-opacity="1"><g transform="translate(143.962119, 218.212513)"><g><path d="M 14.046875 0.625 C 20.453125 0.625 25.265625 -3.84375 25.265625 -10.203125 L 25.265625 -27.171875 L 19.375 -27.171875 L 19.375 -10.484375 C 19.375 -7.109375 17.15625 -4.921875 14.046875 -4.921875 C 10.90625 -4.921875 8.6875 -7.109375 8.6875 -10.484375 L 8.6875 -27.171875 L 2.796875 -27.171875 L 2.796875 -10.203125 C 2.796875 -3.84375 7.609375 0.625 14.046875 0.625 Z M 14.046875 0.625 "/></g></g></g><g fill="#1a1a1a" fill-opacity="1"><g transform="translate(173.616687, 218.212513)"><g><path d="M 20.296875 -27.171875 L 20.296875 -10.59375 L 8.390625 -27.171875 L 3.109375 -27.171875 L 3.109375 0 L 8.84375 0 L 8.84375 -16.96875 L 21.15625 0 L 26.078125 0 L 26.078125 -27.171875 Z M 20.296875 -27.171875 "/></g></g></g><g fill="#1a1a1a" fill-opacity="1"><g transform="translate(204.358066, 218.212513)"><g><path d="M 21.8125 -27.171875 L 0.8125 -27.171875 L 0.8125 -21.703125 L 8.390625 -21.703125 L 8.390625 0 L 14.25 0 L 14.25 -21.703125 L 21.8125 -21.703125 Z M 21.8125 -27.171875 "/></g></g></g><g fill="#1a1a1a" fill-opacity="1"><g transform="translate(228.578548, 218.212513)"><g><path d="M 14.046875 0.625 C 20.453125 0.625 25.265625 -3.84375 25.265625 -10.203125 L 25.265625 -27.171875 L 19.375 -27.171875 L 19.375 -10.484375 C 19.375 -7.109375 17.15625 -4.921875 14.046875 -4.921875 C 10.90625 -4.921875 8.6875 -7.109375 8.6875 -10.484375 L 8.6875 -27.171875 L 2.796875 -27.171875 L 2.796875 -10.203125 C 2.796875 -3.84375 7.609375 0.625 14.046875 0.625 Z M 14.046875 0.625 "/></g></g></g><g fill="#1a1a1a" fill-opacity="1"><g transform="translate(258.233116, 218.212513)"><g><path d="M 13.546875 -27.171875 L 3.109375 -27.171875 L 3.109375 0 L 8.96875 0 L 8.96875 -8.46875 L 13.546875 -8.46875 C 19.015625 -8.46875 23.125 -12.453125 23.125 -17.8125 C 23.125 -23.171875 18.984375 -27.171875 13.546875 -27.171875 Z M 13.28125 -13.890625 L 8.96875 -13.890625 L 8.96875 -21.703125 L 13.28125 -21.703125 C 15.609375 -21.703125 17.1875 -20.0625 17.1875 -17.8125 C 17.1875 -15.5625 15.609375 -13.890625 13.28125 -13.890625 Z M 13.28125 -13.890625 "/></g></g></g><g fill="#1a1a1a" fill-opacity="1"><g transform="translate(283.928566, 218.212513)"><g><path d="M 3.140625 -8.765625 L 8.890625 -8.765625 L 8.890625 -27.9375 L 3.140625 -27.9375 Z M 3.03125 0 L 9.046875 0 L 9.046875 -6.0625 L 3.03125 -6.0625 Z M 3.03125 0 "/></g></g></g><g fill="#1a1a1a" fill-opacity="1"><g transform="translate(151.37215, 229.445827)"><g><path d="M 4.984375 -4.921875 L 1.578125 -0.84375 L 5.03125 -0.84375 L 5.03125 0 L 0.296875 0 L 0.296875 -0.6875 L 3.71875 -4.75 L 0.40625 -4.75 L 0.40625 -5.59375 L 4.984375 -5.59375 Z M 4.984375 -4.921875 "/></g></g></g><g fill="#1a1a1a" fill-opacity="1"><g transform="translate(158.700176, 229.445827)"><g><path d="M 4.734375 -4.75 L 1.6875 -4.75 L 1.6875 -3.234375 L 4.421875 -3.234375 L 4.421875 -2.390625 L 1.6875 -2.390625 L 1.6875 -0.84375 L 4.828125 -0.84375 L 4.828125 0 L 0.734375 0 L 0.734375 -5.59375 L 4.734375 -5.59375 Z M 4.734375 -4.75 "/></g></g></g><g fill="#1a1a1a" fill-opacity="1"><g transform="translate(165.948206, 229.445827)"><g><path d="M 4.28125 0 L 3.265625 -1.703125 C 3.210938 -1.691406 3.128906 -1.6875 3.015625 -1.6875 L 1.6875 -1.6875 L 1.6875 0 L 0.734375 0 L 0.734375 -5.59375 L 3.015625 -5.59375 C 3.722656 -5.59375 4.273438 -5.425781 4.671875 -5.09375 C 5.066406 -4.757812 5.265625 -4.289062 5.265625 -3.6875 C 5.265625 -3.238281 5.160156 -2.859375 4.953125 -2.546875 C 4.753906 -2.242188 4.472656 -2.019531 4.109375 -1.875 L 5.359375 0 Z M 1.6875 -2.53125 L 3.015625 -2.53125 C 3.921875 -2.53125 4.375 -2.90625 4.375 -3.65625 C 4.375 -4.382812 3.921875 -4.75 3.015625 -4.75 L 1.6875 -4.75 Z M 1.6875 -2.53125 "/></g></g></g><g fill="#1a1a1a" fill-opacity="1"><g transform="translate(173.732236, 229.445827)"><g><path d="M 1.125 -4.8125 C 1.695312 -5.351562 2.398438 -5.625 3.234375 -5.625 C 4.078125 -5.625 4.78125 -5.351562 5.34375 -4.8125 C 5.914062 -4.269531 6.203125 -3.597656 6.203125 -2.796875 C 6.203125 -1.992188 5.914062 -1.316406 5.34375 -0.765625 C 4.78125 -0.222656 4.078125 0.046875 3.234375 0.046875 C 2.398438 0.046875 1.695312 -0.222656 1.125 -0.765625 C 0.550781 -1.316406 0.265625 -1.992188 0.265625 -2.796875 C 0.265625 -3.597656 0.550781 -4.269531 1.125 -4.8125 Z M 3.25 -4.78125 C 2.695312 -4.78125 2.222656 -4.585938 1.828125 -4.203125 C 1.429688 -3.816406 1.234375 -3.347656 1.234375 -2.796875 C 1.234375 -2.242188 1.429688 -1.773438 1.828125 -1.390625 C 2.222656 -1.003906 2.695312 -0.8125 3.25 -0.8125 C 3.800781 -0.8125 4.269531 -1.003906 4.65625 -1.390625 C 5.039062 -1.773438 5.234375 -2.242188 5.234375 -2.796875 C 5.234375 -3.347656 5.039062 -3.816406 4.65625 -4.203125 C 4.269531 -4.585938 3.800781 -4.78125 3.25 -4.78125 Z M 3.25 -4.78125 "/></g></g></g><g fill="#1a1a1a" fill-opacity="1"><g transform="translate(182.212269, 229.445827)"><g/></g></g><g fill="#1a1a1a" fill-opacity="1"><g transform="translate(186.276281, 229.445827)"><g><path d="M 4.5625 -4.75 L 2.78125 -4.75 L 2.78125 0 L 1.84375 0 L 1.84375 -4.75 L 0.078125 -4.75 L 0.078125 -5.59375 L 4.5625 -5.59375 Z M 4.5625 -4.75 "/></g></g></g><g fill="#1a1a1a" fill-opacity="1"><g transform="translate(192.908304, 229.445827)"><g><path d="M 1.125 -4.8125 C 1.695312 -5.351562 2.398438 -5.625 3.234375 -5.625 C 4.078125 -5.625 4.78125 -5.351562 5.34375 -4.8125 C 5.914062 -4.269531 6.203125 -3.597656 6.203125 -2.796875 C 6.203125 -1.992188 5.914062 -1.316406 5.34375 -0.765625 C 4.78125 -0.222656 4.078125 0.046875 3.234375 0.046875 C 2.398438 0.046875 1.695312 -0.222656 1.125 -0.765625 C 0.550781 -1.316406 0.265625 -1.992188 0.265625 -2.796875 C 0.265625 -3.597656 0.550781 -4.269531 1.125 -4.8125 Z M 3.25 -4.78125 C 2.695312 -4.78125 2.222656 -4.585938 1.828125 -4.203125 C 1.429688 -3.816406 1.234375 -3.347656 1.234375 -2.796875 C 1.234375 -2.242188 1.429688 -1.773438 1.828125 -1.390625 C 2.222656 -1.003906 2.695312 -0.8125 3.25 -0.8125 C 3.800781 -0.8125 4.269531 -1.003906 4.65625 -1.390625 C 5.039062 -1.773438 5.234375 -2.242188 5.234375 -2.796875 C 5.234375 -3.347656 5.039062 -3.816406 4.65625 -4.203125 C 4.269531 -4.585938 3.800781 -4.78125 3.25 -4.78125 Z M 3.25 -4.78125 "/></g></g></g><g fill="#1a1a1a" fill-opacity="1"><g transform="translate(201.388337, 229.445827)"><g/></g></g><g fill="#1a1a1a" fill-opacity="1"><g transform="translate(205.452349, 229.445827)"><g><path d="M 2.140625 0 L 1.203125 0 L 1.203125 -4.765625 L 0.109375 -4.765625 L 0.109375 -5.59375 L 2.140625 -5.59375 Z M 2.140625 0 "/></g></g></g><g fill="#1a1a1a" fill-opacity="1"><g transform="translate(210.548363, 229.445827)"><g><path d="M 2.765625 -5.625 C 3.523438 -5.625 4.109375 -5.378906 4.515625 -4.890625 C 4.929688 -4.398438 5.140625 -3.703125 5.140625 -2.796875 C 5.140625 -1.890625 4.929688 -1.191406 4.515625 -0.703125 C 4.109375 -0.210938 3.523438 0.03125 2.765625 0.03125 C 1.992188 0.03125 1.40625 -0.210938 1 -0.703125 C 0.59375 -1.191406 0.390625 -1.890625 0.390625 -2.796875 C 0.390625 -3.703125 0.59375 -4.398438 1 -4.890625 C 1.40625 -5.378906 1.992188 -5.625 2.765625 -5.625 Z M 2.765625 -4.875 C 1.828125 -4.875 1.359375 -4.179688 1.359375 -2.796875 C 1.359375 -1.410156 1.828125 -0.71875 2.765625 -0.71875 C 3.703125 -0.71875 4.171875 -1.410156 4.171875 -2.796875 C 4.171875 -4.179688 3.703125 -4.875 2.765625 -4.875 Z M 2.765625 -4.875 "/></g></g></g><g fill="#1a1a1a" fill-opacity="1"><g transform="translate(218.076391, 229.445827)"><g><path d="M 2.765625 -5.625 C 3.523438 -5.625 4.109375 -5.378906 4.515625 -4.890625 C 4.929688 -4.398438 5.140625 -3.703125 5.140625 -2.796875 C 5.140625 -1.890625 4.929688 -1.191406 4.515625 -0.703125 C 4.109375 -0.210938 3.523438 0.03125 2.765625 0.03125 C 1.992188 0.03125 1.40625 -0.210938 1 -0.703125 C 0.59375 -1.191406 0.390625 -1.890625 0.390625 -2.796875 C 0.390625 -3.703125 0.59375 -4.398438 1 -4.890625 C 1.40625 -5.378906 1.992188 -5.625 2.765625 -5.625 Z M 2.765625 -4.875 C 1.828125 -4.875 1.359375 -4.179688 1.359375 -2.796875 C 1.359375 -1.410156 1.828125 -0.71875 2.765625 -0.71875 C 3.703125 -0.71875 4.171875 -1.410156 4.171875 -2.796875 C 4.171875 -4.179688 3.703125 -4.875 2.765625 -4.875 Z M 2.765625 -4.875 "/></g></g></g></svg>