<svg xmlns="http://www.w3.org/2000/svg" xmlns:xlink="http://www.w3.org/1999/xlink" width="500" zoomAndPan="magnify" viewBox="0 0 375 374.999991" height="500" preserveAspectRatio="xMidYMid meet" version="1.0"><defs><g/><clipPath id="7745ba1a04"><path d="M 93 77.316406 L 282.914062 77.316406 L 282.914062 218.316406 L 93 218.316406 Z M 93 77.316406 " clip-rule="nonzero"/></clipPath></defs><rect x="-37.5" width="450" fill="#ffffff" y="-37.499999" height="449.999989" fill-opacity="1"/><rect x="-37.5" width="450" fill="#ededed" y="-37.499999" height="449.999989" fill-opacity="1"/><g clip-path="url(#7745ba1a04)"><path fill="#3161a2" d="M 282.238281 179.699219 C 281.546875 174.738281 279.238281 170.582031 276.46875 166.429688 C 269.082031 155.695312 259.734375 146.351562 249.003906 138.964844 C 247.964844 138.15625 246.925781 137.117188 246.234375 136.078125 C 242.3125 131.003906 238.386719 125.808594 234.347656 120.730469 C 232.617188 118.65625 230.65625 116.808594 228.808594 114.730469 C 234.117188 107.921875 240.8125 102.382812 248.542969 98.460938 C 249.234375 98.113281 249.582031 97.421875 249.695312 96.730469 C 249.582031 96.039062 249.121094 95.34375 248.425781 95.113281 C 242.773438 93.84375 237.234375 92.230469 231.578125 91.652344 C 221.078125 90.5 211.269531 93.730469 201.921875 98 C 200.652344 98.691406 199.152344 98.691406 197.882812 98.113281 C 182.882812 92.34375 167.765625 87.035156 151.957031 83.691406 C 139.261719 81.152344 126.570312 79.535156 113.644531 78.613281 C 107.992188 77.921875 102.222656 77.34375 96.683594 79.074219 C 92.875 80.226562 92.414062 81.960938 94.027344 84.730469 C 96.566406 89.460938 99.335938 94.304688 101.644531 99.269531 C 104.296875 104.691406 107.875 109.652344 112.261719 113.921875 C 113.53125 115.191406 114.800781 116.460938 116.183594 117.617188 C 116.761719 117.960938 117.453125 118.078125 118.144531 117.960938 C 118.609375 117.847656 118.839844 116.925781 118.839844 116.347656 C 118.839844 115.191406 118.839844 114.15625 118.722656 113 C 120.453125 114.730469 121.839844 116.691406 123.339844 118.425781 C 123.914062 119.117188 124.609375 119.460938 125.53125 119.578125 C 126.109375 119.460938 126.800781 118.425781 127.03125 117.617188 C 127.378906 116.230469 127.609375 114.847656 127.722656 113.460938 C 128.761719 114.617188 129.570312 115.539062 130.261719 116.578125 C 130.953125 117.5 131.300781 118.65625 132.109375 119.578125 C 132.800781 120.15625 133.492188 120.730469 134.300781 121.195312 C 134.878906 120.5 135.339844 119.695312 135.6875 118.886719 C 136.03125 117.960938 136.261719 116.925781 136.378906 115.886719 C 137.300781 117.269531 138.109375 118.65625 138.800781 120.039062 C 139.378906 120.730469 139.957031 121.425781 140.648438 122 C 141.226562 121.308594 141.800781 120.617188 142.261719 119.808594 C 142.609375 119.117188 142.957031 118.308594 143.1875 117.617188 C 144.109375 123.15625 144.109375 123.15625 147.6875 123.847656 C 146.996094 125.230469 145.496094 125.925781 143.996094 125.808594 C 138.457031 125.695312 132.917969 125.578125 127.261719 125.230469 C 125.183594 125.117188 125.183594 126.847656 124.378906 127.886719 C 123.570312 128.925781 124.261719 129.503906 124.953125 130.078125 C 127.953125 132.386719 130.953125 134.808594 134.070312 137.117188 C 139.957031 141.386719 145.957031 145.65625 152.648438 148.65625 C 154.035156 149.234375 155.417969 149.925781 156.917969 150.621094 C 153.574219 154.082031 150.339844 157.542969 147.226562 161.003906 C 146.648438 161.699219 146.648438 162.851562 146.417969 163.773438 C 147.339844 163.890625 148.378906 164.46875 149.1875 164.121094 C 161.996094 160.082031 175.496094 158.695312 188.882812 159.851562 C 194.769531 160.3125 200.539062 161.464844 205.617188 164.8125 C 212.425781 169.082031 214.847656 177.96875 211.039062 185.121094 C 208.15625 190.660156 203.308594 192.96875 197.652344 193.894531 C 192 194.816406 186.230469 195.507812 180.574219 196.199219 C 177.34375 196.546875 174.34375 196.546875 171.574219 194.007812 C 158.1875 182.121094 141.917969 177.507812 124.609375 176.007812 C 124.03125 176.007812 123.453125 176.699219 122.761719 177.046875 C 123.109375 177.621094 123.339844 178.429688 123.914062 178.660156 C 130.378906 181.082031 136.03125 184.660156 141.6875 188.585938 C 146.996094 192.160156 151.726562 196.316406 155.996094 201.046875 C 153.574219 203.46875 151.265625 206.007812 148.726562 208.085938 C 145.957031 210.394531 142.726562 212.125 139.839844 214.316406 C 139.03125 214.894531 138.800781 216.164062 138.226562 217.203125 C 138.917969 217.664062 139.726562 217.894531 140.53125 218.011719 C 151.957031 218.011719 161.648438 212.816406 171.113281 207.507812 C 172.613281 206.585938 174.34375 206.238281 176.074219 206.585938 C 181.382812 207.738281 186.804688 209.355469 192.230469 209.816406 C 197.882812 210.277344 203.769531 209.816406 209.421875 209.585938 C 219.230469 209.242188 228.003906 205.664062 236.425781 201.046875 C 241.734375 198.046875 245.773438 193.546875 249.351562 188.585938 C 253.042969 183.277344 256.503906 177.96875 257.890625 171.507812 C 258.234375 170.351562 258.582031 169.3125 259.042969 168.160156 C 259.734375 168.738281 260.199219 169.082031 260.660156 169.429688 C 265.738281 174.042969 270.699219 178.546875 275.777344 183.160156 C 276.46875 183.851562 277.277344 184.316406 278.199219 184.546875 C 280.855469 184.890625 282.585938 182.699219 282.238281 179.699219 Z M 147.339844 88.882812 C 145.378906 89.574219 143.648438 90.382812 141.800781 91.421875 C 138.800781 93.5 136.261719 93.382812 133.609375 91.074219 C 133.03125 90.613281 132.453125 90.152344 131.878906 89.691406 C 137.070312 88.421875 142.148438 88.535156 147.339844 88.882812 Z M 111.800781 109.886719 C 111.800781 109.769531 111.914062 109.539062 111.914062 109.421875 C 113.070312 109.308594 114.335938 109.308594 115.722656 109.191406 C 115.839844 110.808594 116.070312 112.308594 116.183594 113.808594 C 114.683594 112.421875 113.300781 111.152344 111.800781 109.886719 Z M 124.609375 115.308594 C 123.683594 114.269531 122.878906 113.230469 122.070312 112.308594 C 121.261719 111.386719 120.570312 110.347656 119.761719 109.308594 C 119.992188 109.078125 120.109375 109.078125 120.109375 109.078125 C 126.800781 109.191406 125.648438 108.382812 124.609375 115.308594 Z M 133.492188 116.347656 C 131.878906 114.269531 130.378906 112.421875 128.992188 110.578125 C 129.109375 110.460938 129.109375 110.347656 129.222656 110.230469 C 130.953125 110.691406 132.800781 111.269531 134.761719 111.847656 C 134.300781 113.230469 133.953125 114.617188 133.492188 116.347656 Z M 140.417969 117.039062 C 139.839844 115.886719 139.261719 114.847656 138.6875 113.691406 C 138.800781 113.578125 138.800781 113.460938 138.917969 113.347656 C 139.839844 113.921875 140.761719 114.386719 141.800781 114.960938 C 141.339844 115.65625 140.878906 116.230469 140.417969 117.039062 Z M 243.695312 159.390625 C 241.273438 158.582031 238.851562 157.660156 236.425781 156.851562 C 235.617188 156.734375 234.695312 156.734375 233.886719 156.964844 C 234.003906 157.890625 234.234375 158.695312 234.695312 159.621094 C 235.734375 161.351562 237.117188 162.964844 238.042969 164.8125 C 240.695312 169.890625 240.582031 175.890625 237.925781 180.851562 C 235.964844 184.660156 233.542969 188.238281 230.886719 191.46875 C 229.617188 192.855469 228.003906 194.125 226.273438 195.046875 C 221.195312 198.394531 215.65625 200.933594 209.65625 201.625 C 205.152344 202.085938 200.652344 201.738281 195.808594 201.738281 C 198.460938 200.585938 200.882812 199.433594 203.421875 198.394531 C 207.691406 196.546875 211.847656 194.585938 215.078125 190.890625 C 219.808594 185.699219 220.734375 179.816406 218.65625 173.46875 C 215.886719 164.699219 209.421875 159.160156 201.347656 155.8125 C 192.808594 152.464844 184.152344 149.8125 175.152344 147.964844 C 168.457031 146.464844 161.878906 144.386719 155.304688 142.425781 C 154.035156 142.082031 152.765625 141.503906 151.609375 140.695312 C 146.996094 137.808594 142.378906 134.925781 137.761719 132.039062 C 137.1875 131.695312 136.609375 131.234375 135.917969 130.769531 C 139.609375 130.195312 143.070312 129.964844 146.417969 129.15625 C 153.6875 127.539062 153.917969 122.230469 151.035156 117.847656 C 150.226562 116.691406 149.417969 115.65625 148.496094 114.730469 C 145.839844 111.960938 142.496094 109.882812 138.917969 108.730469 C 131.070312 105.730469 122.644531 104.460938 114.222656 104.808594 C 112.492188 105.039062 110.875 104.230469 110.066406 102.613281 C 108.914062 100.539062 107.53125 98.574219 106.03125 96.269531 C 109.722656 96.5 113.070312 96.269531 116.183594 96.84375 C 122.992188 98.113281 129.917969 99.613281 136.609375 101.578125 C 140.761719 102.613281 144.6875 104.347656 148.265625 106.652344 C 151.265625 108.730469 153.226562 112.078125 155.648438 114.960938 C 155.878906 115.191406 155.996094 115.65625 156.226562 116 C 156.6875 116.578125 157.265625 117.15625 157.726562 117.847656 C 158.1875 117.15625 158.648438 116.347656 158.878906 115.421875 C 159.34375 112.421875 159.457031 109.539062 159.804688 106.539062 C 159.804688 106.078125 159.917969 105.613281 160.035156 105.152344 C 160.265625 105.152344 160.496094 105.152344 160.613281 105.039062 C 161.304688 108.5 162.113281 112.078125 162.804688 115.539062 C 163.148438 117.617188 163.382812 119.808594 163.726562 121.886719 C 163.84375 122.230469 164.1875 122.578125 164.535156 122.808594 C 164.996094 122.347656 165.574219 122 165.6875 121.425781 C 166.382812 118.769531 166.957031 116.117188 167.417969 113.460938 C 167.765625 111.386719 167.996094 109.421875 168.34375 107.347656 C 168.574219 107.347656 168.6875 107.347656 168.917969 107.347656 C 169.382812 111.269531 169.957031 115.078125 170.304688 119 C 170.421875 121.078125 170.074219 123.269531 170.074219 125.464844 C 170.1875 126.039062 170.421875 126.617188 170.765625 127.078125 C 171.226562 126.617188 171.804688 126.386719 172.035156 125.808594 C 173.535156 121.195312 174.921875 116.460938 176.191406 112.308594 C 177.113281 115.65625 177.113281 119.117188 176.421875 122.460938 C 175.960938 124.769531 175.265625 127.078125 174.804688 129.503906 C 174.804688 130.308594 174.921875 131.003906 175.265625 131.695312 C 175.726562 131.347656 176.535156 131.003906 176.765625 130.425781 C 178.613281 126.617188 180.460938 122.695312 182.304688 118.769531 C 189 121.078125 242.886719 152.351562 250.273438 161.929688 C 247.964844 160.890625 245.773438 160.195312 243.695312 159.390625 Z M 243.695312 159.390625 " fill-opacity="1" fill-rule="nonzero"/></g><g fill="#000000" fill-opacity="1"><g transform="translate(35.0841, 254.629754)"><g><path d="M 20.453125 -24.765625 L 11.53125 -24.765625 L 4.75 -6.078125 C 4.375 -5.015625 4.484375 -3.953125 5.171875 -3.3125 L 8.5625 -0.578125 C 8.9375 -0.15625 9.546875 0 10.265625 0 L 26.734375 0 L 28.90625 -5.96875 L 15.59375 -5.96875 C 14.53125 -5.96875 13.953125 -6.8125 14.296875 -7.828125 Z M 20.453125 -24.765625 "/></g></g></g><g fill="#000000" fill-opacity="1"><g transform="translate(62.272899, 254.629754)"><g><path d="M 9.96875 0 L 22.140625 0 C 27.921875 0 32.25 -2.28125 34.03125 -7.1875 L 38.21875 -18.671875 C 38.640625 -19.8125 38.453125 -20.875 37.796875 -21.53125 L 34.375 -24.1875 C 34 -24.609375 33.421875 -24.765625 32.671875 -24.765625 L 20.453125 -24.765625 C 14.796875 -24.765625 10.421875 -22.46875 8.640625 -17.578125 L 4.453125 -6.078125 C 4.0625 -5.015625 4.1875 -3.953125 4.875 -3.3125 L 8.21875 -0.578125 C 8.59375 -0.15625 9.203125 0 9.96875 0 Z M 14 -7.828125 L 17.296875 -16.921875 C 17.71875 -17.984375 18.828125 -18.78125 19.859375 -18.78125 L 27.421875 -18.78125 C 28.484375 -18.78125 29.0625 -17.984375 28.640625 -16.921875 L 25.328125 -7.828125 C 24.984375 -6.8125 23.84375 -5.96875 22.8125 -5.96875 L 15.25 -5.96875 C 14.1875 -5.96875 13.65625 -6.8125 14 -7.828125 Z M 14 -7.828125 "/></g></g></g><g fill="#000000" fill-opacity="1"><g transform="translate(94.823459, 254.629754)"><g><path d="M 31.953125 0 L 38.296875 -17.53125 C 38.71875 -18.640625 38.5625 -19.703125 37.84375 -20.34375 L 33.703125 -24.1875 C 33.3125 -24.609375 32.703125 -24.765625 32.015625 -24.765625 L 20.65625 -24.765625 C 19.921875 -24.765625 19.28125 -24.609375 18.59375 -24.1875 L 13.203125 -21.53125 C 12.09375 -20.875 11.21875 -19.8125 10.71875 -18.671875 L 1.59375 0 L 10.609375 0 L 13.921875 -6.765625 L 16.046875 -4.640625 L 24.6875 -4.640625 L 23.015625 0 Z M 19.046875 -16.921875 C 19.59375 -17.953125 20.65625 -18.78125 21.71875 -18.78125 L 27.875 -18.78125 C 28.9375 -18.78125 29.515625 -17.953125 29.125 -16.921875 L 26.65625 -10.078125 L 15.625 -10.078125 Z M 19.046875 -16.921875 "/></g></g></g><g fill="#000000" fill-opacity="1"><g transform="translate(128.020476, 254.629754)"><g><path d="M 11.328125 0 L 16.421875 -14.078125 L 24.71875 0 L 28.859375 0 C 29.25 0 29.625 -0.109375 29.9375 -0.296875 L 32.703125 -1.71875 C 33.3125 -2.015625 33.765625 -2.546875 34 -3.15625 L 41.828125 -24.765625 L 32.890625 -24.765625 L 27.578125 -10.078125 L 19.515625 -24.765625 L 11.375 -24.765625 L 2.390625 0 Z M 11.328125 0 "/></g></g></g><g fill="#000000" fill-opacity="1"><g transform="translate(162.13012, 254.629754)"><g/></g></g><g fill="#000000" fill-opacity="1"><g transform="translate(176.960265, 254.629754)"><g><path d="M 35.4375 -15.40625 L 16.765625 -15.40625 L 17.296875 -16.921875 C 17.71875 -17.984375 18.828125 -18.78125 19.890625 -18.78125 L 36.65625 -18.78125 L 38.828125 -24.765625 L 20.125 -24.765625 C 19.46875 -24.765625 18.75 -24.609375 18.0625 -24.1875 L 11.109375 -20.34375 C 9.96875 -19.703125 9.015625 -18.640625 8.59375 -17.53125 L 5.671875 -9.4375 L 24.34375 -9.4375 L 23.734375 -7.828125 C 23.390625 -6.8125 22.28125 -5.96875 21.21875 -5.96875 L 4.40625 -5.96875 L 2.25 0 L 21 0 C 21.671875 0 22.359375 -0.15625 23.046875 -0.578125 L 30.078125 -4.53125 C 31.1875 -5.171875 32.0625 -6.078125 32.484375 -7.21875 Z M 35.4375 -15.40625 "/></g></g></g><g fill="#000000" fill-opacity="1"><g transform="translate(207.913704, 254.629754)"><g><path d="M 11.328125 0 L 15.625 -11.859375 L 17.953125 -9.546875 L 26.3125 -9.546875 L 22.859375 0 L 27.796875 0 C 28.1875 0 28.5625 -0.109375 28.859375 -0.296875 L 31.640625 -1.71875 C 32.25 -2.015625 32.703125 -2.546875 32.9375 -3.15625 L 40.765625 -24.765625 L 31.828125 -24.765625 L 28.296875 -14.953125 L 16.765625 -14.953125 L 20.3125 -24.765625 L 11.375 -24.765625 L 2.390625 0 Z M 11.328125 0 "/></g></g></g><g fill="#000000" fill-opacity="1"><g transform="translate(240.958612, 254.629754)"><g><path d="M 31.953125 0 L 38.296875 -17.53125 C 38.71875 -18.640625 38.5625 -19.703125 37.84375 -20.34375 L 33.703125 -24.1875 C 33.3125 -24.609375 32.703125 -24.765625 32.015625 -24.765625 L 20.65625 -24.765625 C 19.921875 -24.765625 19.28125 -24.609375 18.59375 -24.1875 L 13.203125 -21.53125 C 12.09375 -20.875 11.21875 -19.8125 10.71875 -18.671875 L 1.59375 0 L 10.609375 0 L 13.921875 -6.765625 L 16.046875 -4.640625 L 24.6875 -4.640625 L 23.015625 0 Z M 19.046875 -16.921875 C 19.59375 -17.953125 20.65625 -18.78125 21.71875 -18.78125 L 27.875 -18.78125 C 28.9375 -18.78125 29.515625 -17.953125 29.125 -16.921875 L 26.65625 -10.078125 L 15.625 -10.078125 Z M 19.046875 -16.921875 "/></g></g></g><g fill="#000000" fill-opacity="1"><g transform="translate(274.155623, 254.629754)"><g><path d="M 11.328125 0 L 15.59375 -11.71875 L 20.765625 0 L 31.796875 0 L 31.875 -0.234375 L 26.78125 -9.203125 L 29.171875 -9.203125 C 30 -9.203125 30.84375 -9.546875 31.75 -10.234375 L 34.84375 -12.46875 C 35.375 -13 35.71875 -13.421875 35.90625 -14 L 37.234375 -17.578125 C 39.015625 -22.46875 36.25 -24.765625 30.546875 -24.765625 L 11.375 -24.765625 L 2.390625 0 Z M 18.140625 -18.78125 L 26.78125 -18.78125 C 27.796875 -18.78125 28.375 -17.984375 27.953125 -16.921875 L 27.3125 -15.0625 C 26.921875 -14.078125 25.78125 -13.203125 24.71875 -13.203125 L 16.125 -13.203125 Z M 18.140625 -18.78125 "/></g></g></g><g fill="#000000" fill-opacity="1"><g transform="translate(305.337223, 254.629754)"><g><path d="M 11.328125 0 L 15.671875 -11.9375 L 23.046875 0 L 33.234375 0 L 33.3125 -0.234375 L 25.515625 -12.46875 L 42.140625 -24.53125 L 42.21875 -24.765625 L 32.015625 -24.765625 L 16.046875 -13 L 20.3125 -24.765625 L 11.375 -24.765625 L 2.390625 0 Z M 11.328125 0 "/></g></g></g><g fill="#000000" fill-opacity="1"><g transform="translate(80.212968, 278.342559)"><g><path d="M 7.34375 -11.21875 C 3.875 -11.21875 0.96875 -8.515625 0.984375 -4.3125 C 0.96875 -1.40625 2.734375 0.21875 5.484375 0.21875 C 8.28125 0.21875 10.265625 -1.203125 10.96875 -3.71875 L 11.015625 -3.875 L 8.53125 -3.875 L 8.46875 -3.71875 C 7.96875 -2.40625 7.078125 -1.625 5.78125 -1.625 C 4.5625 -1.625 3.640625 -2.453125 3.640625 -4.515625 C 3.640625 -7.53125 5.15625 -9.375 7.09375 -9.375 C 8.4375 -9.375 9.125 -8.765625 9.171875 -7.40625 L 9.171875 -7.25 L 11.65625 -7.25 L 11.671875 -7.40625 C 11.828125 -9.578125 10.390625 -11.21875 7.34375 -11.21875 Z M 7.34375 -11.21875 "/></g></g></g><g fill="#000000" fill-opacity="1"><g transform="translate(95.436139, 278.342559)"><g><path d="M 7.359375 -11.21875 C 3.625 -11.21875 1.015625 -8.484375 1.015625 -4.546875 C 1.015625 -1.84375 2.828125 0.21875 6.078125 0.21875 C 9.8125 0.21875 12.421875 -2.53125 12.421875 -6.453125 C 12.421875 -9.140625 10.609375 -11.21875 7.359375 -11.21875 Z M 6.21875 -1.625 C 4.5625 -1.625 3.671875 -2.859375 3.671875 -4.609375 C 3.671875 -6.78125 4.796875 -9.375 7.21875 -9.375 C 8.875 -9.375 9.765625 -8.15625 9.765625 -6.390625 C 9.765625 -4.21875 8.625 -1.625 6.21875 -1.625 Z M 6.21875 -1.625 "/></g></g></g><g fill="#000000" fill-opacity="1"><g transform="translate(111.26493, 278.342559)"><g><path d="M 7.609375 -10.9375 C 7.0625 -11 6.6875 -11 6.109375 -11 L 2.40625 -11 L 0.46875 0 L 4.296875 0 C 4.875 0 5.140625 0 5.71875 -0.046875 C 9.59375 -0.421875 11.46875 -3.1875 11.46875 -6.3125 C 11.46875 -9.265625 9.78125 -10.6875 7.609375 -10.9375 Z M 5.546875 -2 C 5.1875 -1.953125 4.890625 -1.953125 4.453125 -1.953125 L 3.296875 -1.953125 L 4.5625 -9.046875 L 5.671875 -9.046875 C 6.109375 -9.046875 6.390625 -9.03125 6.734375 -9 C 8 -8.875 8.828125 -8.046875 8.828125 -6.25 C 8.828125 -4.125 7.8125 -2.25 5.546875 -2 Z M 5.546875 -2 "/></g></g></g><g fill="#000000" fill-opacity="1"><g transform="translate(126.153407, 278.342559)"><g><path d="M 2.953125 0 L 4.890625 -11 L 2.40625 -11 L 0.46875 0 Z M 2.953125 0 "/></g></g></g><g fill="#000000" fill-opacity="1"><g transform="translate(134.045321, 278.342559)"><g><path d="M 12.453125 -11 L 9.9375 -11 L 8.53125 -2.890625 L 5.609375 -11 L 2.40625 -11 L 0.46875 0 L 2.953125 0 L 4.328125 -7.875 L 7.171875 0 L 10.5 0 Z M 12.453125 -11 "/></g></g></g><g fill="#000000" fill-opacity="1"><g transform="translate(149.491616, 278.342559)"><g><path d="M 7.625 -11.21875 C 4.15625 -11.21875 0.96875 -8.65625 0.96875 -4.234375 C 0.96875 -1.421875 2.53125 0.21875 5.09375 0.21875 C 6.296875 0.21875 7.140625 -0.015625 7.859375 -0.59375 L 8.546875 -1.71875 L 8.4375 0 L 10.40625 0 L 11.421875 -5.71875 L 6.8125 -5.71875 L 6.453125 -3.78125 L 8.703125 -3.78125 C 8.15625 -2.375 7.140625 -1.625 5.859375 -1.625 C 4.578125 -1.625 3.640625 -2.53125 3.640625 -4.53125 C 3.640625 -7.59375 5.34375 -9.375 7.265625 -9.375 C 8.59375 -9.375 9.28125 -8.765625 9.296875 -7.40625 L 9.296875 -7.25 L 11.796875 -7.25 L 11.8125 -7.40625 C 11.96875 -9.578125 10.671875 -11.21875 7.625 -11.21875 Z M 7.625 -11.21875 "/></g></g></g><g fill="#000000" fill-opacity="1"><g transform="translate(170.502945, 278.342559)"><g><path d="M 7.34375 -11.21875 C 3.875 -11.21875 0.96875 -8.515625 0.984375 -4.3125 C 0.96875 -1.40625 2.734375 0.21875 5.484375 0.21875 C 8.28125 0.21875 10.265625 -1.203125 10.96875 -3.71875 L 11.015625 -3.875 L 8.53125 -3.875 L 8.46875 -3.71875 C 7.96875 -2.40625 7.078125 -1.625 5.78125 -1.625 C 4.5625 -1.625 3.640625 -2.453125 3.640625 -4.515625 C 3.640625 -7.53125 5.15625 -9.375 7.09375 -9.375 C 8.4375 -9.375 9.125 -8.765625 9.171875 -7.40625 L 9.171875 -7.25 L 11.65625 -7.25 L 11.671875 -7.40625 C 11.828125 -9.578125 10.390625 -11.21875 7.34375 -11.21875 Z M 7.34375 -11.21875 "/></g></g></g><g fill="#000000" fill-opacity="1"><g transform="translate(185.726115, 278.342559)"><g><path d="M 12.203125 -11 L 9.703125 -11 L 8.890625 -6.375 L 4.078125 -6.375 L 4.890625 -11 L 2.40625 -11 L 0.46875 0 L 2.953125 0 L 3.734375 -4.421875 L 8.546875 -4.421875 L 7.765625 0 L 10.265625 0 Z M 12.203125 -11 "/></g></g></g><g fill="#000000" fill-opacity="1"><g transform="translate(200.933344, 278.342559)"><g><path d="M 7.265625 -3.109375 L 7.71875 0 L 10.421875 0 L 8.515625 -11 L 5.25 -11 L -0.59375 0 L 2.09375 0 L 3.640625 -3.109375 Z M 6.96875 -5.0625 L 4.609375 -5.0625 L 6.4375 -8.734375 Z M 6.96875 -5.0625 "/></g></g></g><g fill="#000000" fill-opacity="1"><g transform="translate(215.152443, 278.342559)"><g><path d="M 8.984375 -2.109375 L 3.3125 -2.109375 L 4.890625 -11 L 2.40625 -11 L 0.46875 0 L 8.609375 0 Z M 8.984375 -2.109375 "/></g></g></g><g fill="#000000" fill-opacity="1"><g transform="translate(228.01686, 278.342559)"><g><path d="M 8.984375 -2.109375 L 3.3125 -2.109375 L 4.890625 -11 L 2.40625 -11 L 0.46875 0 L 8.609375 0 Z M 8.984375 -2.109375 "/></g></g></g><g fill="#000000" fill-opacity="1"><g transform="translate(240.881277, 278.342559)"><g><path d="M 4.546875 -9.046875 L 10.046875 -9.046875 L 10.390625 -11 L 2.40625 -11 L 0.46875 0 L 8.609375 0 L 8.953125 -1.953125 L 3.296875 -1.953125 L 3.75 -4.546875 L 8.890625 -4.546875 L 9.25 -6.484375 L 4.09375 -6.484375 Z M 4.546875 -9.046875 "/></g></g></g><g fill="#000000" fill-opacity="1"><g transform="translate(253.936948, 278.342559)"><g><path d="M 12.453125 -11 L 9.9375 -11 L 8.53125 -2.890625 L 5.609375 -11 L 2.40625 -11 L 0.46875 0 L 2.953125 0 L 4.328125 -7.875 L 7.171875 0 L 10.5 0 Z M 12.453125 -11 "/></g></g></g><g fill="#000000" fill-opacity="1"><g transform="translate(269.383243, 278.342559)"><g><path d="M 7.625 -11.21875 C 4.15625 -11.21875 0.96875 -8.65625 0.96875 -4.234375 C 0.96875 -1.421875 2.53125 0.21875 5.09375 0.21875 C 6.296875 0.21875 7.140625 -0.015625 7.859375 -0.59375 L 8.546875 -1.71875 L 8.4375 0 L 10.40625 0 L 11.421875 -5.71875 L 6.8125 -5.71875 L 6.453125 -3.78125 L 8.703125 -3.78125 C 8.15625 -2.375 7.140625 -1.625 5.859375 -1.625 C 4.578125 -1.625 3.640625 -2.53125 3.640625 -4.53125 C 3.640625 -7.59375 5.34375 -9.375 7.265625 -9.375 C 8.59375 -9.375 9.28125 -8.765625 9.296875 -7.40625 L 9.296875 -7.25 L 11.796875 -7.25 L 11.8125 -7.40625 C 11.96875 -9.578125 10.671875 -11.21875 7.625 -11.21875 Z M 7.625 -11.21875 "/></g></g></g><g fill="#000000" fill-opacity="1"><g transform="translate(284.893283, 278.342559)"><g><path d="M 4.546875 -9.046875 L 10.046875 -9.046875 L 10.390625 -11 L 2.40625 -11 L 0.46875 0 L 8.609375 0 L 8.953125 -1.953125 L 3.296875 -1.953125 L 3.75 -4.546875 L 8.890625 -4.546875 L 9.25 -6.484375 L 4.09375 -6.484375 Z M 4.546875 -9.046875 "/></g></g></g></svg>