<svg xmlns="http://www.w3.org/2000/svg" xmlns:xlink="http://www.w3.org/1999/xlink" width="500" zoomAndPan="magnify" viewBox="0 0 375 374.999991" height="500" preserveAspectRatio="xMidYMid meet" version="1.0"><defs><g/><clipPath id="18e4b7a74f"><path d="M 86 118 L 238 118 L 238 227.785156 L 86 227.785156 Z M 86 118 " clip-rule="nonzero"/></clipPath><clipPath id="1ed274053a"><path d="M 106 86.035156 L 289 86.035156 L 289 191 L 106 191 Z M 106 86.035156 " clip-rule="nonzero"/></clipPath></defs><rect x="-37.5" width="450" fill="#ffffff" y="-37.499999" height="449.999989" fill-opacity="1"/><rect x="-37.5" width="450" fill="#ffffff" y="-37.499999" height="449.999989" fill-opacity="1"/><g clip-path="url(#18e4b7a74f)"><path fill="#000000" d="M 86.078125 163.507812 L 106.949219 173.941406 L 106.949219 227.863281 L 213.992188 227.863281 L 213.992188 140.105469 C 195.5 161.097656 180.527344 188.328125 167.96875 219.835938 C 148.550781 199.144531 128.179688 182.851562 106.957031 170.515625 C 101.308594 167.234375 95.59375 164.230469 89.828125 161.5 L 100.128906 149.054688 L 86.082031 163.507812 Z M 237.273438 118.539062 C 232.726562 121.902344 228.359375 125.574219 224.164062 129.550781 L 224.164062 217.164062 L 237.273438 217.164062 Z M 237.273438 118.539062 " fill-opacity="1" fill-rule="evenodd"/></g><g clip-path="url(#1ed274053a)"><path fill="#ff6600" d="M 213.992188 128.746094 L 213.992188 96.742188 L 106.949219 96.742188 L 106.949219 142.234375 C 128.984375 154.722656 148.789062 169.886719 163.679688 190.9375 C 178.894531 167.667969 194.898438 145.695312 213.988281 128.746094 Z M 139.976562 157.695312 L 139.976562 123.800781 L 124.457031 130.257812 L 124.457031 145.695312 C 129.851562 149.429688 135.039062 153.410156 139.976562 157.695312 Z M 142.652344 122.6875 L 142.652344 160.074219 C 148.195312 165.109375 153.390625 170.550781 158.175781 176.5 L 158.175781 116.230469 Z M 160.851562 115.117188 L 160.851562 179.9375 C 161.652344 181 162.4375 182.078125 163.214844 183.175781 C 167.519531 176.589844 171.890625 170.109375 176.371094 163.816406 L 176.371094 108.65625 L 160.851562 115.113281 Z M 179.046875 107.546875 L 179.046875 160.101562 C 184.046875 153.25 189.195312 146.644531 194.570312 140.402344 L 194.570312 101.085938 L 179.046875 107.542969 Z M 224.164062 90.851562 L 224.164062 120.445312 C 228.375 117.300781 232.738281 114.402344 237.273438 111.78125 C 252.339844 103.085938 269.300781 97.476562 288.921875 96.199219 C 268.535156 91.96875 252.636719 95.1875 237.273438 101.289062 L 237.273438 86.03125 L 130.230469 86.03125 L 130.230469 90.847656 L 224.15625 90.847656 Z M 224.164062 90.851562 " fill-opacity="1" fill-rule="evenodd"/></g><g fill="#ff6600" fill-opacity="1"><g transform="translate(107.289279, 268.979782)"><g><path d="M 1.25 -26.640625 L 1.25 -32.6875 L 27.046875 -32.6875 L 27.046875 -26.640625 L 18.109375 -26.640625 L 18.109375 0 L 10.15625 0 L 10.15625 -26.640625 Z M 1.25 -26.640625 "/></g></g></g><g fill="#ff6600" fill-opacity="1"><g transform="translate(134.436789, 268.979782)"><g><path d="M 19.3125 -8.234375 C 20.46875 -9.359375 21.046875 -10.941406 21.046875 -12.984375 C 21.046875 -15.035156 20.46875 -16.613281 19.3125 -17.71875 C 18.164062 -18.820312 16.847656 -19.375 15.359375 -19.375 C 13.867188 -19.375 12.550781 -18.8125 11.40625 -17.6875 C 10.257812 -16.570312 9.6875 -14.988281 9.6875 -12.9375 C 9.6875 -10.894531 10.257812 -9.320312 11.40625 -8.21875 C 12.550781 -7.113281 13.867188 -6.5625 15.359375 -6.5625 C 16.847656 -6.5625 18.164062 -7.117188 19.3125 -8.234375 Z M 5.015625 -3.390625 C 2.722656 -5.878906 1.578125 -9.0625 1.578125 -12.9375 C 1.578125 -16.820312 2.722656 -20.015625 5.015625 -22.515625 C 7.316406 -25.015625 10.117188 -26.265625 13.421875 -26.265625 C 16.734375 -26.265625 19.273438 -25.035156 21.046875 -22.578125 L 21.046875 -25.984375 L 29.015625 -25.984375 L 29.015625 0 L 21.046875 0 L 21.046875 -3.765625 C 19.117188 -1.035156 16.539062 0.328125 13.3125 0.328125 C 10.082031 0.328125 7.316406 -0.910156 5.015625 -3.390625 Z M 5.015625 -3.390625 "/></g></g></g><g fill="#ff6600" fill-opacity="1"><g transform="translate(165.775175, 268.979782)"><g><path d="M 1.71875 -18.15625 C 1.71875 -20.457031 2.695312 -22.382812 4.65625 -23.9375 C 6.613281 -25.488281 9.257812 -26.265625 12.59375 -26.265625 C 15.925781 -26.265625 18.617188 -25.503906 20.671875 -23.984375 C 22.722656 -22.460938 23.8125 -20.378906 23.9375 -17.734375 L 15.78125 -17.734375 C 15.6875 -18.640625 15.375 -19.253906 14.84375 -19.578125 C 14.320312 -19.898438 13.535156 -20.0625 12.484375 -20.0625 C 10.398438 -20.0625 9.359375 -19.425781 9.359375 -18.15625 C 9.359375 -17.007812 10.628906 -16.21875 13.171875 -15.78125 C 15.753906 -15.34375 18.097656 -14.675781 20.203125 -13.78125 C 21.296875 -13.34375 22.207031 -12.617188 22.9375 -11.609375 C 23.664062 -10.609375 24.03125 -9.378906 24.03125 -7.921875 C 24.03125 -5.492188 22.988281 -3.507812 20.90625 -1.96875 C 18.820312 -0.4375 16.195312 0.328125 13.03125 0.328125 C 9.863281 0.328125 7.222656 -0.390625 5.109375 -1.828125 C 3.003906 -3.273438 1.859375 -5.410156 1.671875 -8.234375 L 9.828125 -8.234375 C 10.046875 -6.648438 11.160156 -5.859375 13.171875 -5.859375 C 14.109375 -5.859375 14.878906 -6.078125 15.484375 -6.515625 C 16.085938 -6.953125 16.390625 -7.507812 16.390625 -8.1875 C 16.390625 -8.875 15.882812 -9.421875 14.875 -9.828125 C 13.863281 -10.234375 12.644531 -10.570312 11.21875 -10.84375 C 9.789062 -11.125 8.351562 -11.472656 6.90625 -11.890625 C 5.46875 -12.316406 4.242188 -13.046875 3.234375 -14.078125 C 2.222656 -15.117188 1.71875 -16.476562 1.71875 -18.15625 Z M 1.71875 -18.15625 "/></g></g></g><g fill="#ff6600" fill-opacity="1"><g transform="translate(190.454726, 268.979782)"><g><path d="M 11.453125 0 L 3.484375 0 L 3.484375 -34.453125 L 11.453125 -34.453125 L 11.453125 -15.125 L 19.515625 -25.984375 L 30.21875 -25.984375 L 19.09375 -12.71875 L 30.21875 0 L 19.65625 0 L 11.453125 -10.390625 Z M 11.453125 0 "/></g></g></g><g fill="#ff6600" fill-opacity="1"><g transform="translate(219.697673, 268.979782)"><g><path d="M 14.53125 0.328125 C 10.738281 0.328125 7.628906 -0.890625 5.203125 -3.328125 C 2.785156 -5.765625 1.578125 -9 1.578125 -13.03125 C 1.578125 -17.070312 2.78125 -20.285156 5.1875 -22.671875 C 7.59375 -25.066406 10.703125 -26.265625 14.515625 -26.265625 C 18.335938 -26.265625 21.503906 -25.082031 24.015625 -22.71875 C 26.535156 -20.363281 27.796875 -17.085938 27.796875 -12.890625 C 27.796875 -11.992188 27.734375 -11.160156 27.609375 -10.390625 L 9.734375 -10.390625 C 9.890625 -9.234375 10.398438 -8.289062 11.265625 -7.5625 C 12.140625 -6.832031 13.078125 -6.46875 14.078125 -6.46875 C 15.085938 -6.46875 15.84375 -6.566406 16.34375 -6.765625 C 16.84375 -6.972656 17.207031 -7.175781 17.4375 -7.375 C 17.664062 -7.582031 17.96875 -7.914062 18.34375 -8.375 L 26.953125 -8.375 C 26.210938 -5.769531 24.722656 -3.664062 22.484375 -2.0625 C 20.253906 -0.46875 17.601562 0.328125 14.53125 0.328125 Z M 19.515625 -15.359375 C 19.390625 -16.578125 18.859375 -17.566406 17.921875 -18.328125 C 16.992188 -19.085938 15.894531 -19.46875 14.625 -19.46875 C 13.351562 -19.46875 12.28125 -19.085938 11.40625 -18.328125 C 10.539062 -17.566406 10 -16.578125 9.78125 -15.359375 Z M 19.515625 -15.359375 "/></g></g></g><g fill="#ff6600" fill-opacity="1"><g transform="translate(247.962753, 268.979782)"><g><path d="M 11.453125 -25.984375 L 11.453125 -21.140625 C 13.316406 -24.554688 15.800781 -26.265625 18.90625 -26.265625 L 18.90625 -18.15625 L 16.953125 -18.15625 C 15.117188 -18.15625 13.742188 -17.71875 12.828125 -16.84375 C 11.910156 -15.976562 11.453125 -14.460938 11.453125 -12.296875 L 11.453125 0 L 3.484375 0 L 3.484375 -25.984375 Z M 11.453125 -25.984375 "/></g></g></g><g fill="#000000" fill-opacity="1"><g transform="translate(72.393515, 300.327489)"><g><path d="M 0.546875 -11.515625 L 0.546875 -14.140625 L 11.703125 -14.140625 L 11.703125 -11.515625 L 7.828125 -11.515625 L 7.828125 0 L 4.390625 0 L 4.390625 -11.515625 Z M 0.546875 -11.515625 "/></g></g></g><g fill="#000000" fill-opacity="1"><g transform="translate(87.140118, 300.327489)"><g><path d="M 10.640625 -4.140625 C 11.316406 -4.878906 11.65625 -5.867188 11.65625 -7.109375 C 11.65625 -8.347656 11.316406 -9.332031 10.640625 -10.0625 C 9.960938 -10.800781 9.054688 -11.171875 7.921875 -11.171875 C 6.785156 -11.171875 5.878906 -10.800781 5.203125 -10.0625 C 4.523438 -9.332031 4.1875 -8.347656 4.1875 -7.109375 C 4.1875 -5.867188 4.523438 -4.878906 5.203125 -4.140625 C 5.878906 -3.410156 6.785156 -3.046875 7.921875 -3.046875 C 9.054688 -3.046875 9.960938 -3.410156 10.640625 -4.140625 Z M 2.78125 -1.90625 C 1.382812 -3.28125 0.6875 -5.015625 0.6875 -7.109375 C 0.6875 -9.203125 1.382812 -10.929688 2.78125 -12.296875 C 4.1875 -13.660156 5.90625 -14.34375 7.9375 -14.34375 C 9.976562 -14.34375 11.691406 -13.660156 13.078125 -12.296875 C 14.472656 -10.929688 15.171875 -9.203125 15.171875 -7.109375 C 15.171875 -5.015625 14.472656 -3.28125 13.078125 -1.90625 C 11.679688 -0.539062 9.96875 0.140625 7.9375 0.140625 C 5.90625 0.140625 4.1875 -0.539062 2.78125 -1.90625 Z M 2.78125 -1.90625 "/></g></g></g><g fill="#000000" fill-opacity="1"><g transform="translate(105.512723, 300.327489)"><g><path d="M 1.40625 -5.640625 L 1.40625 -8.5 L 10.265625 -8.5 L 10.265625 -5.640625 Z M 1.40625 -5.640625 "/></g></g></g><g fill="#000000" fill-opacity="1"><g transform="translate(119.695279, 300.327489)"><g><path d="M 4.953125 -2.625 L 6.484375 -2.625 C 7.796875 -2.625 8.828125 -3.023438 9.578125 -3.828125 C 10.335938 -4.628906 10.71875 -5.707031 10.71875 -7.0625 C 10.71875 -8.425781 10.335938 -9.507812 9.578125 -10.3125 C 8.828125 -11.113281 7.796875 -11.515625 6.484375 -11.515625 L 4.953125 -11.515625 Z M 6.484375 -14.140625 C 8.742188 -14.140625 10.597656 -13.484375 12.046875 -12.171875 C 13.492188 -10.867188 14.21875 -9.171875 14.21875 -7.078125 C 14.21875 -4.992188 13.492188 -3.289062 12.046875 -1.96875 C 10.597656 -0.65625 8.742188 0 6.484375 0 L 1.515625 0 L 1.515625 -14.140625 Z M 6.484375 -14.140625 "/></g></g></g><g fill="#000000" fill-opacity="1"><g transform="translate(137.08081, 300.327489)"><g><path d="M 10.640625 -4.140625 C 11.316406 -4.878906 11.65625 -5.867188 11.65625 -7.109375 C 11.65625 -8.347656 11.316406 -9.332031 10.640625 -10.0625 C 9.960938 -10.800781 9.054688 -11.171875 7.921875 -11.171875 C 6.785156 -11.171875 5.878906 -10.800781 5.203125 -10.0625 C 4.523438 -9.332031 4.1875 -8.347656 4.1875 -7.109375 C 4.1875 -5.867188 4.523438 -4.878906 5.203125 -4.140625 C 5.878906 -3.410156 6.785156 -3.046875 7.921875 -3.046875 C 9.054688 -3.046875 9.960938 -3.410156 10.640625 -4.140625 Z M 2.78125 -1.90625 C 1.382812 -3.28125 0.6875 -5.015625 0.6875 -7.109375 C 0.6875 -9.203125 1.382812 -10.929688 2.78125 -12.296875 C 4.1875 -13.660156 5.90625 -14.34375 7.9375 -14.34375 C 9.976562 -14.34375 11.691406 -13.660156 13.078125 -12.296875 C 14.472656 -10.929688 15.171875 -9.203125 15.171875 -7.109375 C 15.171875 -5.015625 14.472656 -3.28125 13.078125 -1.90625 C 11.679688 -0.539062 9.96875 0.140625 7.9375 0.140625 C 5.90625 0.140625 4.1875 -0.539062 2.78125 -1.90625 Z M 2.78125 -1.90625 "/></g></g></g><g fill="#000000" fill-opacity="1"><g transform="translate(155.453418, 300.327489)"><g/></g></g><g fill="#000000" fill-opacity="1"><g transform="translate(163.995527, 300.327489)"><g><path d="M 17.515625 -14.140625 L 17.515625 0 L 14.078125 0 L 14.078125 -7.96875 L 10.796875 0 L 8.234375 0 L 4.953125 -7.96875 L 4.953125 0 L 1.515625 0 L 1.515625 -14.140625 L 5.453125 -14.140625 L 9.53125 -4.390625 L 13.578125 -14.140625 Z M 17.515625 -14.140625 "/></g></g></g><g fill="#000000" fill-opacity="1"><g transform="translate(185.530806, 300.327489)"><g><path d="M 10.5 0 L 9.703125 -2.375 L 4.625 -2.375 L 3.84375 0 L 0.1875 0 L 5.09375 -14.171875 L 9.28125 -14.171875 L 14.171875 0 Z M 5.5 -5 L 8.84375 -5 L 7.171875 -10.03125 Z M 5.5 -5 "/></g></g></g><g fill="#000000" fill-opacity="1"><g transform="translate(202.392576, 300.327489)"><g><path d="M 4.953125 -2.625 L 6.484375 -2.625 C 7.796875 -2.625 8.828125 -3.023438 9.578125 -3.828125 C 10.335938 -4.628906 10.71875 -5.707031 10.71875 -7.0625 C 10.71875 -8.425781 10.335938 -9.507812 9.578125 -10.3125 C 8.828125 -11.113281 7.796875 -11.515625 6.484375 -11.515625 L 4.953125 -11.515625 Z M 6.484375 -14.140625 C 8.742188 -14.140625 10.597656 -13.484375 12.046875 -12.171875 C 13.492188 -10.867188 14.21875 -9.171875 14.21875 -7.078125 C 14.21875 -4.992188 13.492188 -3.289062 12.046875 -1.96875 C 10.597656 -0.65625 8.742188 0 6.484375 0 L 1.515625 0 L 1.515625 -14.140625 Z M 6.484375 -14.140625 "/></g></g></g><g fill="#000000" fill-opacity="1"><g transform="translate(219.778107, 300.327489)"><g><path d="M 10.078125 -14.171875 L 10.078125 -11.5625 L 4.953125 -11.5625 L 4.953125 -8.515625 L 9.46875 -8.515625 L 9.46875 -5.90625 L 4.953125 -5.90625 L 4.953125 -2.625 L 10.078125 -2.625 L 10.078125 0 L 1.515625 0 L 1.515625 -14.171875 Z M 10.078125 -14.171875 "/></g></g></g><g fill="#000000" fill-opacity="1"><g transform="translate(233.799511, 300.327489)"><g/></g></g><g fill="#000000" fill-opacity="1"><g transform="translate(242.341621, 300.327489)"><g><path d="M 10.078125 -14.171875 L 10.078125 -11.5625 L 4.953125 -11.5625 L 4.953125 -8.515625 L 9.46875 -8.515625 L 9.46875 -5.90625 L 4.953125 -5.90625 L 4.953125 -2.625 L 10.078125 -2.625 L 10.078125 0 L 1.515625 0 L 1.515625 -14.171875 Z M 10.078125 -14.171875 "/></g></g></g><g fill="#000000" fill-opacity="1"><g transform="translate(256.363024, 300.327489)"><g><path d="M 10.5 0 L 9.703125 -2.375 L 4.625 -2.375 L 3.84375 0 L 0.1875 0 L 5.09375 -14.171875 L 9.28125 -14.171875 L 14.171875 0 Z M 5.5 -5 L 8.84375 -5 L 7.171875 -10.03125 Z M 5.5 -5 "/></g></g></g><g fill="#000000" fill-opacity="1"><g transform="translate(273.224794, 300.327489)"><g><path d="M 6.296875 -11.625 C 5.867188 -11.625 5.515625 -11.507812 5.234375 -11.28125 C 4.960938 -11.050781 4.828125 -10.71875 4.828125 -10.28125 C 4.828125 -9.851562 4.953125 -9.507812 5.203125 -9.25 C 5.460938 -8.988281 5.796875 -8.785156 6.203125 -8.640625 C 6.617188 -8.503906 7.078125 -8.375 7.578125 -8.25 C 8.085938 -8.125 8.585938 -7.96875 9.078125 -7.78125 C 9.578125 -7.601562 10.03125 -7.378906 10.4375 -7.109375 C 10.851562 -6.835938 11.1875 -6.457031 11.4375 -5.96875 C 11.695312 -5.476562 11.828125 -4.890625 11.828125 -4.203125 C 11.828125 -3.015625 11.335938 -1.992188 10.359375 -1.140625 C 9.390625 -0.285156 8.109375 0.140625 6.515625 0.140625 C 4.921875 0.140625 3.632812 -0.238281 2.65625 -1 C 1.6875 -1.769531 1.203125 -2.859375 1.203125 -4.265625 L 4.875 -4.265625 C 4.96875 -3.140625 5.546875 -2.578125 6.609375 -2.578125 C 7.097656 -2.578125 7.484375 -2.707031 7.765625 -2.96875 C 8.054688 -3.226562 8.203125 -3.5625 8.203125 -3.96875 C 8.203125 -4.375 8.070312 -4.703125 7.8125 -4.953125 C 7.5625 -5.210938 7.226562 -5.414062 6.8125 -5.5625 C 6.40625 -5.707031 5.945312 -5.84375 5.4375 -5.96875 C 4.9375 -6.09375 4.4375 -6.25 3.9375 -6.4375 C 3.445312 -6.632812 2.992188 -6.863281 2.578125 -7.125 C 2.171875 -7.382812 1.835938 -7.757812 1.578125 -8.25 C 1.328125 -8.738281 1.203125 -9.316406 1.203125 -9.984375 C 1.203125 -11.304688 1.691406 -12.363281 2.671875 -13.15625 C 3.660156 -13.945312 4.914062 -14.34375 6.4375 -14.34375 C 7.957031 -14.34375 9.1875 -13.992188 10.125 -13.296875 C 11.070312 -12.609375 11.5625 -11.519531 11.59375 -10.03125 L 7.859375 -10.03125 C 7.804688 -10.539062 7.640625 -10.929688 7.359375 -11.203125 C 7.085938 -11.484375 6.734375 -11.625 6.296875 -11.625 Z M 6.296875 -11.625 "/></g></g></g><g fill="#000000" fill-opacity="1"><g transform="translate(288.757035, 300.327489)"><g><path d="M 8.640625 0 L 5.203125 0 L 5.203125 -4.546875 L 0.296875 -14.140625 L 4.203125 -14.140625 L 6.921875 -7.75 L 9.625 -14.140625 L 13.53125 -14.140625 L 8.640625 -4.546875 Z M 8.640625 0 "/></g></g></g></svg>